%TF.GenerationSoftware,KiCad,Pcbnew,7.0.11+dfsg-1build4*%
%TF.CreationDate,2026-08-19T13:39:56+02:00*%
%TF.ProjectId,pcb-svetla-mn98,7063622d-7376-4657-946c-612d6d6e3938,rev?*%
%TF.SameCoordinates,Original*%
%TF.FileFunction,Copper,L1,Top*%
%TF.FilePolarity,Positive*%
%FSLAX46Y46*%
G04 Gerber Fmt 4.6, Leading zero omitted, Abs format (unit mm)*
G04 Created by KiCad (PCBNEW 7.0.11+dfsg-1build4) date 2026-08-19 13:39:56*
%MOMM*%
%LPD*%
G01*
G04 APERTURE LIST*
G04 Aperture macros list*
%AMRoundRect*
0 Rectangle with rounded corners*
0 $1 Rounding radius*
0 $2 $3 $4 $5 $6 $7 $8 $9 X,Y pos of 4 corners*
0 Add a 4 corners polygon primitive as box body*
4,1,4,$2,$3,$4,$5,$6,$7,$8,$9,$2,$3,0*
0 Add four circle primitives for the rounded corners*
1,1,$1+$1,$2,$3*
1,1,$1+$1,$4,$5*
1,1,$1+$1,$6,$7*
1,1,$1+$1,$8,$9*
0 Add four rect primitives between the rounded corners*
20,1,$1+$1,$2,$3,$4,$5,0*
20,1,$1+$1,$4,$5,$6,$7,0*
20,1,$1+$1,$6,$7,$8,$9,0*
20,1,$1+$1,$8,$9,$2,$3,0*%
G04 Aperture macros list end*
%TA.AperFunction,ComponentPad*%
%ADD10RoundRect,0.250000X-0.625000X0.350000X-0.625000X-0.350000X0.625000X-0.350000X0.625000X0.350000X0*%
%TD*%
%TA.AperFunction,ComponentPad*%
%ADD11O,1.750000X1.200000*%
%TD*%
%TA.AperFunction,ComponentPad*%
%ADD12RoundRect,0.250000X-0.350000X-0.625000X0.350000X-0.625000X0.350000X0.625000X-0.350000X0.625000X0*%
%TD*%
%TA.AperFunction,ComponentPad*%
%ADD13O,1.200000X1.750000*%
%TD*%
%TA.AperFunction,ComponentPad*%
%ADD14RoundRect,0.250000X0.350000X0.625000X-0.350000X0.625000X-0.350000X-0.625000X0.350000X-0.625000X0*%
%TD*%
%TA.AperFunction,ComponentPad*%
%ADD15RoundRect,0.250000X0.625000X-0.350000X0.625000X0.350000X-0.625000X0.350000X-0.625000X-0.350000X0*%
%TD*%
%TA.AperFunction,ComponentPad*%
%ADD16R,1.700000X1.700000*%
%TD*%
%TA.AperFunction,ComponentPad*%
%ADD17O,1.700000X1.700000*%
%TD*%
%TA.AperFunction,Conductor*%
%ADD18C,0.800000*%
%TD*%
%TA.AperFunction,Conductor*%
%ADD19C,1.200000*%
%TD*%
G04 APERTURE END LIST*
D10*
%TO.P,J9,1*%
%TO.N,COMMON+*%
X1500000Y-32000000D03*
D11*
%TO.P,J9,2*%
%TO.N,RAMP*%
X1500000Y-34000000D03*
%TD*%
D12*
%TO.P,J1,1*%
%TO.N,COMMON+*%
X1500000Y-1500000D03*
D13*
%TO.P,J1,2*%
%TO.N,LEFT*%
X3500000Y-1500000D03*
%TD*%
D10*
%TO.P,J8,1*%
%TO.N,COMMON+*%
X1500000Y-24000000D03*
D11*
%TO.P,J8,2*%
%TO.N,REAR_RED*%
X1500000Y-26000000D03*
%TD*%
D14*
%TO.P,J14,1*%
%TO.N,COMMON+*%
X27000000Y-36300000D03*
D13*
%TO.P,J14,2*%
X25000000Y-36300000D03*
%TO.P,J14,3*%
%TO.N,LEFT*%
X23000000Y-36300000D03*
%TO.P,J14,4*%
%TO.N,RIGHT*%
X21000000Y-36300000D03*
%TO.P,J14,5*%
%TO.N,BRAKE*%
X19000000Y-36300000D03*
%TO.P,J14,6*%
%TO.N,FLASH*%
X17000000Y-36300000D03*
%TO.P,J14,7*%
%TO.N,BACK-UP*%
X15000000Y-36300000D03*
%TO.P,J14,8*%
%TO.N,DRL*%
X13000000Y-36300000D03*
%TD*%
D10*
%TO.P,J7,1*%
%TO.N,COMMON+*%
X1500000Y-16000000D03*
D11*
%TO.P,J7,2*%
%TO.N,MARKER*%
X1500000Y-18000000D03*
%TD*%
D10*
%TO.P,J6,1*%
%TO.N,COMMON+*%
X1500000Y-8000000D03*
D11*
%TO.P,J6,2*%
%TO.N,DRL*%
X1500000Y-10000000D03*
%TD*%
D12*
%TO.P,J3,1*%
%TO.N,COMMON+*%
X13500000Y-1500000D03*
D13*
%TO.P,J3,2*%
%TO.N,LEFT*%
X15500000Y-1500000D03*
%TD*%
D15*
%TO.P,J13,1*%
%TO.N,COMMON+*%
X28500000Y-32000000D03*
D11*
%TO.P,J13,2*%
%TO.N,DRL*%
X28500000Y-30000000D03*
%TD*%
D15*
%TO.P,J12,1*%
%TO.N,COMMON+*%
X28500000Y-24000000D03*
D11*
%TO.P,J12,2*%
%TO.N,REAR_RED*%
X28500000Y-22000000D03*
%TD*%
D12*
%TO.P,J4,1*%
%TO.N,COMMON+*%
X19500000Y-1500000D03*
D13*
%TO.P,J4,2*%
%TO.N,RIGHT*%
X21500000Y-1500000D03*
%TD*%
D16*
%TO.P,JP1,1*%
%TO.N,DRL*%
X10500000Y-18000000D03*
D17*
%TO.P,JP1,2*%
%TO.N,MARKER*%
X10500000Y-20540000D03*
%TO.P,JP1,3*%
%TO.N,FLASH*%
X10500000Y-23080000D03*
%TD*%
D15*
%TO.P,J10,1*%
%TO.N,COMMON+*%
X28500000Y-8000000D03*
D11*
%TO.P,J10,2*%
%TO.N,DRL*%
X28500000Y-6000000D03*
%TD*%
D15*
%TO.P,J11,1*%
%TO.N,COMMON+*%
X28500000Y-16000000D03*
D11*
%TO.P,J11,2*%
%TO.N,MARKER*%
X28500000Y-14000000D03*
%TD*%
D12*
%TO.P,J5,1*%
%TO.N,COMMON+*%
X25500000Y-1500000D03*
D13*
%TO.P,J5,2*%
%TO.N,FLASH*%
X27500000Y-1500000D03*
%TD*%
D16*
%TO.P,JP3,1*%
%TO.N,DRL*%
X10500000Y-25000000D03*
D17*
%TO.P,JP3,2*%
%TO.N,RAMP*%
X10500000Y-27540000D03*
%TO.P,JP3,3*%
%TO.N,FLASH*%
X10500000Y-30080000D03*
%TD*%
D12*
%TO.P,J2,1*%
%TO.N,COMMON+*%
X7500000Y-1500000D03*
D13*
%TO.P,J2,2*%
%TO.N,RIGHT*%
X9500000Y-1500000D03*
%TD*%
D16*
%TO.P,JP2,1*%
%TO.N,REAR_RED*%
X17000000Y-21000000D03*
D17*
%TO.P,JP2,2*%
%TO.N,DRL*%
X19540000Y-21000000D03*
%TO.P,JP2,3*%
%TO.N,REAR_RED*%
X17000000Y-23540000D03*
%TO.P,JP2,4*%
%TO.N,BRAKE*%
X19540000Y-23540000D03*
%TO.P,JP2,5*%
%TO.N,REAR_RED*%
X17000000Y-26080000D03*
%TO.P,JP2,6*%
%TO.N,BACK-UP*%
X19540000Y-26080000D03*
%TD*%
D18*
%TO.N,COMMON+*%
X15000000Y-8000000D02*
X28500000Y-8000000D01*
X15000000Y-32000000D02*
X28500000Y-32000000D01*
D19*
X25000000Y-35000000D02*
X15000000Y-35000000D01*
X15000000Y-35000000D02*
X15000000Y-5000000D01*
D18*
X15000000Y-1500000D02*
X1500000Y-1500000D01*
X15000000Y-8000000D02*
X1500000Y-8000000D01*
X15000000Y-1500000D02*
X25500000Y-1500000D01*
X15000000Y-24000000D02*
X28500000Y-24000000D01*
X15000000Y-1500000D02*
X13500000Y-1500000D01*
X15000000Y-1500000D02*
X19500000Y-1500000D01*
D19*
X27000000Y-35000000D02*
X15000000Y-35000000D01*
D18*
X15000000Y-1500000D02*
X7500000Y-1500000D01*
X15000000Y-24000000D02*
X1500000Y-24000000D01*
D19*
X27000000Y-36300000D02*
X27000000Y-35000000D01*
X25000000Y-36300000D02*
X25000000Y-35000000D01*
D18*
X15000000Y-16000000D02*
X28500000Y-16000000D01*
X15000000Y-32000000D02*
X1500000Y-32000000D01*
X15000000Y-16000000D02*
X1500000Y-16000000D01*
%TD*%
M02*
