%TF.GenerationSoftware,KiCad,Pcbnew,7.0.11+dfsg-1build4*%
%TF.CreationDate,2026-08-19T13:35:23+02:00*%
%TF.ProjectId,pcb-svetla-mn98,7063622d-7376-4657-946c-612d6d6e3938,rev?*%
%TF.SameCoordinates,Original*%
%TF.FileFunction,Soldermask,Top*%
%TF.FilePolarity,Negative*%
%FSLAX46Y46*%
G04 Gerber Fmt 4.6, Leading zero omitted, Abs format (unit mm)*
G04 Created by KiCad (PCBNEW 7.0.11+dfsg-1build4) date 2026-08-19 13:35:23*
%MOMM*%
%LPD*%
G01*
G04 APERTURE LIST*
G04 Aperture macros list*
%AMRoundRect*
0 Rectangle with rounded corners*
0 $1 Rounding radius*
0 $2 $3 $4 $5 $6 $7 $8 $9 X,Y pos of 4 corners*
0 Add a 4 corners polygon primitive as box body*
4,1,4,$2,$3,$4,$5,$6,$7,$8,$9,$2,$3,0*
0 Add four circle primitives for the rounded corners*
1,1,$1+$1,$2,$3*
1,1,$1+$1,$4,$5*
1,1,$1+$1,$6,$7*
1,1,$1+$1,$8,$9*
0 Add four rect primitives between the rounded corners*
20,1,$1+$1,$2,$3,$4,$5,0*
20,1,$1+$1,$4,$5,$6,$7,0*
20,1,$1+$1,$6,$7,$8,$9,0*
20,1,$1+$1,$8,$9,$2,$3,0*%
G04 Aperture macros list end*
%ADD10RoundRect,0.250000X-0.350000X-0.625000X0.350000X-0.625000X0.350000X0.625000X-0.350000X0.625000X0*%
%ADD11O,1.200000X1.750000*%
%ADD12RoundRect,0.250000X0.625000X-0.350000X0.625000X0.350000X-0.625000X0.350000X-0.625000X-0.350000X0*%
%ADD13O,1.750000X1.200000*%
%ADD14RoundRect,0.250000X0.350000X0.625000X-0.350000X0.625000X-0.350000X-0.625000X0.350000X-0.625000X0*%
%ADD15RoundRect,0.250000X-0.625000X0.350000X-0.625000X-0.350000X0.625000X-0.350000X0.625000X0.350000X0*%
%ADD16R,1.700000X1.700000*%
%ADD17O,1.700000X1.700000*%
G04 APERTURE END LIST*
D10*
%TO.C,J1*%
X1500000Y-1500000D03*
D11*
X3500000Y-1500000D03*
%TD*%
D12*
%TO.C,J11*%
X28500000Y-16000000D03*
D13*
X28500000Y-14000000D03*
%TD*%
D14*
%TO.C,J14*%
X8000000Y-38500000D03*
D11*
X6000000Y-38500000D03*
X4000000Y-38500000D03*
X2000000Y-38500000D03*
X0Y-38500000D03*
X-2000000Y-38500000D03*
X-4000000Y-38500000D03*
X-6000000Y-38500000D03*
%TD*%
D15*
%TO.C,J8*%
X1500000Y-24000000D03*
D13*
X1500000Y-26000000D03*
%TD*%
D10*
%TO.C,J3*%
X13500000Y-1500000D03*
D11*
X15500000Y-1500000D03*
%TD*%
D15*
%TO.C,J7*%
X1500000Y-16000000D03*
D13*
X1500000Y-18000000D03*
%TD*%
D12*
%TO.C,J13*%
X28500000Y-32000000D03*
D13*
X28500000Y-30000000D03*
%TD*%
D16*
%TO.C,JP1*%
X10500000Y-18000000D03*
D17*
X10500000Y-20540000D03*
X10500000Y-23080000D03*
%TD*%
D10*
%TO.C,J5*%
X25500000Y-1500000D03*
D11*
X27500000Y-1500000D03*
%TD*%
D16*
%TO.C,JP3*%
X10500000Y-25000000D03*
D17*
X10500000Y-27540000D03*
X10500000Y-30080000D03*
%TD*%
D16*
%TO.C,JP2*%
X17000000Y-21000000D03*
D17*
X19540000Y-21000000D03*
X17000000Y-23540000D03*
X19540000Y-23540000D03*
X17000000Y-26080000D03*
X19540000Y-26080000D03*
%TD*%
D12*
%TO.C,J10*%
X28500000Y-8000000D03*
D13*
X28500000Y-6000000D03*
%TD*%
D15*
%TO.C,J9*%
X1500000Y-32000000D03*
D13*
X1500000Y-34000000D03*
%TD*%
D12*
%TO.C,J12*%
X28500000Y-24000000D03*
D13*
X28500000Y-22000000D03*
%TD*%
D15*
%TO.C,J6*%
X1500000Y-8000000D03*
D13*
X1500000Y-10000000D03*
%TD*%
D10*
%TO.C,J2*%
X7500000Y-1500000D03*
D11*
X9500000Y-1500000D03*
%TD*%
D10*
%TO.C,J4*%
X19500000Y-1500000D03*
D11*
X21500000Y-1500000D03*
%TD*%
M02*
