%TF.GenerationSoftware,KiCad,Pcbnew,7.0.11+dfsg-1build4*%
%TF.CreationDate,2026-08-19T13:35:23+02:00*%
%TF.ProjectId,pcb-svetla-mn98,7063622d-7376-4657-946c-612d6d6e3938,rev?*%
%TF.SameCoordinates,Original*%
%TF.FileFunction,Legend,Top*%
%TF.FilePolarity,Positive*%
%FSLAX46Y46*%
G04 Gerber Fmt 4.6, Leading zero omitted, Abs format (unit mm)*
G04 Created by KiCad (PCBNEW 7.0.11+dfsg-1build4) date 2026-08-19 13:35:23*
%MOMM*%
%LPD*%
G01*
G04 APERTURE LIST*
%ADD10C,0.150000*%
%ADD11C,0.120000*%
G04 APERTURE END LIST*
D10*
X8017857Y-15589164D02*
X8017857Y-16124878D01*
X8017857Y-16124878D02*
X7982142Y-16232021D01*
X7982142Y-16232021D02*
X7910714Y-16303450D01*
X7910714Y-16303450D02*
X7803571Y-16339164D01*
X7803571Y-16339164D02*
X7732142Y-16339164D01*
X8375000Y-16339164D02*
X8375000Y-15589164D01*
X8375000Y-15589164D02*
X8660714Y-15589164D01*
X8660714Y-15589164D02*
X8732143Y-15624878D01*
X8732143Y-15624878D02*
X8767857Y-15660592D01*
X8767857Y-15660592D02*
X8803571Y-15732021D01*
X8803571Y-15732021D02*
X8803571Y-15839164D01*
X8803571Y-15839164D02*
X8767857Y-15910592D01*
X8767857Y-15910592D02*
X8732143Y-15946307D01*
X8732143Y-15946307D02*
X8660714Y-15982021D01*
X8660714Y-15982021D02*
X8375000Y-15982021D01*
X9517857Y-16339164D02*
X9089286Y-16339164D01*
X9303571Y-16339164D02*
X9303571Y-15589164D01*
X9303571Y-15589164D02*
X9232143Y-15696307D01*
X9232143Y-15696307D02*
X9160714Y-15767735D01*
X9160714Y-15767735D02*
X9089286Y-15803450D01*
X9839286Y-16267735D02*
X9875000Y-16303450D01*
X9875000Y-16303450D02*
X9839286Y-16339164D01*
X9839286Y-16339164D02*
X9803572Y-16303450D01*
X9803572Y-16303450D02*
X9839286Y-16267735D01*
X9839286Y-16267735D02*
X9839286Y-16339164D01*
X9839286Y-15874878D02*
X9875000Y-15910592D01*
X9875000Y-15910592D02*
X9839286Y-15946307D01*
X9839286Y-15946307D02*
X9803572Y-15910592D01*
X9803572Y-15910592D02*
X9839286Y-15874878D01*
X9839286Y-15874878D02*
X9839286Y-15946307D01*
X10767858Y-16339164D02*
X10767858Y-15589164D01*
X10767858Y-15589164D02*
X10946429Y-15589164D01*
X10946429Y-15589164D02*
X11053572Y-15624878D01*
X11053572Y-15624878D02*
X11125001Y-15696307D01*
X11125001Y-15696307D02*
X11160715Y-15767735D01*
X11160715Y-15767735D02*
X11196429Y-15910592D01*
X11196429Y-15910592D02*
X11196429Y-16017735D01*
X11196429Y-16017735D02*
X11160715Y-16160592D01*
X11160715Y-16160592D02*
X11125001Y-16232021D01*
X11125001Y-16232021D02*
X11053572Y-16303450D01*
X11053572Y-16303450D02*
X10946429Y-16339164D01*
X10946429Y-16339164D02*
X10767858Y-16339164D01*
X11946429Y-16339164D02*
X11696429Y-15982021D01*
X11517858Y-16339164D02*
X11517858Y-15589164D01*
X11517858Y-15589164D02*
X11803572Y-15589164D01*
X11803572Y-15589164D02*
X11875001Y-15624878D01*
X11875001Y-15624878D02*
X11910715Y-15660592D01*
X11910715Y-15660592D02*
X11946429Y-15732021D01*
X11946429Y-15732021D02*
X11946429Y-15839164D01*
X11946429Y-15839164D02*
X11910715Y-15910592D01*
X11910715Y-15910592D02*
X11875001Y-15946307D01*
X11875001Y-15946307D02*
X11803572Y-15982021D01*
X11803572Y-15982021D02*
X11517858Y-15982021D01*
X12625001Y-16339164D02*
X12267858Y-16339164D01*
X12267858Y-16339164D02*
X12267858Y-15589164D01*
X12875001Y-16053450D02*
X13446430Y-16053450D01*
X13803572Y-16339164D02*
X13803572Y-15589164D01*
X13803572Y-15589164D02*
X14053572Y-16124878D01*
X14053572Y-16124878D02*
X14303572Y-15589164D01*
X14303572Y-15589164D02*
X14303572Y-16339164D01*
X14625001Y-16124878D02*
X14982144Y-16124878D01*
X14553572Y-16339164D02*
X14803572Y-15589164D01*
X14803572Y-15589164D02*
X15053572Y-16339164D01*
X15732143Y-16339164D02*
X15482143Y-15982021D01*
X15303572Y-16339164D02*
X15303572Y-15589164D01*
X15303572Y-15589164D02*
X15589286Y-15589164D01*
X15589286Y-15589164D02*
X15660715Y-15624878D01*
X15660715Y-15624878D02*
X15696429Y-15660592D01*
X15696429Y-15660592D02*
X15732143Y-15732021D01*
X15732143Y-15732021D02*
X15732143Y-15839164D01*
X15732143Y-15839164D02*
X15696429Y-15910592D01*
X15696429Y-15910592D02*
X15660715Y-15946307D01*
X15660715Y-15946307D02*
X15589286Y-15982021D01*
X15589286Y-15982021D02*
X15303572Y-15982021D01*
X16053572Y-16339164D02*
X16053572Y-15589164D01*
X16482143Y-16339164D02*
X16160715Y-15910592D01*
X16482143Y-15589164D02*
X16053572Y-16017735D01*
X16803572Y-15946307D02*
X17053572Y-15946307D01*
X17160715Y-16339164D02*
X16803572Y-16339164D01*
X16803572Y-16339164D02*
X16803572Y-15589164D01*
X16803572Y-15589164D02*
X17160715Y-15589164D01*
X17910714Y-16339164D02*
X17660714Y-15982021D01*
X17482143Y-16339164D02*
X17482143Y-15589164D01*
X17482143Y-15589164D02*
X17767857Y-15589164D01*
X17767857Y-15589164D02*
X17839286Y-15624878D01*
X17839286Y-15624878D02*
X17875000Y-15660592D01*
X17875000Y-15660592D02*
X17910714Y-15732021D01*
X17910714Y-15732021D02*
X17910714Y-15839164D01*
X17910714Y-15839164D02*
X17875000Y-15910592D01*
X17875000Y-15910592D02*
X17839286Y-15946307D01*
X17839286Y-15946307D02*
X17767857Y-15982021D01*
X17767857Y-15982021D02*
X17482143Y-15982021D01*
X18232143Y-16053450D02*
X18803572Y-16053450D01*
X19410714Y-15946307D02*
X19160714Y-15946307D01*
X19160714Y-16339164D02*
X19160714Y-15589164D01*
X19160714Y-15589164D02*
X19517857Y-15589164D01*
X20160714Y-16339164D02*
X19803571Y-16339164D01*
X19803571Y-16339164D02*
X19803571Y-15589164D01*
X20375000Y-16124878D02*
X20732143Y-16124878D01*
X20303571Y-16339164D02*
X20553571Y-15589164D01*
X20553571Y-15589164D02*
X20803571Y-16339164D01*
X21017857Y-16303450D02*
X21125000Y-16339164D01*
X21125000Y-16339164D02*
X21303571Y-16339164D01*
X21303571Y-16339164D02*
X21375000Y-16303450D01*
X21375000Y-16303450D02*
X21410714Y-16267735D01*
X21410714Y-16267735D02*
X21446428Y-16196307D01*
X21446428Y-16196307D02*
X21446428Y-16124878D01*
X21446428Y-16124878D02*
X21410714Y-16053450D01*
X21410714Y-16053450D02*
X21375000Y-16017735D01*
X21375000Y-16017735D02*
X21303571Y-15982021D01*
X21303571Y-15982021D02*
X21160714Y-15946307D01*
X21160714Y-15946307D02*
X21089285Y-15910592D01*
X21089285Y-15910592D02*
X21053571Y-15874878D01*
X21053571Y-15874878D02*
X21017857Y-15803450D01*
X21017857Y-15803450D02*
X21017857Y-15732021D01*
X21017857Y-15732021D02*
X21053571Y-15660592D01*
X21053571Y-15660592D02*
X21089285Y-15624878D01*
X21089285Y-15624878D02*
X21160714Y-15589164D01*
X21160714Y-15589164D02*
X21339285Y-15589164D01*
X21339285Y-15589164D02*
X21446428Y-15624878D01*
X21767857Y-16339164D02*
X21767857Y-15589164D01*
X21767857Y-15946307D02*
X22196428Y-15946307D01*
X22196428Y-16339164D02*
X22196428Y-15589164D01*
X3107142Y-14339164D02*
X3107142Y-13589164D01*
X3107142Y-13589164D02*
X3392856Y-13589164D01*
X3392856Y-13589164D02*
X3464285Y-13624878D01*
X3464285Y-13624878D02*
X3499999Y-13660592D01*
X3499999Y-13660592D02*
X3535713Y-13732021D01*
X3535713Y-13732021D02*
X3535713Y-13839164D01*
X3535713Y-13839164D02*
X3499999Y-13910592D01*
X3499999Y-13910592D02*
X3464285Y-13946307D01*
X3464285Y-13946307D02*
X3392856Y-13982021D01*
X3392856Y-13982021D02*
X3107142Y-13982021D01*
X3857142Y-14339164D02*
X3857142Y-13589164D01*
X4214285Y-14339164D02*
X4214285Y-13589164D01*
X4214285Y-13589164D02*
X4642856Y-14339164D01*
X4642856Y-14339164D02*
X4642856Y-13589164D01*
X5964285Y-14339164D02*
X5535714Y-14339164D01*
X5749999Y-14339164D02*
X5749999Y-13589164D01*
X5749999Y-13589164D02*
X5678571Y-13696307D01*
X5678571Y-13696307D02*
X5607142Y-13767735D01*
X5607142Y-13767735D02*
X5535714Y-13803450D01*
X6857143Y-13946307D02*
X7428572Y-13946307D01*
X7428572Y-14160592D02*
X6857143Y-14160592D01*
X8785714Y-14267735D02*
X8750000Y-14303450D01*
X8750000Y-14303450D02*
X8642857Y-14339164D01*
X8642857Y-14339164D02*
X8571429Y-14339164D01*
X8571429Y-14339164D02*
X8464286Y-14303450D01*
X8464286Y-14303450D02*
X8392857Y-14232021D01*
X8392857Y-14232021D02*
X8357143Y-14160592D01*
X8357143Y-14160592D02*
X8321429Y-14017735D01*
X8321429Y-14017735D02*
X8321429Y-13910592D01*
X8321429Y-13910592D02*
X8357143Y-13767735D01*
X8357143Y-13767735D02*
X8392857Y-13696307D01*
X8392857Y-13696307D02*
X8464286Y-13624878D01*
X8464286Y-13624878D02*
X8571429Y-13589164D01*
X8571429Y-13589164D02*
X8642857Y-13589164D01*
X8642857Y-13589164D02*
X8750000Y-13624878D01*
X8750000Y-13624878D02*
X8785714Y-13660592D01*
X9250000Y-13589164D02*
X9392857Y-13589164D01*
X9392857Y-13589164D02*
X9464286Y-13624878D01*
X9464286Y-13624878D02*
X9535714Y-13696307D01*
X9535714Y-13696307D02*
X9571429Y-13839164D01*
X9571429Y-13839164D02*
X9571429Y-14089164D01*
X9571429Y-14089164D02*
X9535714Y-14232021D01*
X9535714Y-14232021D02*
X9464286Y-14303450D01*
X9464286Y-14303450D02*
X9392857Y-14339164D01*
X9392857Y-14339164D02*
X9250000Y-14339164D01*
X9250000Y-14339164D02*
X9178572Y-14303450D01*
X9178572Y-14303450D02*
X9107143Y-14232021D01*
X9107143Y-14232021D02*
X9071429Y-14089164D01*
X9071429Y-14089164D02*
X9071429Y-13839164D01*
X9071429Y-13839164D02*
X9107143Y-13696307D01*
X9107143Y-13696307D02*
X9178572Y-13624878D01*
X9178572Y-13624878D02*
X9250000Y-13589164D01*
X9892857Y-14339164D02*
X9892857Y-13589164D01*
X9892857Y-13589164D02*
X10142857Y-14124878D01*
X10142857Y-14124878D02*
X10392857Y-13589164D01*
X10392857Y-13589164D02*
X10392857Y-14339164D01*
X10750000Y-14339164D02*
X10750000Y-13589164D01*
X10750000Y-13589164D02*
X11000000Y-14124878D01*
X11000000Y-14124878D02*
X11250000Y-13589164D01*
X11250000Y-13589164D02*
X11250000Y-14339164D01*
X11750000Y-13589164D02*
X11892857Y-13589164D01*
X11892857Y-13589164D02*
X11964286Y-13624878D01*
X11964286Y-13624878D02*
X12035714Y-13696307D01*
X12035714Y-13696307D02*
X12071429Y-13839164D01*
X12071429Y-13839164D02*
X12071429Y-14089164D01*
X12071429Y-14089164D02*
X12035714Y-14232021D01*
X12035714Y-14232021D02*
X11964286Y-14303450D01*
X11964286Y-14303450D02*
X11892857Y-14339164D01*
X11892857Y-14339164D02*
X11750000Y-14339164D01*
X11750000Y-14339164D02*
X11678572Y-14303450D01*
X11678572Y-14303450D02*
X11607143Y-14232021D01*
X11607143Y-14232021D02*
X11571429Y-14089164D01*
X11571429Y-14089164D02*
X11571429Y-13839164D01*
X11571429Y-13839164D02*
X11607143Y-13696307D01*
X11607143Y-13696307D02*
X11678572Y-13624878D01*
X11678572Y-13624878D02*
X11750000Y-13589164D01*
X12392857Y-14339164D02*
X12392857Y-13589164D01*
X12392857Y-13589164D02*
X12821428Y-14339164D01*
X12821428Y-14339164D02*
X12821428Y-13589164D01*
X13178571Y-14053450D02*
X13750000Y-14053450D01*
X13464285Y-14339164D02*
X13464285Y-13767735D01*
X15142857Y-13589164D02*
X15392857Y-14339164D01*
X15392857Y-14339164D02*
X15642857Y-13589164D01*
X15892857Y-13946307D02*
X16142857Y-13946307D01*
X16250000Y-14339164D02*
X15892857Y-14339164D01*
X15892857Y-14339164D02*
X15892857Y-13589164D01*
X15892857Y-13589164D02*
X16250000Y-13589164D01*
X16999999Y-14339164D02*
X16749999Y-13982021D01*
X16571428Y-14339164D02*
X16571428Y-13589164D01*
X16571428Y-13589164D02*
X16857142Y-13589164D01*
X16857142Y-13589164D02*
X16928571Y-13624878D01*
X16928571Y-13624878D02*
X16964285Y-13660592D01*
X16964285Y-13660592D02*
X16999999Y-13732021D01*
X16999999Y-13732021D02*
X16999999Y-13839164D01*
X16999999Y-13839164D02*
X16964285Y-13910592D01*
X16964285Y-13910592D02*
X16928571Y-13946307D01*
X16928571Y-13946307D02*
X16857142Y-13982021D01*
X16857142Y-13982021D02*
X16571428Y-13982021D01*
X17321428Y-14339164D02*
X17321428Y-13589164D01*
X17928571Y-13946307D02*
X17678571Y-13946307D01*
X17678571Y-14339164D02*
X17678571Y-13589164D01*
X17678571Y-13589164D02*
X18035714Y-13589164D01*
X18464285Y-13982021D02*
X18464285Y-14339164D01*
X18214285Y-13589164D02*
X18464285Y-13982021D01*
X18464285Y-13982021D02*
X18714285Y-13589164D01*
X19892857Y-14339164D02*
X19535714Y-14339164D01*
X19535714Y-14339164D02*
X19535714Y-13589164D01*
X20142857Y-13946307D02*
X20392857Y-13946307D01*
X20500000Y-14339164D02*
X20142857Y-14339164D01*
X20142857Y-14339164D02*
X20142857Y-13589164D01*
X20142857Y-13589164D02*
X20500000Y-13589164D01*
X20821428Y-14339164D02*
X20821428Y-13589164D01*
X20821428Y-13589164D02*
X20999999Y-13589164D01*
X20999999Y-13589164D02*
X21107142Y-13624878D01*
X21107142Y-13624878D02*
X21178571Y-13696307D01*
X21178571Y-13696307D02*
X21214285Y-13767735D01*
X21214285Y-13767735D02*
X21249999Y-13910592D01*
X21249999Y-13910592D02*
X21249999Y-14017735D01*
X21249999Y-14017735D02*
X21214285Y-14160592D01*
X21214285Y-14160592D02*
X21178571Y-14232021D01*
X21178571Y-14232021D02*
X21107142Y-14303450D01*
X21107142Y-14303450D02*
X20999999Y-14339164D01*
X20999999Y-14339164D02*
X20821428Y-14339164D01*
X22142857Y-14339164D02*
X22142857Y-13589164D01*
X22142857Y-13589164D02*
X22428571Y-13589164D01*
X22428571Y-13589164D02*
X22500000Y-13624878D01*
X22500000Y-13624878D02*
X22535714Y-13660592D01*
X22535714Y-13660592D02*
X22571428Y-13732021D01*
X22571428Y-13732021D02*
X22571428Y-13839164D01*
X22571428Y-13839164D02*
X22535714Y-13910592D01*
X22535714Y-13910592D02*
X22500000Y-13946307D01*
X22500000Y-13946307D02*
X22428571Y-13982021D01*
X22428571Y-13982021D02*
X22142857Y-13982021D01*
X23035714Y-13589164D02*
X23178571Y-13589164D01*
X23178571Y-13589164D02*
X23250000Y-13624878D01*
X23250000Y-13624878D02*
X23321428Y-13696307D01*
X23321428Y-13696307D02*
X23357143Y-13839164D01*
X23357143Y-13839164D02*
X23357143Y-14089164D01*
X23357143Y-14089164D02*
X23321428Y-14232021D01*
X23321428Y-14232021D02*
X23250000Y-14303450D01*
X23250000Y-14303450D02*
X23178571Y-14339164D01*
X23178571Y-14339164D02*
X23035714Y-14339164D01*
X23035714Y-14339164D02*
X22964286Y-14303450D01*
X22964286Y-14303450D02*
X22892857Y-14232021D01*
X22892857Y-14232021D02*
X22857143Y-14089164D01*
X22857143Y-14089164D02*
X22857143Y-13839164D01*
X22857143Y-13839164D02*
X22892857Y-13696307D01*
X22892857Y-13696307D02*
X22964286Y-13624878D01*
X22964286Y-13624878D02*
X23035714Y-13589164D01*
X24035714Y-14339164D02*
X23678571Y-14339164D01*
X23678571Y-14339164D02*
X23678571Y-13589164D01*
X24250000Y-14124878D02*
X24607143Y-14124878D01*
X24178571Y-14339164D02*
X24428571Y-13589164D01*
X24428571Y-13589164D02*
X24678571Y-14339164D01*
X25357142Y-14339164D02*
X25107142Y-13982021D01*
X24928571Y-14339164D02*
X24928571Y-13589164D01*
X24928571Y-13589164D02*
X25214285Y-13589164D01*
X25214285Y-13589164D02*
X25285714Y-13624878D01*
X25285714Y-13624878D02*
X25321428Y-13660592D01*
X25321428Y-13660592D02*
X25357142Y-13732021D01*
X25357142Y-13732021D02*
X25357142Y-13839164D01*
X25357142Y-13839164D02*
X25321428Y-13910592D01*
X25321428Y-13910592D02*
X25285714Y-13946307D01*
X25285714Y-13946307D02*
X25214285Y-13982021D01*
X25214285Y-13982021D02*
X24928571Y-13982021D01*
X25678571Y-14339164D02*
X25678571Y-13589164D01*
X25928571Y-13589164D02*
X26357143Y-13589164D01*
X26142857Y-14339164D02*
X26142857Y-13589164D01*
X26750000Y-13982021D02*
X26750000Y-14339164D01*
X26500000Y-13589164D02*
X26750000Y-13982021D01*
X26750000Y-13982021D02*
X27000000Y-13589164D01*
X4392856Y-12501080D02*
X4392856Y-11401080D01*
X4392856Y-11401080D02*
X4759523Y-12186795D01*
X4759523Y-12186795D02*
X5126190Y-11401080D01*
X5126190Y-11401080D02*
X5126190Y-12501080D01*
X5649999Y-12501080D02*
X5649999Y-11401080D01*
X5649999Y-11401080D02*
X6278571Y-12501080D01*
X6278571Y-12501080D02*
X6278571Y-11401080D01*
X6854761Y-12501080D02*
X7064285Y-12501080D01*
X7064285Y-12501080D02*
X7169047Y-12448700D01*
X7169047Y-12448700D02*
X7221428Y-12396319D01*
X7221428Y-12396319D02*
X7326190Y-12239176D01*
X7326190Y-12239176D02*
X7378571Y-12029652D01*
X7378571Y-12029652D02*
X7378571Y-11610604D01*
X7378571Y-11610604D02*
X7326190Y-11505842D01*
X7326190Y-11505842D02*
X7273809Y-11453461D01*
X7273809Y-11453461D02*
X7169047Y-11401080D01*
X7169047Y-11401080D02*
X6959523Y-11401080D01*
X6959523Y-11401080D02*
X6854761Y-11453461D01*
X6854761Y-11453461D02*
X6802380Y-11505842D01*
X6802380Y-11505842D02*
X6749999Y-11610604D01*
X6749999Y-11610604D02*
X6749999Y-11872509D01*
X6749999Y-11872509D02*
X6802380Y-11977271D01*
X6802380Y-11977271D02*
X6854761Y-12029652D01*
X6854761Y-12029652D02*
X6959523Y-12082033D01*
X6959523Y-12082033D02*
X7169047Y-12082033D01*
X7169047Y-12082033D02*
X7273809Y-12029652D01*
X7273809Y-12029652D02*
X7326190Y-11977271D01*
X7326190Y-11977271D02*
X7378571Y-11872509D01*
X8007142Y-11872509D02*
X7902380Y-11820128D01*
X7902380Y-11820128D02*
X7849999Y-11767747D01*
X7849999Y-11767747D02*
X7797618Y-11662985D01*
X7797618Y-11662985D02*
X7797618Y-11610604D01*
X7797618Y-11610604D02*
X7849999Y-11505842D01*
X7849999Y-11505842D02*
X7902380Y-11453461D01*
X7902380Y-11453461D02*
X8007142Y-11401080D01*
X8007142Y-11401080D02*
X8216666Y-11401080D01*
X8216666Y-11401080D02*
X8321428Y-11453461D01*
X8321428Y-11453461D02*
X8373809Y-11505842D01*
X8373809Y-11505842D02*
X8426190Y-11610604D01*
X8426190Y-11610604D02*
X8426190Y-11662985D01*
X8426190Y-11662985D02*
X8373809Y-11767747D01*
X8373809Y-11767747D02*
X8321428Y-11820128D01*
X8321428Y-11820128D02*
X8216666Y-11872509D01*
X8216666Y-11872509D02*
X8007142Y-11872509D01*
X8007142Y-11872509D02*
X7902380Y-11924890D01*
X7902380Y-11924890D02*
X7849999Y-11977271D01*
X7849999Y-11977271D02*
X7797618Y-12082033D01*
X7797618Y-12082033D02*
X7797618Y-12291557D01*
X7797618Y-12291557D02*
X7849999Y-12396319D01*
X7849999Y-12396319D02*
X7902380Y-12448700D01*
X7902380Y-12448700D02*
X8007142Y-12501080D01*
X8007142Y-12501080D02*
X8216666Y-12501080D01*
X8216666Y-12501080D02*
X8321428Y-12448700D01*
X8321428Y-12448700D02*
X8373809Y-12396319D01*
X8373809Y-12396319D02*
X8426190Y-12291557D01*
X8426190Y-12291557D02*
X8426190Y-12082033D01*
X8426190Y-12082033D02*
X8373809Y-11977271D01*
X8373809Y-11977271D02*
X8321428Y-11924890D01*
X8321428Y-11924890D02*
X8216666Y-11872509D01*
X10259523Y-12501080D02*
X9735713Y-12501080D01*
X9735713Y-12501080D02*
X9735713Y-11401080D01*
X10626189Y-12501080D02*
X10626189Y-11401080D01*
X11726190Y-11453461D02*
X11621428Y-11401080D01*
X11621428Y-11401080D02*
X11464285Y-11401080D01*
X11464285Y-11401080D02*
X11307142Y-11453461D01*
X11307142Y-11453461D02*
X11202380Y-11558223D01*
X11202380Y-11558223D02*
X11149999Y-11662985D01*
X11149999Y-11662985D02*
X11097618Y-11872509D01*
X11097618Y-11872509D02*
X11097618Y-12029652D01*
X11097618Y-12029652D02*
X11149999Y-12239176D01*
X11149999Y-12239176D02*
X11202380Y-12343938D01*
X11202380Y-12343938D02*
X11307142Y-12448700D01*
X11307142Y-12448700D02*
X11464285Y-12501080D01*
X11464285Y-12501080D02*
X11569047Y-12501080D01*
X11569047Y-12501080D02*
X11726190Y-12448700D01*
X11726190Y-12448700D02*
X11778571Y-12396319D01*
X11778571Y-12396319D02*
X11778571Y-12029652D01*
X11778571Y-12029652D02*
X11569047Y-12029652D01*
X12249999Y-12501080D02*
X12249999Y-11401080D01*
X12249999Y-11924890D02*
X12878571Y-11924890D01*
X12878571Y-12501080D02*
X12878571Y-11401080D01*
X13245237Y-11401080D02*
X13873809Y-11401080D01*
X13559523Y-12501080D02*
X13559523Y-11401080D01*
X15078570Y-12501080D02*
X15078570Y-11401080D01*
X15078570Y-11401080D02*
X15340475Y-11401080D01*
X15340475Y-11401080D02*
X15497618Y-11453461D01*
X15497618Y-11453461D02*
X15602380Y-11558223D01*
X15602380Y-11558223D02*
X15654761Y-11662985D01*
X15654761Y-11662985D02*
X15707142Y-11872509D01*
X15707142Y-11872509D02*
X15707142Y-12029652D01*
X15707142Y-12029652D02*
X15654761Y-12239176D01*
X15654761Y-12239176D02*
X15602380Y-12343938D01*
X15602380Y-12343938D02*
X15497618Y-12448700D01*
X15497618Y-12448700D02*
X15340475Y-12501080D01*
X15340475Y-12501080D02*
X15078570Y-12501080D01*
X16178570Y-12501080D02*
X16178570Y-11401080D01*
X16649999Y-12448700D02*
X16807142Y-12501080D01*
X16807142Y-12501080D02*
X17069047Y-12501080D01*
X17069047Y-12501080D02*
X17173809Y-12448700D01*
X17173809Y-12448700D02*
X17226190Y-12396319D01*
X17226190Y-12396319D02*
X17278571Y-12291557D01*
X17278571Y-12291557D02*
X17278571Y-12186795D01*
X17278571Y-12186795D02*
X17226190Y-12082033D01*
X17226190Y-12082033D02*
X17173809Y-12029652D01*
X17173809Y-12029652D02*
X17069047Y-11977271D01*
X17069047Y-11977271D02*
X16859523Y-11924890D01*
X16859523Y-11924890D02*
X16754761Y-11872509D01*
X16754761Y-11872509D02*
X16702380Y-11820128D01*
X16702380Y-11820128D02*
X16649999Y-11715366D01*
X16649999Y-11715366D02*
X16649999Y-11610604D01*
X16649999Y-11610604D02*
X16702380Y-11505842D01*
X16702380Y-11505842D02*
X16754761Y-11453461D01*
X16754761Y-11453461D02*
X16859523Y-11401080D01*
X16859523Y-11401080D02*
X17121428Y-11401080D01*
X17121428Y-11401080D02*
X17278571Y-11453461D01*
X17592856Y-11401080D02*
X18221428Y-11401080D01*
X17907142Y-12501080D02*
X17907142Y-11401080D01*
X19216666Y-12501080D02*
X18849999Y-11977271D01*
X18588094Y-12501080D02*
X18588094Y-11401080D01*
X18588094Y-11401080D02*
X19007142Y-11401080D01*
X19007142Y-11401080D02*
X19111904Y-11453461D01*
X19111904Y-11453461D02*
X19164285Y-11505842D01*
X19164285Y-11505842D02*
X19216666Y-11610604D01*
X19216666Y-11610604D02*
X19216666Y-11767747D01*
X19216666Y-11767747D02*
X19164285Y-11872509D01*
X19164285Y-11872509D02*
X19111904Y-11924890D01*
X19111904Y-11924890D02*
X19007142Y-11977271D01*
X19007142Y-11977271D02*
X18588094Y-11977271D01*
X19688094Y-12501080D02*
X19688094Y-11401080D01*
X20578571Y-11924890D02*
X20735714Y-11977271D01*
X20735714Y-11977271D02*
X20788095Y-12029652D01*
X20788095Y-12029652D02*
X20840476Y-12134414D01*
X20840476Y-12134414D02*
X20840476Y-12291557D01*
X20840476Y-12291557D02*
X20788095Y-12396319D01*
X20788095Y-12396319D02*
X20735714Y-12448700D01*
X20735714Y-12448700D02*
X20630952Y-12501080D01*
X20630952Y-12501080D02*
X20211904Y-12501080D01*
X20211904Y-12501080D02*
X20211904Y-11401080D01*
X20211904Y-11401080D02*
X20578571Y-11401080D01*
X20578571Y-11401080D02*
X20683333Y-11453461D01*
X20683333Y-11453461D02*
X20735714Y-11505842D01*
X20735714Y-11505842D02*
X20788095Y-11610604D01*
X20788095Y-11610604D02*
X20788095Y-11715366D01*
X20788095Y-11715366D02*
X20735714Y-11820128D01*
X20735714Y-11820128D02*
X20683333Y-11872509D01*
X20683333Y-11872509D02*
X20578571Y-11924890D01*
X20578571Y-11924890D02*
X20211904Y-11924890D01*
X21311904Y-11401080D02*
X21311904Y-12291557D01*
X21311904Y-12291557D02*
X21364285Y-12396319D01*
X21364285Y-12396319D02*
X21416666Y-12448700D01*
X21416666Y-12448700D02*
X21521428Y-12501080D01*
X21521428Y-12501080D02*
X21730952Y-12501080D01*
X21730952Y-12501080D02*
X21835714Y-12448700D01*
X21835714Y-12448700D02*
X21888095Y-12396319D01*
X21888095Y-12396319D02*
X21940476Y-12291557D01*
X21940476Y-12291557D02*
X21940476Y-11401080D01*
X22307142Y-11401080D02*
X22935714Y-11401080D01*
X22621428Y-12501080D02*
X22621428Y-11401080D01*
X23302380Y-12501080D02*
X23302380Y-11401080D01*
X24035714Y-11401080D02*
X24245238Y-11401080D01*
X24245238Y-11401080D02*
X24350000Y-11453461D01*
X24350000Y-11453461D02*
X24454762Y-11558223D01*
X24454762Y-11558223D02*
X24507143Y-11767747D01*
X24507143Y-11767747D02*
X24507143Y-12134414D01*
X24507143Y-12134414D02*
X24454762Y-12343938D01*
X24454762Y-12343938D02*
X24350000Y-12448700D01*
X24350000Y-12448700D02*
X24245238Y-12501080D01*
X24245238Y-12501080D02*
X24035714Y-12501080D01*
X24035714Y-12501080D02*
X23930952Y-12448700D01*
X23930952Y-12448700D02*
X23826190Y-12343938D01*
X23826190Y-12343938D02*
X23773809Y-12134414D01*
X23773809Y-12134414D02*
X23773809Y-11767747D01*
X23773809Y-11767747D02*
X23826190Y-11558223D01*
X23826190Y-11558223D02*
X23930952Y-11453461D01*
X23930952Y-11453461D02*
X24035714Y-11401080D01*
X24978571Y-12501080D02*
X24978571Y-11401080D01*
X24978571Y-11401080D02*
X25607143Y-12501080D01*
X25607143Y-12501080D02*
X25607143Y-11401080D01*
X1907141Y-36992902D02*
X1907141Y-36342902D01*
X1907141Y-36342902D02*
X2154760Y-36342902D01*
X2154760Y-36342902D02*
X2216665Y-36373854D01*
X2216665Y-36373854D02*
X2247618Y-36404807D01*
X2247618Y-36404807D02*
X2278570Y-36466711D01*
X2278570Y-36466711D02*
X2278570Y-36559569D01*
X2278570Y-36559569D02*
X2247618Y-36621473D01*
X2247618Y-36621473D02*
X2216665Y-36652426D01*
X2216665Y-36652426D02*
X2154760Y-36683378D01*
X2154760Y-36683378D02*
X1907141Y-36683378D01*
X2835713Y-36342902D02*
X2711903Y-36342902D01*
X2711903Y-36342902D02*
X2649999Y-36373854D01*
X2649999Y-36373854D02*
X2619046Y-36404807D01*
X2619046Y-36404807D02*
X2557141Y-36497664D01*
X2557141Y-36497664D02*
X2526189Y-36621473D01*
X2526189Y-36621473D02*
X2526189Y-36869092D01*
X2526189Y-36869092D02*
X2557141Y-36930997D01*
X2557141Y-36930997D02*
X2588094Y-36961950D01*
X2588094Y-36961950D02*
X2649999Y-36992902D01*
X2649999Y-36992902D02*
X2773808Y-36992902D01*
X2773808Y-36992902D02*
X2835713Y-36961950D01*
X2835713Y-36961950D02*
X2866665Y-36930997D01*
X2866665Y-36930997D02*
X2897618Y-36869092D01*
X2897618Y-36869092D02*
X2897618Y-36714330D01*
X2897618Y-36714330D02*
X2866665Y-36652426D01*
X2866665Y-36652426D02*
X2835713Y-36621473D01*
X2835713Y-36621473D02*
X2773808Y-36590521D01*
X2773808Y-36590521D02*
X2649999Y-36590521D01*
X2649999Y-36590521D02*
X2588094Y-36621473D01*
X2588094Y-36621473D02*
X2557141Y-36652426D01*
X2557141Y-36652426D02*
X2526189Y-36714330D01*
X3176189Y-36992902D02*
X3176189Y-36342902D01*
X3176189Y-36342902D02*
X3330951Y-36342902D01*
X3330951Y-36342902D02*
X3423808Y-36373854D01*
X3423808Y-36373854D02*
X3485713Y-36435759D01*
X3485713Y-36435759D02*
X3516666Y-36497664D01*
X3516666Y-36497664D02*
X3547618Y-36621473D01*
X3547618Y-36621473D02*
X3547618Y-36714330D01*
X3547618Y-36714330D02*
X3516666Y-36838140D01*
X3516666Y-36838140D02*
X3485713Y-36900045D01*
X3485713Y-36900045D02*
X3423808Y-36961950D01*
X3423808Y-36961950D02*
X3330951Y-36992902D01*
X3330951Y-36992902D02*
X3176189Y-36992902D01*
X4197618Y-36930997D02*
X4166666Y-36961950D01*
X4166666Y-36961950D02*
X4073808Y-36992902D01*
X4073808Y-36992902D02*
X4011904Y-36992902D01*
X4011904Y-36992902D02*
X3919047Y-36961950D01*
X3919047Y-36961950D02*
X3857142Y-36900045D01*
X3857142Y-36900045D02*
X3826189Y-36838140D01*
X3826189Y-36838140D02*
X3795237Y-36714330D01*
X3795237Y-36714330D02*
X3795237Y-36621473D01*
X3795237Y-36621473D02*
X3826189Y-36497664D01*
X3826189Y-36497664D02*
X3857142Y-36435759D01*
X3857142Y-36435759D02*
X3919047Y-36373854D01*
X3919047Y-36373854D02*
X4011904Y-36342902D01*
X4011904Y-36342902D02*
X4073808Y-36342902D01*
X4073808Y-36342902D02*
X4166666Y-36373854D01*
X4166666Y-36373854D02*
X4197618Y-36404807D01*
X4476189Y-36930997D02*
X4507142Y-36961950D01*
X4507142Y-36961950D02*
X4476189Y-36992902D01*
X4476189Y-36992902D02*
X4445237Y-36961950D01*
X4445237Y-36961950D02*
X4476189Y-36930997D01*
X4476189Y-36930997D02*
X4476189Y-36992902D01*
X4476189Y-36590521D02*
X4507142Y-36621473D01*
X4507142Y-36621473D02*
X4476189Y-36652426D01*
X4476189Y-36652426D02*
X4445237Y-36621473D01*
X4445237Y-36621473D02*
X4476189Y-36590521D01*
X4476189Y-36590521D02*
X4476189Y-36652426D01*
X5621428Y-36992902D02*
X5249999Y-36992902D01*
X5435713Y-36992902D02*
X5435713Y-36342902D01*
X5435713Y-36342902D02*
X5373809Y-36435759D01*
X5373809Y-36435759D02*
X5311904Y-36497664D01*
X5311904Y-36497664D02*
X5249999Y-36528616D01*
X6364285Y-36311950D02*
X5807142Y-37147664D01*
X6549999Y-36404807D02*
X6580951Y-36373854D01*
X6580951Y-36373854D02*
X6642856Y-36342902D01*
X6642856Y-36342902D02*
X6797618Y-36342902D01*
X6797618Y-36342902D02*
X6859523Y-36373854D01*
X6859523Y-36373854D02*
X6890475Y-36404807D01*
X6890475Y-36404807D02*
X6921428Y-36466711D01*
X6921428Y-36466711D02*
X6921428Y-36528616D01*
X6921428Y-36528616D02*
X6890475Y-36621473D01*
X6890475Y-36621473D02*
X6519047Y-36992902D01*
X6519047Y-36992902D02*
X6921428Y-36992902D01*
X7695237Y-36745283D02*
X8190476Y-36745283D01*
X7942856Y-36992902D02*
X7942856Y-36497664D01*
X8530952Y-36961950D02*
X8530952Y-36992902D01*
X8530952Y-36992902D02*
X8499999Y-37054807D01*
X8499999Y-37054807D02*
X8469047Y-37085759D01*
X9242857Y-36342902D02*
X9645238Y-36342902D01*
X9645238Y-36342902D02*
X9428571Y-36590521D01*
X9428571Y-36590521D02*
X9521428Y-36590521D01*
X9521428Y-36590521D02*
X9583333Y-36621473D01*
X9583333Y-36621473D02*
X9614285Y-36652426D01*
X9614285Y-36652426D02*
X9645238Y-36714330D01*
X9645238Y-36714330D02*
X9645238Y-36869092D01*
X9645238Y-36869092D02*
X9614285Y-36930997D01*
X9614285Y-36930997D02*
X9583333Y-36961950D01*
X9583333Y-36961950D02*
X9521428Y-36992902D01*
X9521428Y-36992902D02*
X9335714Y-36992902D01*
X9335714Y-36992902D02*
X9273809Y-36961950D01*
X9273809Y-36961950D02*
X9242857Y-36930997D01*
X10728571Y-36992902D02*
X10419047Y-36992902D01*
X10419047Y-36992902D02*
X10419047Y-36342902D01*
X10976190Y-36961950D02*
X10976190Y-36992902D01*
X10976190Y-36992902D02*
X10945237Y-37054807D01*
X10945237Y-37054807D02*
X10914285Y-37085759D01*
X12028571Y-36559569D02*
X12028571Y-36992902D01*
X11873809Y-36311950D02*
X11719047Y-36776235D01*
X11719047Y-36776235D02*
X12121428Y-36776235D01*
X13235714Y-36992902D02*
X13019047Y-36683378D01*
X12864285Y-36992902D02*
X12864285Y-36342902D01*
X12864285Y-36342902D02*
X13111904Y-36342902D01*
X13111904Y-36342902D02*
X13173809Y-36373854D01*
X13173809Y-36373854D02*
X13204762Y-36404807D01*
X13204762Y-36404807D02*
X13235714Y-36466711D01*
X13235714Y-36466711D02*
X13235714Y-36559569D01*
X13235714Y-36559569D02*
X13204762Y-36621473D01*
X13204762Y-36621473D02*
X13173809Y-36652426D01*
X13173809Y-36652426D02*
X13111904Y-36683378D01*
X13111904Y-36683378D02*
X12864285Y-36683378D01*
X13545238Y-36961950D02*
X13545238Y-36992902D01*
X13545238Y-36992902D02*
X13514285Y-37054807D01*
X13514285Y-37054807D02*
X13483333Y-37085759D01*
X14628571Y-36342902D02*
X14319047Y-36342902D01*
X14319047Y-36342902D02*
X14288095Y-36652426D01*
X14288095Y-36652426D02*
X14319047Y-36621473D01*
X14319047Y-36621473D02*
X14380952Y-36590521D01*
X14380952Y-36590521D02*
X14535714Y-36590521D01*
X14535714Y-36590521D02*
X14597619Y-36621473D01*
X14597619Y-36621473D02*
X14628571Y-36652426D01*
X14628571Y-36652426D02*
X14659524Y-36714330D01*
X14659524Y-36714330D02*
X14659524Y-36869092D01*
X14659524Y-36869092D02*
X14628571Y-36930997D01*
X14628571Y-36930997D02*
X14597619Y-36961950D01*
X14597619Y-36961950D02*
X14535714Y-36992902D01*
X14535714Y-36992902D02*
X14380952Y-36992902D01*
X14380952Y-36992902D02*
X14319047Y-36961950D01*
X14319047Y-36961950D02*
X14288095Y-36930997D01*
X15650000Y-36652426D02*
X15742857Y-36683378D01*
X15742857Y-36683378D02*
X15773810Y-36714330D01*
X15773810Y-36714330D02*
X15804762Y-36776235D01*
X15804762Y-36776235D02*
X15804762Y-36869092D01*
X15804762Y-36869092D02*
X15773810Y-36930997D01*
X15773810Y-36930997D02*
X15742857Y-36961950D01*
X15742857Y-36961950D02*
X15680952Y-36992902D01*
X15680952Y-36992902D02*
X15433333Y-36992902D01*
X15433333Y-36992902D02*
X15433333Y-36342902D01*
X15433333Y-36342902D02*
X15650000Y-36342902D01*
X15650000Y-36342902D02*
X15711905Y-36373854D01*
X15711905Y-36373854D02*
X15742857Y-36404807D01*
X15742857Y-36404807D02*
X15773810Y-36466711D01*
X15773810Y-36466711D02*
X15773810Y-36528616D01*
X15773810Y-36528616D02*
X15742857Y-36590521D01*
X15742857Y-36590521D02*
X15711905Y-36621473D01*
X15711905Y-36621473D02*
X15650000Y-36652426D01*
X15650000Y-36652426D02*
X15433333Y-36652426D01*
X16114286Y-36961950D02*
X16114286Y-36992902D01*
X16114286Y-36992902D02*
X16083333Y-37054807D01*
X16083333Y-37054807D02*
X16052381Y-37085759D01*
X17166667Y-36342902D02*
X17042857Y-36342902D01*
X17042857Y-36342902D02*
X16980953Y-36373854D01*
X16980953Y-36373854D02*
X16950000Y-36404807D01*
X16950000Y-36404807D02*
X16888095Y-36497664D01*
X16888095Y-36497664D02*
X16857143Y-36621473D01*
X16857143Y-36621473D02*
X16857143Y-36869092D01*
X16857143Y-36869092D02*
X16888095Y-36930997D01*
X16888095Y-36930997D02*
X16919048Y-36961950D01*
X16919048Y-36961950D02*
X16980953Y-36992902D01*
X16980953Y-36992902D02*
X17104762Y-36992902D01*
X17104762Y-36992902D02*
X17166667Y-36961950D01*
X17166667Y-36961950D02*
X17197619Y-36930997D01*
X17197619Y-36930997D02*
X17228572Y-36869092D01*
X17228572Y-36869092D02*
X17228572Y-36714330D01*
X17228572Y-36714330D02*
X17197619Y-36652426D01*
X17197619Y-36652426D02*
X17166667Y-36621473D01*
X17166667Y-36621473D02*
X17104762Y-36590521D01*
X17104762Y-36590521D02*
X16980953Y-36590521D01*
X16980953Y-36590521D02*
X16919048Y-36621473D01*
X16919048Y-36621473D02*
X16888095Y-36652426D01*
X16888095Y-36652426D02*
X16857143Y-36714330D01*
X18219048Y-36652426D02*
X18002381Y-36652426D01*
X18002381Y-36992902D02*
X18002381Y-36342902D01*
X18002381Y-36342902D02*
X18311905Y-36342902D01*
X18869048Y-36992902D02*
X18559524Y-36992902D01*
X18559524Y-36992902D02*
X18559524Y-36342902D01*
X19054762Y-36807188D02*
X19364286Y-36807188D01*
X18992857Y-36992902D02*
X19209524Y-36342902D01*
X19209524Y-36342902D02*
X19426191Y-36992902D01*
X19611905Y-36961950D02*
X19704762Y-36992902D01*
X19704762Y-36992902D02*
X19859524Y-36992902D01*
X19859524Y-36992902D02*
X19921429Y-36961950D01*
X19921429Y-36961950D02*
X19952381Y-36930997D01*
X19952381Y-36930997D02*
X19983334Y-36869092D01*
X19983334Y-36869092D02*
X19983334Y-36807188D01*
X19983334Y-36807188D02*
X19952381Y-36745283D01*
X19952381Y-36745283D02*
X19921429Y-36714330D01*
X19921429Y-36714330D02*
X19859524Y-36683378D01*
X19859524Y-36683378D02*
X19735715Y-36652426D01*
X19735715Y-36652426D02*
X19673810Y-36621473D01*
X19673810Y-36621473D02*
X19642857Y-36590521D01*
X19642857Y-36590521D02*
X19611905Y-36528616D01*
X19611905Y-36528616D02*
X19611905Y-36466711D01*
X19611905Y-36466711D02*
X19642857Y-36404807D01*
X19642857Y-36404807D02*
X19673810Y-36373854D01*
X19673810Y-36373854D02*
X19735715Y-36342902D01*
X19735715Y-36342902D02*
X19890476Y-36342902D01*
X19890476Y-36342902D02*
X19983334Y-36373854D01*
X20261905Y-36992902D02*
X20261905Y-36342902D01*
X20261905Y-36652426D02*
X20633334Y-36652426D01*
X20633334Y-36992902D02*
X20633334Y-36342902D01*
X20973810Y-36961950D02*
X20973810Y-36992902D01*
X20973810Y-36992902D02*
X20942857Y-37054807D01*
X20942857Y-37054807D02*
X20911905Y-37085759D01*
X21685715Y-36342902D02*
X22119048Y-36342902D01*
X22119048Y-36342902D02*
X21840477Y-36992902D01*
X23233334Y-36992902D02*
X23016667Y-36683378D01*
X22861905Y-36992902D02*
X22861905Y-36342902D01*
X22861905Y-36342902D02*
X23109524Y-36342902D01*
X23109524Y-36342902D02*
X23171429Y-36373854D01*
X23171429Y-36373854D02*
X23202382Y-36404807D01*
X23202382Y-36404807D02*
X23233334Y-36466711D01*
X23233334Y-36466711D02*
X23233334Y-36559569D01*
X23233334Y-36559569D02*
X23202382Y-36621473D01*
X23202382Y-36621473D02*
X23171429Y-36652426D01*
X23171429Y-36652426D02*
X23109524Y-36683378D01*
X23109524Y-36683378D02*
X22861905Y-36683378D01*
X23511905Y-36652426D02*
X23728572Y-36652426D01*
X23821429Y-36992902D02*
X23511905Y-36992902D01*
X23511905Y-36992902D02*
X23511905Y-36342902D01*
X23511905Y-36342902D02*
X23821429Y-36342902D01*
X24007143Y-36342902D02*
X24223810Y-36992902D01*
X24223810Y-36992902D02*
X24440477Y-36342902D01*
X24688096Y-36961950D02*
X24688096Y-36992902D01*
X24688096Y-36992902D02*
X24657143Y-37054807D01*
X24657143Y-37054807D02*
X24626191Y-37085759D01*
X25554763Y-36621473D02*
X25492858Y-36590521D01*
X25492858Y-36590521D02*
X25461905Y-36559569D01*
X25461905Y-36559569D02*
X25430953Y-36497664D01*
X25430953Y-36497664D02*
X25430953Y-36466711D01*
X25430953Y-36466711D02*
X25461905Y-36404807D01*
X25461905Y-36404807D02*
X25492858Y-36373854D01*
X25492858Y-36373854D02*
X25554763Y-36342902D01*
X25554763Y-36342902D02*
X25678572Y-36342902D01*
X25678572Y-36342902D02*
X25740477Y-36373854D01*
X25740477Y-36373854D02*
X25771429Y-36404807D01*
X25771429Y-36404807D02*
X25802382Y-36466711D01*
X25802382Y-36466711D02*
X25802382Y-36497664D01*
X25802382Y-36497664D02*
X25771429Y-36559569D01*
X25771429Y-36559569D02*
X25740477Y-36590521D01*
X25740477Y-36590521D02*
X25678572Y-36621473D01*
X25678572Y-36621473D02*
X25554763Y-36621473D01*
X25554763Y-36621473D02*
X25492858Y-36652426D01*
X25492858Y-36652426D02*
X25461905Y-36683378D01*
X25461905Y-36683378D02*
X25430953Y-36745283D01*
X25430953Y-36745283D02*
X25430953Y-36869092D01*
X25430953Y-36869092D02*
X25461905Y-36930997D01*
X25461905Y-36930997D02*
X25492858Y-36961950D01*
X25492858Y-36961950D02*
X25554763Y-36992902D01*
X25554763Y-36992902D02*
X25678572Y-36992902D01*
X25678572Y-36992902D02*
X25740477Y-36961950D01*
X25740477Y-36961950D02*
X25771429Y-36930997D01*
X25771429Y-36930997D02*
X25802382Y-36869092D01*
X25802382Y-36869092D02*
X25802382Y-36745283D01*
X25802382Y-36745283D02*
X25771429Y-36683378D01*
X25771429Y-36683378D02*
X25740477Y-36652426D01*
X25740477Y-36652426D02*
X25678572Y-36621473D01*
X26576191Y-36992902D02*
X26576191Y-36342902D01*
X26576191Y-36342902D02*
X26730953Y-36342902D01*
X26730953Y-36342902D02*
X26823810Y-36373854D01*
X26823810Y-36373854D02*
X26885715Y-36435759D01*
X26885715Y-36435759D02*
X26916668Y-36497664D01*
X26916668Y-36497664D02*
X26947620Y-36621473D01*
X26947620Y-36621473D02*
X26947620Y-36714330D01*
X26947620Y-36714330D02*
X26916668Y-36838140D01*
X26916668Y-36838140D02*
X26885715Y-36900045D01*
X26885715Y-36900045D02*
X26823810Y-36961950D01*
X26823810Y-36961950D02*
X26730953Y-36992902D01*
X26730953Y-36992902D02*
X26576191Y-36992902D01*
X27597620Y-36992902D02*
X27380953Y-36683378D01*
X27226191Y-36992902D02*
X27226191Y-36342902D01*
X27226191Y-36342902D02*
X27473810Y-36342902D01*
X27473810Y-36342902D02*
X27535715Y-36373854D01*
X27535715Y-36373854D02*
X27566668Y-36404807D01*
X27566668Y-36404807D02*
X27597620Y-36466711D01*
X27597620Y-36466711D02*
X27597620Y-36559569D01*
X27597620Y-36559569D02*
X27566668Y-36621473D01*
X27566668Y-36621473D02*
X27535715Y-36652426D01*
X27535715Y-36652426D02*
X27473810Y-36683378D01*
X27473810Y-36683378D02*
X27226191Y-36683378D01*
X28185715Y-36992902D02*
X27876191Y-36992902D01*
X27876191Y-36992902D02*
X27876191Y-36342902D01*
X8732143Y-28589164D02*
X8732143Y-29124878D01*
X8732143Y-29124878D02*
X8696428Y-29232021D01*
X8696428Y-29232021D02*
X8625000Y-29303450D01*
X8625000Y-29303450D02*
X8517857Y-29339164D01*
X8517857Y-29339164D02*
X8446428Y-29339164D01*
X9089286Y-29339164D02*
X9089286Y-28589164D01*
X9089286Y-28589164D02*
X9375000Y-28589164D01*
X9375000Y-28589164D02*
X9446429Y-28624878D01*
X9446429Y-28624878D02*
X9482143Y-28660592D01*
X9482143Y-28660592D02*
X9517857Y-28732021D01*
X9517857Y-28732021D02*
X9517857Y-28839164D01*
X9517857Y-28839164D02*
X9482143Y-28910592D01*
X9482143Y-28910592D02*
X9446429Y-28946307D01*
X9446429Y-28946307D02*
X9375000Y-28982021D01*
X9375000Y-28982021D02*
X9089286Y-28982021D01*
X9767857Y-28589164D02*
X10232143Y-28589164D01*
X10232143Y-28589164D02*
X9982143Y-28874878D01*
X9982143Y-28874878D02*
X10089286Y-28874878D01*
X10089286Y-28874878D02*
X10160715Y-28910592D01*
X10160715Y-28910592D02*
X10196429Y-28946307D01*
X10196429Y-28946307D02*
X10232143Y-29017735D01*
X10232143Y-29017735D02*
X10232143Y-29196307D01*
X10232143Y-29196307D02*
X10196429Y-29267735D01*
X10196429Y-29267735D02*
X10160715Y-29303450D01*
X10160715Y-29303450D02*
X10089286Y-29339164D01*
X10089286Y-29339164D02*
X9875000Y-29339164D01*
X9875000Y-29339164D02*
X9803572Y-29303450D01*
X9803572Y-29303450D02*
X9767857Y-29267735D01*
X10553572Y-29267735D02*
X10589286Y-29303450D01*
X10589286Y-29303450D02*
X10553572Y-29339164D01*
X10553572Y-29339164D02*
X10517858Y-29303450D01*
X10517858Y-29303450D02*
X10553572Y-29267735D01*
X10553572Y-29267735D02*
X10553572Y-29339164D01*
X10553572Y-28874878D02*
X10589286Y-28910592D01*
X10589286Y-28910592D02*
X10553572Y-28946307D01*
X10553572Y-28946307D02*
X10517858Y-28910592D01*
X10517858Y-28910592D02*
X10553572Y-28874878D01*
X10553572Y-28874878D02*
X10553572Y-28946307D01*
X11482144Y-29339164D02*
X11482144Y-28589164D01*
X11482144Y-28589164D02*
X11660715Y-28589164D01*
X11660715Y-28589164D02*
X11767858Y-28624878D01*
X11767858Y-28624878D02*
X11839287Y-28696307D01*
X11839287Y-28696307D02*
X11875001Y-28767735D01*
X11875001Y-28767735D02*
X11910715Y-28910592D01*
X11910715Y-28910592D02*
X11910715Y-29017735D01*
X11910715Y-29017735D02*
X11875001Y-29160592D01*
X11875001Y-29160592D02*
X11839287Y-29232021D01*
X11839287Y-29232021D02*
X11767858Y-29303450D01*
X11767858Y-29303450D02*
X11660715Y-29339164D01*
X11660715Y-29339164D02*
X11482144Y-29339164D01*
X12660715Y-29339164D02*
X12410715Y-28982021D01*
X12232144Y-29339164D02*
X12232144Y-28589164D01*
X12232144Y-28589164D02*
X12517858Y-28589164D01*
X12517858Y-28589164D02*
X12589287Y-28624878D01*
X12589287Y-28624878D02*
X12625001Y-28660592D01*
X12625001Y-28660592D02*
X12660715Y-28732021D01*
X12660715Y-28732021D02*
X12660715Y-28839164D01*
X12660715Y-28839164D02*
X12625001Y-28910592D01*
X12625001Y-28910592D02*
X12589287Y-28946307D01*
X12589287Y-28946307D02*
X12517858Y-28982021D01*
X12517858Y-28982021D02*
X12232144Y-28982021D01*
X13339287Y-29339164D02*
X12982144Y-29339164D01*
X12982144Y-29339164D02*
X12982144Y-28589164D01*
X13589287Y-29053450D02*
X14160716Y-29053450D01*
X14946429Y-29339164D02*
X14696429Y-28982021D01*
X14517858Y-29339164D02*
X14517858Y-28589164D01*
X14517858Y-28589164D02*
X14803572Y-28589164D01*
X14803572Y-28589164D02*
X14875001Y-28624878D01*
X14875001Y-28624878D02*
X14910715Y-28660592D01*
X14910715Y-28660592D02*
X14946429Y-28732021D01*
X14946429Y-28732021D02*
X14946429Y-28839164D01*
X14946429Y-28839164D02*
X14910715Y-28910592D01*
X14910715Y-28910592D02*
X14875001Y-28946307D01*
X14875001Y-28946307D02*
X14803572Y-28982021D01*
X14803572Y-28982021D02*
X14517858Y-28982021D01*
X15232144Y-29124878D02*
X15589287Y-29124878D01*
X15160715Y-29339164D02*
X15410715Y-28589164D01*
X15410715Y-28589164D02*
X15660715Y-29339164D01*
X15910715Y-29339164D02*
X15910715Y-28589164D01*
X15910715Y-28589164D02*
X16160715Y-29124878D01*
X16160715Y-29124878D02*
X16410715Y-28589164D01*
X16410715Y-28589164D02*
X16410715Y-29339164D01*
X16767858Y-29339164D02*
X16767858Y-28589164D01*
X16767858Y-28589164D02*
X17053572Y-28589164D01*
X17053572Y-28589164D02*
X17125001Y-28624878D01*
X17125001Y-28624878D02*
X17160715Y-28660592D01*
X17160715Y-28660592D02*
X17196429Y-28732021D01*
X17196429Y-28732021D02*
X17196429Y-28839164D01*
X17196429Y-28839164D02*
X17160715Y-28910592D01*
X17160715Y-28910592D02*
X17125001Y-28946307D01*
X17125001Y-28946307D02*
X17053572Y-28982021D01*
X17053572Y-28982021D02*
X16767858Y-28982021D01*
X17517858Y-29053450D02*
X18089287Y-29053450D01*
X18696429Y-28946307D02*
X18446429Y-28946307D01*
X18446429Y-29339164D02*
X18446429Y-28589164D01*
X18446429Y-28589164D02*
X18803572Y-28589164D01*
X19446429Y-29339164D02*
X19089286Y-29339164D01*
X19089286Y-29339164D02*
X19089286Y-28589164D01*
X19660715Y-29124878D02*
X20017858Y-29124878D01*
X19589286Y-29339164D02*
X19839286Y-28589164D01*
X19839286Y-28589164D02*
X20089286Y-29339164D01*
X20303572Y-29303450D02*
X20410715Y-29339164D01*
X20410715Y-29339164D02*
X20589286Y-29339164D01*
X20589286Y-29339164D02*
X20660715Y-29303450D01*
X20660715Y-29303450D02*
X20696429Y-29267735D01*
X20696429Y-29267735D02*
X20732143Y-29196307D01*
X20732143Y-29196307D02*
X20732143Y-29124878D01*
X20732143Y-29124878D02*
X20696429Y-29053450D01*
X20696429Y-29053450D02*
X20660715Y-29017735D01*
X20660715Y-29017735D02*
X20589286Y-28982021D01*
X20589286Y-28982021D02*
X20446429Y-28946307D01*
X20446429Y-28946307D02*
X20375000Y-28910592D01*
X20375000Y-28910592D02*
X20339286Y-28874878D01*
X20339286Y-28874878D02*
X20303572Y-28803450D01*
X20303572Y-28803450D02*
X20303572Y-28732021D01*
X20303572Y-28732021D02*
X20339286Y-28660592D01*
X20339286Y-28660592D02*
X20375000Y-28624878D01*
X20375000Y-28624878D02*
X20446429Y-28589164D01*
X20446429Y-28589164D02*
X20625000Y-28589164D01*
X20625000Y-28589164D02*
X20732143Y-28624878D01*
X21053572Y-29339164D02*
X21053572Y-28589164D01*
X21053572Y-28946307D02*
X21482143Y-28946307D01*
X21482143Y-29339164D02*
X21482143Y-28589164D01*
X8839285Y-27389164D02*
X8839285Y-27924878D01*
X8839285Y-27924878D02*
X8803570Y-28032021D01*
X8803570Y-28032021D02*
X8732142Y-28103450D01*
X8732142Y-28103450D02*
X8624999Y-28139164D01*
X8624999Y-28139164D02*
X8553570Y-28139164D01*
X9196428Y-28139164D02*
X9196428Y-27389164D01*
X9196428Y-27389164D02*
X9482142Y-27389164D01*
X9482142Y-27389164D02*
X9553571Y-27424878D01*
X9553571Y-27424878D02*
X9589285Y-27460592D01*
X9589285Y-27460592D02*
X9624999Y-27532021D01*
X9624999Y-27532021D02*
X9624999Y-27639164D01*
X9624999Y-27639164D02*
X9589285Y-27710592D01*
X9589285Y-27710592D02*
X9553571Y-27746307D01*
X9553571Y-27746307D02*
X9482142Y-27782021D01*
X9482142Y-27782021D02*
X9196428Y-27782021D01*
X9910714Y-27460592D02*
X9946428Y-27424878D01*
X9946428Y-27424878D02*
X10017857Y-27389164D01*
X10017857Y-27389164D02*
X10196428Y-27389164D01*
X10196428Y-27389164D02*
X10267857Y-27424878D01*
X10267857Y-27424878D02*
X10303571Y-27460592D01*
X10303571Y-27460592D02*
X10339285Y-27532021D01*
X10339285Y-27532021D02*
X10339285Y-27603450D01*
X10339285Y-27603450D02*
X10303571Y-27710592D01*
X10303571Y-27710592D02*
X9874999Y-28139164D01*
X9874999Y-28139164D02*
X10339285Y-28139164D01*
X10660714Y-28067735D02*
X10696428Y-28103450D01*
X10696428Y-28103450D02*
X10660714Y-28139164D01*
X10660714Y-28139164D02*
X10625000Y-28103450D01*
X10625000Y-28103450D02*
X10660714Y-28067735D01*
X10660714Y-28067735D02*
X10660714Y-28139164D01*
X10660714Y-27674878D02*
X10696428Y-27710592D01*
X10696428Y-27710592D02*
X10660714Y-27746307D01*
X10660714Y-27746307D02*
X10625000Y-27710592D01*
X10625000Y-27710592D02*
X10660714Y-27674878D01*
X10660714Y-27674878D02*
X10660714Y-27746307D01*
X12017857Y-28139164D02*
X11767857Y-27782021D01*
X11589286Y-28139164D02*
X11589286Y-27389164D01*
X11589286Y-27389164D02*
X11875000Y-27389164D01*
X11875000Y-27389164D02*
X11946429Y-27424878D01*
X11946429Y-27424878D02*
X11982143Y-27460592D01*
X11982143Y-27460592D02*
X12017857Y-27532021D01*
X12017857Y-27532021D02*
X12017857Y-27639164D01*
X12017857Y-27639164D02*
X11982143Y-27710592D01*
X11982143Y-27710592D02*
X11946429Y-27746307D01*
X11946429Y-27746307D02*
X11875000Y-27782021D01*
X11875000Y-27782021D02*
X11589286Y-27782021D01*
X12339286Y-27746307D02*
X12589286Y-27746307D01*
X12696429Y-28139164D02*
X12339286Y-28139164D01*
X12339286Y-28139164D02*
X12339286Y-27389164D01*
X12339286Y-27389164D02*
X12696429Y-27389164D01*
X12982143Y-27924878D02*
X13339286Y-27924878D01*
X12910714Y-28139164D02*
X13160714Y-27389164D01*
X13160714Y-27389164D02*
X13410714Y-28139164D01*
X14089285Y-28139164D02*
X13839285Y-27782021D01*
X13660714Y-28139164D02*
X13660714Y-27389164D01*
X13660714Y-27389164D02*
X13946428Y-27389164D01*
X13946428Y-27389164D02*
X14017857Y-27424878D01*
X14017857Y-27424878D02*
X14053571Y-27460592D01*
X14053571Y-27460592D02*
X14089285Y-27532021D01*
X14089285Y-27532021D02*
X14089285Y-27639164D01*
X14089285Y-27639164D02*
X14053571Y-27710592D01*
X14053571Y-27710592D02*
X14017857Y-27746307D01*
X14017857Y-27746307D02*
X13946428Y-27782021D01*
X13946428Y-27782021D02*
X13660714Y-27782021D01*
X15410714Y-28139164D02*
X15160714Y-27782021D01*
X14982143Y-28139164D02*
X14982143Y-27389164D01*
X14982143Y-27389164D02*
X15267857Y-27389164D01*
X15267857Y-27389164D02*
X15339286Y-27424878D01*
X15339286Y-27424878D02*
X15375000Y-27460592D01*
X15375000Y-27460592D02*
X15410714Y-27532021D01*
X15410714Y-27532021D02*
X15410714Y-27639164D01*
X15410714Y-27639164D02*
X15375000Y-27710592D01*
X15375000Y-27710592D02*
X15339286Y-27746307D01*
X15339286Y-27746307D02*
X15267857Y-27782021D01*
X15267857Y-27782021D02*
X14982143Y-27782021D01*
X15732143Y-27746307D02*
X15982143Y-27746307D01*
X16089286Y-28139164D02*
X15732143Y-28139164D01*
X15732143Y-28139164D02*
X15732143Y-27389164D01*
X15732143Y-27389164D02*
X16089286Y-27389164D01*
X16410714Y-28139164D02*
X16410714Y-27389164D01*
X16410714Y-27389164D02*
X16589285Y-27389164D01*
X16589285Y-27389164D02*
X16696428Y-27424878D01*
X16696428Y-27424878D02*
X16767857Y-27496307D01*
X16767857Y-27496307D02*
X16803571Y-27567735D01*
X16803571Y-27567735D02*
X16839285Y-27710592D01*
X16839285Y-27710592D02*
X16839285Y-27817735D01*
X16839285Y-27817735D02*
X16803571Y-27960592D01*
X16803571Y-27960592D02*
X16767857Y-28032021D01*
X16767857Y-28032021D02*
X16696428Y-28103450D01*
X16696428Y-28103450D02*
X16589285Y-28139164D01*
X16589285Y-28139164D02*
X16410714Y-28139164D01*
X17696429Y-28103450D02*
X17803572Y-28139164D01*
X17803572Y-28139164D02*
X17982143Y-28139164D01*
X17982143Y-28139164D02*
X18053572Y-28103450D01*
X18053572Y-28103450D02*
X18089286Y-28067735D01*
X18089286Y-28067735D02*
X18125000Y-27996307D01*
X18125000Y-27996307D02*
X18125000Y-27924878D01*
X18125000Y-27924878D02*
X18089286Y-27853450D01*
X18089286Y-27853450D02*
X18053572Y-27817735D01*
X18053572Y-27817735D02*
X17982143Y-27782021D01*
X17982143Y-27782021D02*
X17839286Y-27746307D01*
X17839286Y-27746307D02*
X17767857Y-27710592D01*
X17767857Y-27710592D02*
X17732143Y-27674878D01*
X17732143Y-27674878D02*
X17696429Y-27603450D01*
X17696429Y-27603450D02*
X17696429Y-27532021D01*
X17696429Y-27532021D02*
X17732143Y-27460592D01*
X17732143Y-27460592D02*
X17767857Y-27424878D01*
X17767857Y-27424878D02*
X17839286Y-27389164D01*
X17839286Y-27389164D02*
X18017857Y-27389164D01*
X18017857Y-27389164D02*
X18125000Y-27424878D01*
X18446429Y-27746307D02*
X18696429Y-27746307D01*
X18803572Y-28139164D02*
X18446429Y-28139164D01*
X18446429Y-28139164D02*
X18446429Y-27389164D01*
X18446429Y-27389164D02*
X18803572Y-27389164D01*
X19482143Y-28139164D02*
X19125000Y-28139164D01*
X19125000Y-28139164D02*
X19125000Y-27389164D01*
X19732143Y-27746307D02*
X19982143Y-27746307D01*
X20089286Y-28139164D02*
X19732143Y-28139164D01*
X19732143Y-28139164D02*
X19732143Y-27389164D01*
X19732143Y-27389164D02*
X20089286Y-27389164D01*
X20839285Y-28067735D02*
X20803571Y-28103450D01*
X20803571Y-28103450D02*
X20696428Y-28139164D01*
X20696428Y-28139164D02*
X20625000Y-28139164D01*
X20625000Y-28139164D02*
X20517857Y-28103450D01*
X20517857Y-28103450D02*
X20446428Y-28032021D01*
X20446428Y-28032021D02*
X20410714Y-27960592D01*
X20410714Y-27960592D02*
X20375000Y-27817735D01*
X20375000Y-27817735D02*
X20375000Y-27710592D01*
X20375000Y-27710592D02*
X20410714Y-27567735D01*
X20410714Y-27567735D02*
X20446428Y-27496307D01*
X20446428Y-27496307D02*
X20517857Y-27424878D01*
X20517857Y-27424878D02*
X20625000Y-27389164D01*
X20625000Y-27389164D02*
X20696428Y-27389164D01*
X20696428Y-27389164D02*
X20803571Y-27424878D01*
X20803571Y-27424878D02*
X20839285Y-27460592D01*
X21053571Y-27389164D02*
X21482143Y-27389164D01*
X21267857Y-28139164D02*
X21267857Y-27389164D01*
X2166666Y1595180D02*
X2166666Y880895D01*
X2166666Y880895D02*
X2119047Y738038D01*
X2119047Y738038D02*
X2023809Y642800D01*
X2023809Y642800D02*
X1880952Y595180D01*
X1880952Y595180D02*
X1785714Y595180D01*
X3166666Y595180D02*
X2595238Y595180D01*
X2880952Y595180D02*
X2880952Y1595180D01*
X2880952Y1595180D02*
X2785714Y1452323D01*
X2785714Y1452323D02*
X2690476Y1357085D01*
X2690476Y1357085D02*
X2595238Y1309466D01*
X25404819Y-15809523D02*
X26119104Y-15809523D01*
X26119104Y-15809523D02*
X26261961Y-15857142D01*
X26261961Y-15857142D02*
X26357200Y-15952380D01*
X26357200Y-15952380D02*
X26404819Y-16095237D01*
X26404819Y-16095237D02*
X26404819Y-16190475D01*
X26404819Y-14809523D02*
X26404819Y-15380951D01*
X26404819Y-15095237D02*
X25404819Y-15095237D01*
X25404819Y-15095237D02*
X25547676Y-15190475D01*
X25547676Y-15190475D02*
X25642914Y-15285713D01*
X25642914Y-15285713D02*
X25690533Y-15380951D01*
X26404819Y-13857142D02*
X26404819Y-14428570D01*
X26404819Y-14142856D02*
X25404819Y-14142856D01*
X25404819Y-14142856D02*
X25547676Y-14238094D01*
X25547676Y-14238094D02*
X25642914Y-14333332D01*
X25642914Y-14333332D02*
X25690533Y-14428570D01*
X190476Y-40504819D02*
X190476Y-41219104D01*
X190476Y-41219104D02*
X142857Y-41361961D01*
X142857Y-41361961D02*
X47619Y-41457200D01*
X47619Y-41457200D02*
X-95237Y-41504819D01*
X-95237Y-41504819D02*
X-190475Y-41504819D01*
X1190476Y-41504819D02*
X619048Y-41504819D01*
X904762Y-41504819D02*
X904762Y-40504819D01*
X904762Y-40504819D02*
X809524Y-40647676D01*
X809524Y-40647676D02*
X714286Y-40742914D01*
X714286Y-40742914D02*
X619048Y-40790533D01*
X2047619Y-40838152D02*
X2047619Y-41504819D01*
X1809524Y-40457200D02*
X1571429Y-41171485D01*
X1571429Y-41171485D02*
X2190476Y-41171485D01*
X3504819Y-25333333D02*
X4219104Y-25333333D01*
X4219104Y-25333333D02*
X4361961Y-25380952D01*
X4361961Y-25380952D02*
X4457200Y-25476190D01*
X4457200Y-25476190D02*
X4504819Y-25619047D01*
X4504819Y-25619047D02*
X4504819Y-25714285D01*
X3933390Y-24714285D02*
X3885771Y-24809523D01*
X3885771Y-24809523D02*
X3838152Y-24857142D01*
X3838152Y-24857142D02*
X3742914Y-24904761D01*
X3742914Y-24904761D02*
X3695295Y-24904761D01*
X3695295Y-24904761D02*
X3600057Y-24857142D01*
X3600057Y-24857142D02*
X3552438Y-24809523D01*
X3552438Y-24809523D02*
X3504819Y-24714285D01*
X3504819Y-24714285D02*
X3504819Y-24523809D01*
X3504819Y-24523809D02*
X3552438Y-24428571D01*
X3552438Y-24428571D02*
X3600057Y-24380952D01*
X3600057Y-24380952D02*
X3695295Y-24333333D01*
X3695295Y-24333333D02*
X3742914Y-24333333D01*
X3742914Y-24333333D02*
X3838152Y-24380952D01*
X3838152Y-24380952D02*
X3885771Y-24428571D01*
X3885771Y-24428571D02*
X3933390Y-24523809D01*
X3933390Y-24523809D02*
X3933390Y-24714285D01*
X3933390Y-24714285D02*
X3981009Y-24809523D01*
X3981009Y-24809523D02*
X4028628Y-24857142D01*
X4028628Y-24857142D02*
X4123866Y-24904761D01*
X4123866Y-24904761D02*
X4314342Y-24904761D01*
X4314342Y-24904761D02*
X4409580Y-24857142D01*
X4409580Y-24857142D02*
X4457200Y-24809523D01*
X4457200Y-24809523D02*
X4504819Y-24714285D01*
X4504819Y-24714285D02*
X4504819Y-24523809D01*
X4504819Y-24523809D02*
X4457200Y-24428571D01*
X4457200Y-24428571D02*
X4409580Y-24380952D01*
X4409580Y-24380952D02*
X4314342Y-24333333D01*
X4314342Y-24333333D02*
X4123866Y-24333333D01*
X4123866Y-24333333D02*
X4028628Y-24380952D01*
X4028628Y-24380952D02*
X3981009Y-24428571D01*
X3981009Y-24428571D02*
X3933390Y-24523809D01*
X14166666Y1595180D02*
X14166666Y880895D01*
X14166666Y880895D02*
X14119047Y738038D01*
X14119047Y738038D02*
X14023809Y642800D01*
X14023809Y642800D02*
X13880952Y595180D01*
X13880952Y595180D02*
X13785714Y595180D01*
X14547619Y1595180D02*
X15166666Y1595180D01*
X15166666Y1595180D02*
X14833333Y1214228D01*
X14833333Y1214228D02*
X14976190Y1214228D01*
X14976190Y1214228D02*
X15071428Y1166609D01*
X15071428Y1166609D02*
X15119047Y1118990D01*
X15119047Y1118990D02*
X15166666Y1023752D01*
X15166666Y1023752D02*
X15166666Y785657D01*
X15166666Y785657D02*
X15119047Y690419D01*
X15119047Y690419D02*
X15071428Y642800D01*
X15071428Y642800D02*
X14976190Y595180D01*
X14976190Y595180D02*
X14690476Y595180D01*
X14690476Y595180D02*
X14595238Y642800D01*
X14595238Y642800D02*
X14547619Y690419D01*
X3504819Y-17333333D02*
X4219104Y-17333333D01*
X4219104Y-17333333D02*
X4361961Y-17380952D01*
X4361961Y-17380952D02*
X4457200Y-17476190D01*
X4457200Y-17476190D02*
X4504819Y-17619047D01*
X4504819Y-17619047D02*
X4504819Y-17714285D01*
X3504819Y-16952380D02*
X3504819Y-16285714D01*
X3504819Y-16285714D02*
X4504819Y-16714285D01*
X25404819Y-31809523D02*
X26119104Y-31809523D01*
X26119104Y-31809523D02*
X26261961Y-31857142D01*
X26261961Y-31857142D02*
X26357200Y-31952380D01*
X26357200Y-31952380D02*
X26404819Y-32095237D01*
X26404819Y-32095237D02*
X26404819Y-32190475D01*
X26404819Y-30809523D02*
X26404819Y-31380951D01*
X26404819Y-31095237D02*
X25404819Y-31095237D01*
X25404819Y-31095237D02*
X25547676Y-31190475D01*
X25547676Y-31190475D02*
X25642914Y-31285713D01*
X25642914Y-31285713D02*
X25690533Y-31380951D01*
X25404819Y-30476189D02*
X25404819Y-29857142D01*
X25404819Y-29857142D02*
X25785771Y-30190475D01*
X25785771Y-30190475D02*
X25785771Y-30047618D01*
X25785771Y-30047618D02*
X25833390Y-29952380D01*
X25833390Y-29952380D02*
X25881009Y-29904761D01*
X25881009Y-29904761D02*
X25976247Y-29857142D01*
X25976247Y-29857142D02*
X26214342Y-29857142D01*
X26214342Y-29857142D02*
X26309580Y-29904761D01*
X26309580Y-29904761D02*
X26357200Y-29952380D01*
X26357200Y-29952380D02*
X26404819Y-30047618D01*
X26404819Y-30047618D02*
X26404819Y-30333332D01*
X26404819Y-30333332D02*
X26357200Y-30428570D01*
X26357200Y-30428570D02*
X26309580Y-30476189D01*
X14051666Y-15184819D02*
X14051666Y-15899104D01*
X14051666Y-15899104D02*
X14004047Y-16041961D01*
X14004047Y-16041961D02*
X13908809Y-16137200D01*
X13908809Y-16137200D02*
X13765952Y-16184819D01*
X13765952Y-16184819D02*
X13670714Y-16184819D01*
X14527857Y-16184819D02*
X14527857Y-15184819D01*
X14527857Y-15184819D02*
X14908809Y-15184819D01*
X14908809Y-15184819D02*
X15004047Y-15232438D01*
X15004047Y-15232438D02*
X15051666Y-15280057D01*
X15051666Y-15280057D02*
X15099285Y-15375295D01*
X15099285Y-15375295D02*
X15099285Y-15518152D01*
X15099285Y-15518152D02*
X15051666Y-15613390D01*
X15051666Y-15613390D02*
X15004047Y-15661009D01*
X15004047Y-15661009D02*
X14908809Y-15708628D01*
X14908809Y-15708628D02*
X14527857Y-15708628D01*
X16051666Y-16184819D02*
X15480238Y-16184819D01*
X15765952Y-16184819D02*
X15765952Y-15184819D01*
X15765952Y-15184819D02*
X15670714Y-15327676D01*
X15670714Y-15327676D02*
X15575476Y-15422914D01*
X15575476Y-15422914D02*
X15480238Y-15470533D01*
X26166666Y1595180D02*
X26166666Y880895D01*
X26166666Y880895D02*
X26119047Y738038D01*
X26119047Y738038D02*
X26023809Y642800D01*
X26023809Y642800D02*
X25880952Y595180D01*
X25880952Y595180D02*
X25785714Y595180D01*
X27119047Y1595180D02*
X26642857Y1595180D01*
X26642857Y1595180D02*
X26595238Y1118990D01*
X26595238Y1118990D02*
X26642857Y1166609D01*
X26642857Y1166609D02*
X26738095Y1214228D01*
X26738095Y1214228D02*
X26976190Y1214228D01*
X26976190Y1214228D02*
X27071428Y1166609D01*
X27071428Y1166609D02*
X27119047Y1118990D01*
X27119047Y1118990D02*
X27166666Y1023752D01*
X27166666Y1023752D02*
X27166666Y785657D01*
X27166666Y785657D02*
X27119047Y690419D01*
X27119047Y690419D02*
X27071428Y642800D01*
X27071428Y642800D02*
X26976190Y595180D01*
X26976190Y595180D02*
X26738095Y595180D01*
X26738095Y595180D02*
X26642857Y642800D01*
X26642857Y642800D02*
X26595238Y690419D01*
X14051666Y-22184819D02*
X14051666Y-22899104D01*
X14051666Y-22899104D02*
X14004047Y-23041961D01*
X14004047Y-23041961D02*
X13908809Y-23137200D01*
X13908809Y-23137200D02*
X13765952Y-23184819D01*
X13765952Y-23184819D02*
X13670714Y-23184819D01*
X14527857Y-23184819D02*
X14527857Y-22184819D01*
X14527857Y-22184819D02*
X14908809Y-22184819D01*
X14908809Y-22184819D02*
X15004047Y-22232438D01*
X15004047Y-22232438D02*
X15051666Y-22280057D01*
X15051666Y-22280057D02*
X15099285Y-22375295D01*
X15099285Y-22375295D02*
X15099285Y-22518152D01*
X15099285Y-22518152D02*
X15051666Y-22613390D01*
X15051666Y-22613390D02*
X15004047Y-22661009D01*
X15004047Y-22661009D02*
X14908809Y-22708628D01*
X14908809Y-22708628D02*
X14527857Y-22708628D01*
X15432619Y-22184819D02*
X16051666Y-22184819D01*
X16051666Y-22184819D02*
X15718333Y-22565771D01*
X15718333Y-22565771D02*
X15861190Y-22565771D01*
X15861190Y-22565771D02*
X15956428Y-22613390D01*
X15956428Y-22613390D02*
X16004047Y-22661009D01*
X16004047Y-22661009D02*
X16051666Y-22756247D01*
X16051666Y-22756247D02*
X16051666Y-22994342D01*
X16051666Y-22994342D02*
X16004047Y-23089580D01*
X16004047Y-23089580D02*
X15956428Y-23137200D01*
X15956428Y-23137200D02*
X15861190Y-23184819D01*
X15861190Y-23184819D02*
X15575476Y-23184819D01*
X15575476Y-23184819D02*
X15480238Y-23137200D01*
X15480238Y-23137200D02*
X15432619Y-23089580D01*
X17436666Y-18124819D02*
X17436666Y-18839104D01*
X17436666Y-18839104D02*
X17389047Y-18981961D01*
X17389047Y-18981961D02*
X17293809Y-19077200D01*
X17293809Y-19077200D02*
X17150952Y-19124819D01*
X17150952Y-19124819D02*
X17055714Y-19124819D01*
X17912857Y-19124819D02*
X17912857Y-18124819D01*
X17912857Y-18124819D02*
X18293809Y-18124819D01*
X18293809Y-18124819D02*
X18389047Y-18172438D01*
X18389047Y-18172438D02*
X18436666Y-18220057D01*
X18436666Y-18220057D02*
X18484285Y-18315295D01*
X18484285Y-18315295D02*
X18484285Y-18458152D01*
X18484285Y-18458152D02*
X18436666Y-18553390D01*
X18436666Y-18553390D02*
X18389047Y-18601009D01*
X18389047Y-18601009D02*
X18293809Y-18648628D01*
X18293809Y-18648628D02*
X17912857Y-18648628D01*
X18865238Y-18220057D02*
X18912857Y-18172438D01*
X18912857Y-18172438D02*
X19008095Y-18124819D01*
X19008095Y-18124819D02*
X19246190Y-18124819D01*
X19246190Y-18124819D02*
X19341428Y-18172438D01*
X19341428Y-18172438D02*
X19389047Y-18220057D01*
X19389047Y-18220057D02*
X19436666Y-18315295D01*
X19436666Y-18315295D02*
X19436666Y-18410533D01*
X19436666Y-18410533D02*
X19389047Y-18553390D01*
X19389047Y-18553390D02*
X18817619Y-19124819D01*
X18817619Y-19124819D02*
X19436666Y-19124819D01*
X25404819Y-7809523D02*
X26119104Y-7809523D01*
X26119104Y-7809523D02*
X26261961Y-7857142D01*
X26261961Y-7857142D02*
X26357200Y-7952380D01*
X26357200Y-7952380D02*
X26404819Y-8095237D01*
X26404819Y-8095237D02*
X26404819Y-8190475D01*
X26404819Y-6809523D02*
X26404819Y-7380951D01*
X26404819Y-7095237D02*
X25404819Y-7095237D01*
X25404819Y-7095237D02*
X25547676Y-7190475D01*
X25547676Y-7190475D02*
X25642914Y-7285713D01*
X25642914Y-7285713D02*
X25690533Y-7380951D01*
X25404819Y-6190475D02*
X25404819Y-6095237D01*
X25404819Y-6095237D02*
X25452438Y-5999999D01*
X25452438Y-5999999D02*
X25500057Y-5952380D01*
X25500057Y-5952380D02*
X25595295Y-5904761D01*
X25595295Y-5904761D02*
X25785771Y-5857142D01*
X25785771Y-5857142D02*
X26023866Y-5857142D01*
X26023866Y-5857142D02*
X26214342Y-5904761D01*
X26214342Y-5904761D02*
X26309580Y-5952380D01*
X26309580Y-5952380D02*
X26357200Y-5999999D01*
X26357200Y-5999999D02*
X26404819Y-6095237D01*
X26404819Y-6095237D02*
X26404819Y-6190475D01*
X26404819Y-6190475D02*
X26357200Y-6285713D01*
X26357200Y-6285713D02*
X26309580Y-6333332D01*
X26309580Y-6333332D02*
X26214342Y-6380951D01*
X26214342Y-6380951D02*
X26023866Y-6428570D01*
X26023866Y-6428570D02*
X25785771Y-6428570D01*
X25785771Y-6428570D02*
X25595295Y-6380951D01*
X25595295Y-6380951D02*
X25500057Y-6333332D01*
X25500057Y-6333332D02*
X25452438Y-6285713D01*
X25452438Y-6285713D02*
X25404819Y-6190475D01*
X3504819Y-33333333D02*
X4219104Y-33333333D01*
X4219104Y-33333333D02*
X4361961Y-33380952D01*
X4361961Y-33380952D02*
X4457200Y-33476190D01*
X4457200Y-33476190D02*
X4504819Y-33619047D01*
X4504819Y-33619047D02*
X4504819Y-33714285D01*
X4504819Y-32809523D02*
X4504819Y-32619047D01*
X4504819Y-32619047D02*
X4457200Y-32523809D01*
X4457200Y-32523809D02*
X4409580Y-32476190D01*
X4409580Y-32476190D02*
X4266723Y-32380952D01*
X4266723Y-32380952D02*
X4076247Y-32333333D01*
X4076247Y-32333333D02*
X3695295Y-32333333D01*
X3695295Y-32333333D02*
X3600057Y-32380952D01*
X3600057Y-32380952D02*
X3552438Y-32428571D01*
X3552438Y-32428571D02*
X3504819Y-32523809D01*
X3504819Y-32523809D02*
X3504819Y-32714285D01*
X3504819Y-32714285D02*
X3552438Y-32809523D01*
X3552438Y-32809523D02*
X3600057Y-32857142D01*
X3600057Y-32857142D02*
X3695295Y-32904761D01*
X3695295Y-32904761D02*
X3933390Y-32904761D01*
X3933390Y-32904761D02*
X4028628Y-32857142D01*
X4028628Y-32857142D02*
X4076247Y-32809523D01*
X4076247Y-32809523D02*
X4123866Y-32714285D01*
X4123866Y-32714285D02*
X4123866Y-32523809D01*
X4123866Y-32523809D02*
X4076247Y-32428571D01*
X4076247Y-32428571D02*
X4028628Y-32380952D01*
X4028628Y-32380952D02*
X3933390Y-32333333D01*
X25404819Y-23809523D02*
X26119104Y-23809523D01*
X26119104Y-23809523D02*
X26261961Y-23857142D01*
X26261961Y-23857142D02*
X26357200Y-23952380D01*
X26357200Y-23952380D02*
X26404819Y-24095237D01*
X26404819Y-24095237D02*
X26404819Y-24190475D01*
X26404819Y-22809523D02*
X26404819Y-23380951D01*
X26404819Y-23095237D02*
X25404819Y-23095237D01*
X25404819Y-23095237D02*
X25547676Y-23190475D01*
X25547676Y-23190475D02*
X25642914Y-23285713D01*
X25642914Y-23285713D02*
X25690533Y-23380951D01*
X25500057Y-22428570D02*
X25452438Y-22380951D01*
X25452438Y-22380951D02*
X25404819Y-22285713D01*
X25404819Y-22285713D02*
X25404819Y-22047618D01*
X25404819Y-22047618D02*
X25452438Y-21952380D01*
X25452438Y-21952380D02*
X25500057Y-21904761D01*
X25500057Y-21904761D02*
X25595295Y-21857142D01*
X25595295Y-21857142D02*
X25690533Y-21857142D01*
X25690533Y-21857142D02*
X25833390Y-21904761D01*
X25833390Y-21904761D02*
X26404819Y-22476189D01*
X26404819Y-22476189D02*
X26404819Y-21857142D01*
X3504819Y-9333333D02*
X4219104Y-9333333D01*
X4219104Y-9333333D02*
X4361961Y-9380952D01*
X4361961Y-9380952D02*
X4457200Y-9476190D01*
X4457200Y-9476190D02*
X4504819Y-9619047D01*
X4504819Y-9619047D02*
X4504819Y-9714285D01*
X3504819Y-8428571D02*
X3504819Y-8619047D01*
X3504819Y-8619047D02*
X3552438Y-8714285D01*
X3552438Y-8714285D02*
X3600057Y-8761904D01*
X3600057Y-8761904D02*
X3742914Y-8857142D01*
X3742914Y-8857142D02*
X3933390Y-8904761D01*
X3933390Y-8904761D02*
X4314342Y-8904761D01*
X4314342Y-8904761D02*
X4409580Y-8857142D01*
X4409580Y-8857142D02*
X4457200Y-8809523D01*
X4457200Y-8809523D02*
X4504819Y-8714285D01*
X4504819Y-8714285D02*
X4504819Y-8523809D01*
X4504819Y-8523809D02*
X4457200Y-8428571D01*
X4457200Y-8428571D02*
X4409580Y-8380952D01*
X4409580Y-8380952D02*
X4314342Y-8333333D01*
X4314342Y-8333333D02*
X4076247Y-8333333D01*
X4076247Y-8333333D02*
X3981009Y-8380952D01*
X3981009Y-8380952D02*
X3933390Y-8428571D01*
X3933390Y-8428571D02*
X3885771Y-8523809D01*
X3885771Y-8523809D02*
X3885771Y-8714285D01*
X3885771Y-8714285D02*
X3933390Y-8809523D01*
X3933390Y-8809523D02*
X3981009Y-8857142D01*
X3981009Y-8857142D02*
X4076247Y-8904761D01*
X8166666Y1595180D02*
X8166666Y880895D01*
X8166666Y880895D02*
X8119047Y738038D01*
X8119047Y738038D02*
X8023809Y642800D01*
X8023809Y642800D02*
X7880952Y595180D01*
X7880952Y595180D02*
X7785714Y595180D01*
X8595238Y1499942D02*
X8642857Y1547561D01*
X8642857Y1547561D02*
X8738095Y1595180D01*
X8738095Y1595180D02*
X8976190Y1595180D01*
X8976190Y1595180D02*
X9071428Y1547561D01*
X9071428Y1547561D02*
X9119047Y1499942D01*
X9119047Y1499942D02*
X9166666Y1404704D01*
X9166666Y1404704D02*
X9166666Y1309466D01*
X9166666Y1309466D02*
X9119047Y1166609D01*
X9119047Y1166609D02*
X8547619Y595180D01*
X8547619Y595180D02*
X9166666Y595180D01*
X20166666Y1595180D02*
X20166666Y880895D01*
X20166666Y880895D02*
X20119047Y738038D01*
X20119047Y738038D02*
X20023809Y642800D01*
X20023809Y642800D02*
X19880952Y595180D01*
X19880952Y595180D02*
X19785714Y595180D01*
X21071428Y1261847D02*
X21071428Y595180D01*
X20833333Y1642800D02*
X20595238Y928514D01*
X20595238Y928514D02*
X21214285Y928514D01*
D11*
%TO.C,J1*%
X-560000Y-40000D02*
X-560000Y-7860000D01*
X-560000Y-1640000D02*
X360000Y-1640000D01*
X-560000Y-7860000D02*
X5560000Y-7860000D01*
X200000Y-4000000D02*
X200000Y-5600000D01*
X200000Y-5600000D02*
X1200000Y-5600000D01*
X360000Y-40000D02*
X-560000Y-40000D01*
X360000Y-1640000D02*
X360000Y-40000D01*
X640000Y-1640000D02*
X360000Y-1640000D01*
X640000Y-1640000D02*
X640000Y-425000D01*
X700000Y-5600000D02*
X700000Y-7860000D01*
X1200000Y-4000000D02*
X200000Y-4000000D01*
X1200000Y-5600000D02*
X1200000Y-4000000D01*
X1200000Y-5600000D02*
X1200000Y-7860000D01*
X2000000Y-3500000D02*
X3000000Y-3500000D01*
X2000000Y-7860000D02*
X2000000Y-3500000D01*
X3000000Y-3500000D02*
X3000000Y-7860000D01*
X3800000Y-4000000D02*
X4800000Y-4000000D01*
X3800000Y-5600000D02*
X3800000Y-4000000D01*
X4640000Y-40000D02*
X4640000Y-1640000D01*
X4640000Y-1640000D02*
X4360000Y-1640000D01*
X4800000Y-4000000D02*
X4800000Y-5600000D01*
X4800000Y-5600000D02*
X3800000Y-5600000D01*
X5560000Y-40000D02*
X4640000Y-40000D01*
X5560000Y-1640000D02*
X4640000Y-1640000D01*
X5560000Y-7860000D02*
X5560000Y-40000D01*
%TO.C,J11*%
X27040000Y-18060000D02*
X34860000Y-18060000D01*
X28640000Y-18060000D02*
X28640000Y-17140000D01*
X34860000Y-18060000D02*
X34860000Y-11940000D01*
X31000000Y-17300000D02*
X32600000Y-17300000D01*
X32600000Y-17300000D02*
X32600000Y-16300000D01*
X27040000Y-17140000D02*
X27040000Y-18060000D01*
X28640000Y-17140000D02*
X27040000Y-17140000D01*
X28640000Y-16860000D02*
X28640000Y-17140000D01*
X28640000Y-16860000D02*
X27425000Y-16860000D01*
X32600000Y-16800000D02*
X34860000Y-16800000D01*
X31000000Y-16300000D02*
X31000000Y-17300000D01*
X32600000Y-16300000D02*
X31000000Y-16300000D01*
X32600000Y-16300000D02*
X34860000Y-16300000D01*
X30500000Y-15500000D02*
X30500000Y-14500000D01*
X34860000Y-15500000D02*
X30500000Y-15500000D01*
X30500000Y-14500000D02*
X34860000Y-14500000D01*
X31000000Y-13700000D02*
X31000000Y-12700000D01*
X32600000Y-13700000D02*
X31000000Y-13700000D01*
X27040000Y-12860000D02*
X28640000Y-12860000D01*
X28640000Y-12860000D02*
X28640000Y-13140000D01*
X31000000Y-12700000D02*
X32600000Y-12700000D01*
X32600000Y-12700000D02*
X32600000Y-13700000D01*
X27040000Y-11940000D02*
X27040000Y-12860000D01*
X28640000Y-11940000D02*
X28640000Y-12860000D01*
X34860000Y-11940000D02*
X27040000Y-11940000D01*
%TO.C,J14*%
X10060000Y-39960000D02*
X10060000Y-32140000D01*
X10060000Y-38360000D02*
X9140000Y-38360000D01*
X10060000Y-32140000D02*
X-8060000Y-32140000D01*
X9300000Y-36000000D02*
X9300000Y-34400000D01*
X9300000Y-34400000D02*
X8300000Y-34400000D01*
X9140000Y-39960000D02*
X10060000Y-39960000D01*
X9140000Y-38360000D02*
X9140000Y-39960000D01*
X8860000Y-38360000D02*
X9140000Y-38360000D01*
X8860000Y-38360000D02*
X8860000Y-39575000D01*
X8800000Y-34400000D02*
X8800000Y-32140000D01*
X8300000Y-36000000D02*
X9300000Y-36000000D01*
X8300000Y-34400000D02*
X8300000Y-36000000D01*
X8300000Y-34400000D02*
X8300000Y-32140000D01*
X7500000Y-36500000D02*
X-5500000Y-36500000D01*
X7500000Y-32140000D02*
X7500000Y-36500000D01*
X-5500000Y-36500000D02*
X-5500000Y-32140000D01*
X-6300000Y-36000000D02*
X-7300000Y-36000000D01*
X-6300000Y-34400000D02*
X-6300000Y-36000000D01*
X-7140000Y-39960000D02*
X-7140000Y-38360000D01*
X-7140000Y-38360000D02*
X-6860000Y-38360000D01*
X-7300000Y-36000000D02*
X-7300000Y-34400000D01*
X-7300000Y-34400000D02*
X-6300000Y-34400000D01*
X-8060000Y-39960000D02*
X-7140000Y-39960000D01*
X-8060000Y-38360000D02*
X-7140000Y-38360000D01*
X-8060000Y-32140000D02*
X-8060000Y-39960000D01*
%TO.C,J8*%
X2960000Y-21940000D02*
X-4860000Y-21940000D01*
X1360000Y-21940000D02*
X1360000Y-22860000D01*
X-4860000Y-21940000D02*
X-4860000Y-28060000D01*
X-1000000Y-22700000D02*
X-2600000Y-22700000D01*
X-2600000Y-22700000D02*
X-2600000Y-23700000D01*
X2960000Y-22860000D02*
X2960000Y-21940000D01*
X1360000Y-22860000D02*
X2960000Y-22860000D01*
X1360000Y-23140000D02*
X1360000Y-22860000D01*
X1360000Y-23140000D02*
X2575000Y-23140000D01*
X-2600000Y-23200000D02*
X-4860000Y-23200000D01*
X-1000000Y-23700000D02*
X-1000000Y-22700000D01*
X-2600000Y-23700000D02*
X-1000000Y-23700000D01*
X-2600000Y-23700000D02*
X-4860000Y-23700000D01*
X-500000Y-24500000D02*
X-500000Y-25500000D01*
X-4860000Y-24500000D02*
X-500000Y-24500000D01*
X-500000Y-25500000D02*
X-4860000Y-25500000D01*
X-1000000Y-26300000D02*
X-1000000Y-27300000D01*
X-2600000Y-26300000D02*
X-1000000Y-26300000D01*
X2960000Y-27140000D02*
X1360000Y-27140000D01*
X1360000Y-27140000D02*
X1360000Y-26860000D01*
X-1000000Y-27300000D02*
X-2600000Y-27300000D01*
X-2600000Y-27300000D02*
X-2600000Y-26300000D01*
X2960000Y-28060000D02*
X2960000Y-27140000D01*
X1360000Y-28060000D02*
X1360000Y-27140000D01*
X-4860000Y-28060000D02*
X2960000Y-28060000D01*
%TO.C,J3*%
X11440000Y-40000D02*
X11440000Y-7860000D01*
X11440000Y-1640000D02*
X12360000Y-1640000D01*
X11440000Y-7860000D02*
X17560000Y-7860000D01*
X12200000Y-4000000D02*
X12200000Y-5600000D01*
X12200000Y-5600000D02*
X13200000Y-5600000D01*
X12360000Y-40000D02*
X11440000Y-40000D01*
X12360000Y-1640000D02*
X12360000Y-40000D01*
X12640000Y-1640000D02*
X12360000Y-1640000D01*
X12640000Y-1640000D02*
X12640000Y-425000D01*
X12700000Y-5600000D02*
X12700000Y-7860000D01*
X13200000Y-4000000D02*
X12200000Y-4000000D01*
X13200000Y-5600000D02*
X13200000Y-4000000D01*
X13200000Y-5600000D02*
X13200000Y-7860000D01*
X14000000Y-3500000D02*
X15000000Y-3500000D01*
X14000000Y-7860000D02*
X14000000Y-3500000D01*
X15000000Y-3500000D02*
X15000000Y-7860000D01*
X15800000Y-4000000D02*
X16800000Y-4000000D01*
X15800000Y-5600000D02*
X15800000Y-4000000D01*
X16640000Y-40000D02*
X16640000Y-1640000D01*
X16640000Y-1640000D02*
X16360000Y-1640000D01*
X16800000Y-4000000D02*
X16800000Y-5600000D01*
X16800000Y-5600000D02*
X15800000Y-5600000D01*
X17560000Y-40000D02*
X16640000Y-40000D01*
X17560000Y-1640000D02*
X16640000Y-1640000D01*
X17560000Y-7860000D02*
X17560000Y-40000D01*
%TO.C,J7*%
X2960000Y-13940000D02*
X-4860000Y-13940000D01*
X1360000Y-13940000D02*
X1360000Y-14860000D01*
X-4860000Y-13940000D02*
X-4860000Y-20060000D01*
X-1000000Y-14700000D02*
X-2600000Y-14700000D01*
X-2600000Y-14700000D02*
X-2600000Y-15700000D01*
X2960000Y-14860000D02*
X2960000Y-13940000D01*
X1360000Y-14860000D02*
X2960000Y-14860000D01*
X1360000Y-15140000D02*
X1360000Y-14860000D01*
X1360000Y-15140000D02*
X2575000Y-15140000D01*
X-2600000Y-15200000D02*
X-4860000Y-15200000D01*
X-1000000Y-15700000D02*
X-1000000Y-14700000D01*
X-2600000Y-15700000D02*
X-1000000Y-15700000D01*
X-2600000Y-15700000D02*
X-4860000Y-15700000D01*
X-500000Y-16500000D02*
X-500000Y-17500000D01*
X-4860000Y-16500000D02*
X-500000Y-16500000D01*
X-500000Y-17500000D02*
X-4860000Y-17500000D01*
X-1000000Y-18300000D02*
X-1000000Y-19300000D01*
X-2600000Y-18300000D02*
X-1000000Y-18300000D01*
X2960000Y-19140000D02*
X1360000Y-19140000D01*
X1360000Y-19140000D02*
X1360000Y-18860000D01*
X-1000000Y-19300000D02*
X-2600000Y-19300000D01*
X-2600000Y-19300000D02*
X-2600000Y-18300000D01*
X2960000Y-20060000D02*
X2960000Y-19140000D01*
X1360000Y-20060000D02*
X1360000Y-19140000D01*
X-4860000Y-20060000D02*
X2960000Y-20060000D01*
%TO.C,J13*%
X27040000Y-34060000D02*
X34860000Y-34060000D01*
X28640000Y-34060000D02*
X28640000Y-33140000D01*
X34860000Y-34060000D02*
X34860000Y-27940000D01*
X31000000Y-33300000D02*
X32600000Y-33300000D01*
X32600000Y-33300000D02*
X32600000Y-32300000D01*
X27040000Y-33140000D02*
X27040000Y-34060000D01*
X28640000Y-33140000D02*
X27040000Y-33140000D01*
X28640000Y-32860000D02*
X28640000Y-33140000D01*
X28640000Y-32860000D02*
X27425000Y-32860000D01*
X32600000Y-32800000D02*
X34860000Y-32800000D01*
X31000000Y-32300000D02*
X31000000Y-33300000D01*
X32600000Y-32300000D02*
X31000000Y-32300000D01*
X32600000Y-32300000D02*
X34860000Y-32300000D01*
X30500000Y-31500000D02*
X30500000Y-30500000D01*
X34860000Y-31500000D02*
X30500000Y-31500000D01*
X30500000Y-30500000D02*
X34860000Y-30500000D01*
X31000000Y-29700000D02*
X31000000Y-28700000D01*
X32600000Y-29700000D02*
X31000000Y-29700000D01*
X27040000Y-28860000D02*
X28640000Y-28860000D01*
X28640000Y-28860000D02*
X28640000Y-29140000D01*
X31000000Y-28700000D02*
X32600000Y-28700000D01*
X32600000Y-28700000D02*
X32600000Y-29700000D01*
X27040000Y-27940000D02*
X27040000Y-28860000D01*
X28640000Y-27940000D02*
X28640000Y-28860000D01*
X34860000Y-27940000D02*
X27040000Y-27940000D01*
%TO.C,JP1*%
X9230000Y-16730000D02*
X10500000Y-16730000D01*
X9230000Y-18000000D02*
X9230000Y-16730000D01*
X11542929Y-20160000D02*
X11940000Y-20160000D01*
X11542929Y-20920000D02*
X11940000Y-20920000D01*
X11542929Y-22700000D02*
X11940000Y-22700000D01*
X11542929Y-23460000D02*
X11940000Y-23460000D01*
X11610000Y-17620000D02*
X11940000Y-17620000D01*
X11610000Y-18380000D02*
X11940000Y-18380000D01*
X11940000Y-16670000D02*
X11940000Y-24410000D01*
X11940000Y-19270000D02*
X14600000Y-19270000D01*
X11940000Y-21810000D02*
X14600000Y-21810000D01*
X11940000Y-24410000D02*
X14600000Y-24410000D01*
X14600000Y-16670000D02*
X11940000Y-16670000D01*
X14600000Y-17620000D02*
X20600000Y-17620000D01*
X14600000Y-17680000D02*
X20600000Y-17680000D01*
X14600000Y-17800000D02*
X20600000Y-17800000D01*
X14600000Y-17920000D02*
X20600000Y-17920000D01*
X14600000Y-18040000D02*
X20600000Y-18040000D01*
X14600000Y-18160000D02*
X20600000Y-18160000D01*
X14600000Y-18280000D02*
X20600000Y-18280000D01*
X14600000Y-20160000D02*
X20600000Y-20160000D01*
X14600000Y-22700000D02*
X20600000Y-22700000D01*
X14600000Y-24410000D02*
X14600000Y-16670000D01*
X20600000Y-17620000D02*
X20600000Y-18380000D01*
X20600000Y-18380000D02*
X14600000Y-18380000D01*
X20600000Y-20160000D02*
X20600000Y-20920000D01*
X20600000Y-20920000D02*
X14600000Y-20920000D01*
X20600000Y-22700000D02*
X20600000Y-23460000D01*
X20600000Y-23460000D02*
X14600000Y-23460000D01*
%TO.C,J5*%
X23440000Y-40000D02*
X23440000Y-7860000D01*
X23440000Y-1640000D02*
X24360000Y-1640000D01*
X23440000Y-7860000D02*
X29560000Y-7860000D01*
X24200000Y-4000000D02*
X24200000Y-5600000D01*
X24200000Y-5600000D02*
X25200000Y-5600000D01*
X24360000Y-40000D02*
X23440000Y-40000D01*
X24360000Y-1640000D02*
X24360000Y-40000D01*
X24640000Y-1640000D02*
X24360000Y-1640000D01*
X24640000Y-1640000D02*
X24640000Y-425000D01*
X24700000Y-5600000D02*
X24700000Y-7860000D01*
X25200000Y-4000000D02*
X24200000Y-4000000D01*
X25200000Y-5600000D02*
X25200000Y-4000000D01*
X25200000Y-5600000D02*
X25200000Y-7860000D01*
X26000000Y-3500000D02*
X27000000Y-3500000D01*
X26000000Y-7860000D02*
X26000000Y-3500000D01*
X27000000Y-3500000D02*
X27000000Y-7860000D01*
X27800000Y-4000000D02*
X28800000Y-4000000D01*
X27800000Y-5600000D02*
X27800000Y-4000000D01*
X28640000Y-40000D02*
X28640000Y-1640000D01*
X28640000Y-1640000D02*
X28360000Y-1640000D01*
X28800000Y-4000000D02*
X28800000Y-5600000D01*
X28800000Y-5600000D02*
X27800000Y-5600000D01*
X29560000Y-40000D02*
X28640000Y-40000D01*
X29560000Y-1640000D02*
X28640000Y-1640000D01*
X29560000Y-7860000D02*
X29560000Y-40000D01*
%TO.C,JP3*%
X9230000Y-23730000D02*
X10500000Y-23730000D01*
X9230000Y-25000000D02*
X9230000Y-23730000D01*
X11542929Y-27160000D02*
X11940000Y-27160000D01*
X11542929Y-27920000D02*
X11940000Y-27920000D01*
X11542929Y-29700000D02*
X11940000Y-29700000D01*
X11542929Y-30460000D02*
X11940000Y-30460000D01*
X11610000Y-24620000D02*
X11940000Y-24620000D01*
X11610000Y-25380000D02*
X11940000Y-25380000D01*
X11940000Y-23670000D02*
X11940000Y-31410000D01*
X11940000Y-26270000D02*
X14600000Y-26270000D01*
X11940000Y-28810000D02*
X14600000Y-28810000D01*
X11940000Y-31410000D02*
X14600000Y-31410000D01*
X14600000Y-23670000D02*
X11940000Y-23670000D01*
X14600000Y-24620000D02*
X20600000Y-24620000D01*
X14600000Y-24680000D02*
X20600000Y-24680000D01*
X14600000Y-24800000D02*
X20600000Y-24800000D01*
X14600000Y-24920000D02*
X20600000Y-24920000D01*
X14600000Y-25040000D02*
X20600000Y-25040000D01*
X14600000Y-25160000D02*
X20600000Y-25160000D01*
X14600000Y-25280000D02*
X20600000Y-25280000D01*
X14600000Y-27160000D02*
X20600000Y-27160000D01*
X14600000Y-29700000D02*
X20600000Y-29700000D01*
X14600000Y-31410000D02*
X14600000Y-23670000D01*
X20600000Y-24620000D02*
X20600000Y-25380000D01*
X20600000Y-25380000D02*
X14600000Y-25380000D01*
X20600000Y-27160000D02*
X20600000Y-27920000D01*
X20600000Y-27920000D02*
X14600000Y-27920000D01*
X20600000Y-29700000D02*
X20600000Y-30460000D01*
X20600000Y-30460000D02*
X14600000Y-30460000D01*
%TO.C,JP2*%
X15670000Y-19670000D02*
X17000000Y-19670000D01*
X15670000Y-21000000D02*
X15670000Y-19670000D01*
X15670000Y-22270000D02*
X15670000Y-27410000D01*
X15670000Y-22270000D02*
X18270000Y-22270000D01*
X15670000Y-27410000D02*
X20870000Y-27410000D01*
X18270000Y-19670000D02*
X20870000Y-19670000D01*
X18270000Y-22270000D02*
X18270000Y-19670000D01*
X20870000Y-19670000D02*
X20870000Y-27410000D01*
%TO.C,J10*%
X27040000Y-10060000D02*
X34860000Y-10060000D01*
X28640000Y-10060000D02*
X28640000Y-9140000D01*
X34860000Y-10060000D02*
X34860000Y-3940000D01*
X31000000Y-9300000D02*
X32600000Y-9300000D01*
X32600000Y-9300000D02*
X32600000Y-8300000D01*
X27040000Y-9140000D02*
X27040000Y-10060000D01*
X28640000Y-9140000D02*
X27040000Y-9140000D01*
X28640000Y-8860000D02*
X28640000Y-9140000D01*
X28640000Y-8860000D02*
X27425000Y-8860000D01*
X32600000Y-8800000D02*
X34860000Y-8800000D01*
X31000000Y-8300000D02*
X31000000Y-9300000D01*
X32600000Y-8300000D02*
X31000000Y-8300000D01*
X32600000Y-8300000D02*
X34860000Y-8300000D01*
X30500000Y-7500000D02*
X30500000Y-6500000D01*
X34860000Y-7500000D02*
X30500000Y-7500000D01*
X30500000Y-6500000D02*
X34860000Y-6500000D01*
X31000000Y-5700000D02*
X31000000Y-4700000D01*
X32600000Y-5700000D02*
X31000000Y-5700000D01*
X27040000Y-4860000D02*
X28640000Y-4860000D01*
X28640000Y-4860000D02*
X28640000Y-5140000D01*
X31000000Y-4700000D02*
X32600000Y-4700000D01*
X32600000Y-4700000D02*
X32600000Y-5700000D01*
X27040000Y-3940000D02*
X27040000Y-4860000D01*
X28640000Y-3940000D02*
X28640000Y-4860000D01*
X34860000Y-3940000D02*
X27040000Y-3940000D01*
%TO.C,J9*%
X2960000Y-29940000D02*
X-4860000Y-29940000D01*
X1360000Y-29940000D02*
X1360000Y-30860000D01*
X-4860000Y-29940000D02*
X-4860000Y-36060000D01*
X-1000000Y-30700000D02*
X-2600000Y-30700000D01*
X-2600000Y-30700000D02*
X-2600000Y-31700000D01*
X2960000Y-30860000D02*
X2960000Y-29940000D01*
X1360000Y-30860000D02*
X2960000Y-30860000D01*
X1360000Y-31140000D02*
X1360000Y-30860000D01*
X1360000Y-31140000D02*
X2575000Y-31140000D01*
X-2600000Y-31200000D02*
X-4860000Y-31200000D01*
X-1000000Y-31700000D02*
X-1000000Y-30700000D01*
X-2600000Y-31700000D02*
X-1000000Y-31700000D01*
X-2600000Y-31700000D02*
X-4860000Y-31700000D01*
X-500000Y-32500000D02*
X-500000Y-33500000D01*
X-4860000Y-32500000D02*
X-500000Y-32500000D01*
X-500000Y-33500000D02*
X-4860000Y-33500000D01*
X-1000000Y-34300000D02*
X-1000000Y-35300000D01*
X-2600000Y-34300000D02*
X-1000000Y-34300000D01*
X2960000Y-35140000D02*
X1360000Y-35140000D01*
X1360000Y-35140000D02*
X1360000Y-34860000D01*
X-1000000Y-35300000D02*
X-2600000Y-35300000D01*
X-2600000Y-35300000D02*
X-2600000Y-34300000D01*
X2960000Y-36060000D02*
X2960000Y-35140000D01*
X1360000Y-36060000D02*
X1360000Y-35140000D01*
X-4860000Y-36060000D02*
X2960000Y-36060000D01*
%TO.C,J12*%
X27040000Y-26060000D02*
X34860000Y-26060000D01*
X28640000Y-26060000D02*
X28640000Y-25140000D01*
X34860000Y-26060000D02*
X34860000Y-19940000D01*
X31000000Y-25300000D02*
X32600000Y-25300000D01*
X32600000Y-25300000D02*
X32600000Y-24300000D01*
X27040000Y-25140000D02*
X27040000Y-26060000D01*
X28640000Y-25140000D02*
X27040000Y-25140000D01*
X28640000Y-24860000D02*
X28640000Y-25140000D01*
X28640000Y-24860000D02*
X27425000Y-24860000D01*
X32600000Y-24800000D02*
X34860000Y-24800000D01*
X31000000Y-24300000D02*
X31000000Y-25300000D01*
X32600000Y-24300000D02*
X31000000Y-24300000D01*
X32600000Y-24300000D02*
X34860000Y-24300000D01*
X30500000Y-23500000D02*
X30500000Y-22500000D01*
X34860000Y-23500000D02*
X30500000Y-23500000D01*
X30500000Y-22500000D02*
X34860000Y-22500000D01*
X31000000Y-21700000D02*
X31000000Y-20700000D01*
X32600000Y-21700000D02*
X31000000Y-21700000D01*
X27040000Y-20860000D02*
X28640000Y-20860000D01*
X28640000Y-20860000D02*
X28640000Y-21140000D01*
X31000000Y-20700000D02*
X32600000Y-20700000D01*
X32600000Y-20700000D02*
X32600000Y-21700000D01*
X27040000Y-19940000D02*
X27040000Y-20860000D01*
X28640000Y-19940000D02*
X28640000Y-20860000D01*
X34860000Y-19940000D02*
X27040000Y-19940000D01*
%TO.C,J6*%
X2960000Y-5940000D02*
X-4860000Y-5940000D01*
X1360000Y-5940000D02*
X1360000Y-6860000D01*
X-4860000Y-5940000D02*
X-4860000Y-12060000D01*
X-1000000Y-6700000D02*
X-2600000Y-6700000D01*
X-2600000Y-6700000D02*
X-2600000Y-7700000D01*
X2960000Y-6860000D02*
X2960000Y-5940000D01*
X1360000Y-6860000D02*
X2960000Y-6860000D01*
X1360000Y-7140000D02*
X1360000Y-6860000D01*
X1360000Y-7140000D02*
X2575000Y-7140000D01*
X-2600000Y-7200000D02*
X-4860000Y-7200000D01*
X-1000000Y-7700000D02*
X-1000000Y-6700000D01*
X-2600000Y-7700000D02*
X-1000000Y-7700000D01*
X-2600000Y-7700000D02*
X-4860000Y-7700000D01*
X-500000Y-8500000D02*
X-500000Y-9500000D01*
X-4860000Y-8500000D02*
X-500000Y-8500000D01*
X-500000Y-9500000D02*
X-4860000Y-9500000D01*
X-1000000Y-10300000D02*
X-1000000Y-11300000D01*
X-2600000Y-10300000D02*
X-1000000Y-10300000D01*
X2960000Y-11140000D02*
X1360000Y-11140000D01*
X1360000Y-11140000D02*
X1360000Y-10860000D01*
X-1000000Y-11300000D02*
X-2600000Y-11300000D01*
X-2600000Y-11300000D02*
X-2600000Y-10300000D01*
X2960000Y-12060000D02*
X2960000Y-11140000D01*
X1360000Y-12060000D02*
X1360000Y-11140000D01*
X-4860000Y-12060000D02*
X2960000Y-12060000D01*
%TO.C,J2*%
X5440000Y-40000D02*
X5440000Y-7860000D01*
X5440000Y-1640000D02*
X6360000Y-1640000D01*
X5440000Y-7860000D02*
X11560000Y-7860000D01*
X6200000Y-4000000D02*
X6200000Y-5600000D01*
X6200000Y-5600000D02*
X7200000Y-5600000D01*
X6360000Y-40000D02*
X5440000Y-40000D01*
X6360000Y-1640000D02*
X6360000Y-40000D01*
X6640000Y-1640000D02*
X6360000Y-1640000D01*
X6640000Y-1640000D02*
X6640000Y-425000D01*
X6700000Y-5600000D02*
X6700000Y-7860000D01*
X7200000Y-4000000D02*
X6200000Y-4000000D01*
X7200000Y-5600000D02*
X7200000Y-4000000D01*
X7200000Y-5600000D02*
X7200000Y-7860000D01*
X8000000Y-3500000D02*
X9000000Y-3500000D01*
X8000000Y-7860000D02*
X8000000Y-3500000D01*
X9000000Y-3500000D02*
X9000000Y-7860000D01*
X9800000Y-4000000D02*
X10800000Y-4000000D01*
X9800000Y-5600000D02*
X9800000Y-4000000D01*
X10640000Y-40000D02*
X10640000Y-1640000D01*
X10640000Y-1640000D02*
X10360000Y-1640000D01*
X10800000Y-4000000D02*
X10800000Y-5600000D01*
X10800000Y-5600000D02*
X9800000Y-5600000D01*
X11560000Y-40000D02*
X10640000Y-40000D01*
X11560000Y-1640000D02*
X10640000Y-1640000D01*
X11560000Y-7860000D02*
X11560000Y-40000D01*
%TO.C,J4*%
X17440000Y-40000D02*
X17440000Y-7860000D01*
X17440000Y-1640000D02*
X18360000Y-1640000D01*
X17440000Y-7860000D02*
X23560000Y-7860000D01*
X18200000Y-4000000D02*
X18200000Y-5600000D01*
X18200000Y-5600000D02*
X19200000Y-5600000D01*
X18360000Y-40000D02*
X17440000Y-40000D01*
X18360000Y-1640000D02*
X18360000Y-40000D01*
X18640000Y-1640000D02*
X18360000Y-1640000D01*
X18640000Y-1640000D02*
X18640000Y-425000D01*
X18700000Y-5600000D02*
X18700000Y-7860000D01*
X19200000Y-4000000D02*
X18200000Y-4000000D01*
X19200000Y-5600000D02*
X19200000Y-4000000D01*
X19200000Y-5600000D02*
X19200000Y-7860000D01*
X20000000Y-3500000D02*
X21000000Y-3500000D01*
X20000000Y-7860000D02*
X20000000Y-3500000D01*
X21000000Y-3500000D02*
X21000000Y-7860000D01*
X21800000Y-4000000D02*
X22800000Y-4000000D01*
X21800000Y-5600000D02*
X21800000Y-4000000D01*
X22640000Y-40000D02*
X22640000Y-1640000D01*
X22640000Y-1640000D02*
X22360000Y-1640000D01*
X22800000Y-4000000D02*
X22800000Y-5600000D01*
X22800000Y-5600000D02*
X21800000Y-5600000D01*
X23560000Y-40000D02*
X22640000Y-40000D01*
X23560000Y-1640000D02*
X22640000Y-1640000D01*
X23560000Y-7860000D02*
X23560000Y-40000D01*
%TD*%
M02*
