%TF.GenerationSoftware,KiCad,Pcbnew,7.0.11+dfsg-1build4*%
%TF.CreationDate,2026-08-21T13:54:33+02:00*%
%TF.ProjectId,pcb-svetla-mn98,7063622d-7376-4657-946c-612d6d6e3938,rev?*%
%TF.SameCoordinates,Original*%
%TF.FileFunction,Legend,Top*%
%TF.FilePolarity,Positive*%
%FSLAX46Y46*%
G04 Gerber Fmt 4.6, Leading zero omitted, Abs format (unit mm)*
G04 Created by KiCad (PCBNEW 7.0.11+dfsg-1build4) date 2026-08-21 13:54:33*
%MOMM*%
%LPD*%
G01*
G04 APERTURE LIST*
%ADD10C,0.150000*%
%ADD11C,0.137500*%
%ADD12C,0.120000*%
G04 APERTURE END LIST*
D10*
X134320000Y-67180000D02*
X134320000Y-78280000D01*
X152720000Y-84680000D02*
X152720000Y-68180000D01*
X159320000Y-68180000D02*
X159320000Y-84680000D01*
X128420000Y-67180000D02*
X134320000Y-67180000D01*
X134320000Y-91480000D02*
X128420000Y-91480000D01*
X128420000Y-78280000D02*
X128420000Y-67180000D01*
X128420000Y-91480000D02*
X128420000Y-76180000D01*
X128420000Y-76180000D02*
X134320000Y-76180000D01*
X159320000Y-84680000D02*
X152720000Y-84680000D01*
X134320000Y-78280000D02*
X128420000Y-78280000D01*
X152720000Y-68180000D02*
X159320000Y-68180000D01*
X134320000Y-76180000D02*
X134320000Y-91480000D01*
X129648571Y-75288557D02*
X129648571Y-74388557D01*
X129648571Y-74388557D02*
X129948571Y-75031414D01*
X129948571Y-75031414D02*
X130248571Y-74388557D01*
X130248571Y-74388557D02*
X130248571Y-75288557D01*
X130634285Y-75031414D02*
X131062857Y-75031414D01*
X130548571Y-75288557D02*
X130848571Y-74388557D01*
X130848571Y-74388557D02*
X131148571Y-75288557D01*
X131448571Y-75288557D02*
X131448571Y-74388557D01*
X131877142Y-75288557D02*
X131877142Y-74388557D01*
X131877142Y-74388557D02*
X132391428Y-75288557D01*
X132391428Y-75288557D02*
X132391428Y-74388557D01*
X133868809Y-88822902D02*
X133868809Y-89287188D01*
X133868809Y-89287188D02*
X133837856Y-89380045D01*
X133837856Y-89380045D02*
X133775952Y-89441950D01*
X133775952Y-89441950D02*
X133683094Y-89472902D01*
X133683094Y-89472902D02*
X133621190Y-89472902D01*
X134518809Y-89472902D02*
X134147380Y-89472902D01*
X134333094Y-89472902D02*
X134333094Y-88822902D01*
X134333094Y-88822902D02*
X134271190Y-88915759D01*
X134271190Y-88915759D02*
X134209285Y-88977664D01*
X134209285Y-88977664D02*
X134147380Y-89008616D01*
X135075952Y-89039569D02*
X135075952Y-89472902D01*
X134921190Y-88791950D02*
X134766428Y-89256235D01*
X134766428Y-89256235D02*
X135168809Y-89256235D01*
X135911666Y-89472902D02*
X135911666Y-88822902D01*
X135911666Y-88822902D02*
X136159285Y-88822902D01*
X136159285Y-88822902D02*
X136221190Y-88853854D01*
X136221190Y-88853854D02*
X136252143Y-88884807D01*
X136252143Y-88884807D02*
X136283095Y-88946711D01*
X136283095Y-88946711D02*
X136283095Y-89039569D01*
X136283095Y-89039569D02*
X136252143Y-89101473D01*
X136252143Y-89101473D02*
X136221190Y-89132426D01*
X136221190Y-89132426D02*
X136159285Y-89163378D01*
X136159285Y-89163378D02*
X135911666Y-89163378D01*
X136561666Y-89472902D02*
X136561666Y-88822902D01*
X136871190Y-89472902D02*
X136871190Y-88822902D01*
X136871190Y-88822902D02*
X137242619Y-89472902D01*
X137242619Y-89472902D02*
X137242619Y-88822902D01*
X138387857Y-89472902D02*
X138016428Y-89472902D01*
X138202142Y-89472902D02*
X138202142Y-88822902D01*
X138202142Y-88822902D02*
X138140238Y-88915759D01*
X138140238Y-88915759D02*
X138078333Y-88977664D01*
X138078333Y-88977664D02*
X138016428Y-89008616D01*
D11*
X133949756Y-105427290D02*
X133949756Y-104877290D01*
X133949756Y-104877290D02*
X134159280Y-104877290D01*
X134159280Y-104877290D02*
X134211661Y-104903480D01*
X134211661Y-104903480D02*
X134237851Y-104929671D01*
X134237851Y-104929671D02*
X134264042Y-104982052D01*
X134264042Y-104982052D02*
X134264042Y-105060623D01*
X134264042Y-105060623D02*
X134237851Y-105113004D01*
X134237851Y-105113004D02*
X134211661Y-105139195D01*
X134211661Y-105139195D02*
X134159280Y-105165385D01*
X134159280Y-105165385D02*
X133949756Y-105165385D01*
X134735470Y-104877290D02*
X134630708Y-104877290D01*
X134630708Y-104877290D02*
X134578327Y-104903480D01*
X134578327Y-104903480D02*
X134552137Y-104929671D01*
X134552137Y-104929671D02*
X134499756Y-105008242D01*
X134499756Y-105008242D02*
X134473565Y-105113004D01*
X134473565Y-105113004D02*
X134473565Y-105322528D01*
X134473565Y-105322528D02*
X134499756Y-105374909D01*
X134499756Y-105374909D02*
X134525946Y-105401100D01*
X134525946Y-105401100D02*
X134578327Y-105427290D01*
X134578327Y-105427290D02*
X134683089Y-105427290D01*
X134683089Y-105427290D02*
X134735470Y-105401100D01*
X134735470Y-105401100D02*
X134761661Y-105374909D01*
X134761661Y-105374909D02*
X134787851Y-105322528D01*
X134787851Y-105322528D02*
X134787851Y-105191576D01*
X134787851Y-105191576D02*
X134761661Y-105139195D01*
X134761661Y-105139195D02*
X134735470Y-105113004D01*
X134735470Y-105113004D02*
X134683089Y-105086814D01*
X134683089Y-105086814D02*
X134578327Y-105086814D01*
X134578327Y-105086814D02*
X134525946Y-105113004D01*
X134525946Y-105113004D02*
X134499756Y-105139195D01*
X134499756Y-105139195D02*
X134473565Y-105191576D01*
X135023566Y-105427290D02*
X135023566Y-104877290D01*
X135023566Y-104877290D02*
X135154518Y-104877290D01*
X135154518Y-104877290D02*
X135233090Y-104903480D01*
X135233090Y-104903480D02*
X135285471Y-104955861D01*
X135285471Y-104955861D02*
X135311661Y-105008242D01*
X135311661Y-105008242D02*
X135337852Y-105113004D01*
X135337852Y-105113004D02*
X135337852Y-105191576D01*
X135337852Y-105191576D02*
X135311661Y-105296338D01*
X135311661Y-105296338D02*
X135285471Y-105348719D01*
X135285471Y-105348719D02*
X135233090Y-105401100D01*
X135233090Y-105401100D02*
X135154518Y-105427290D01*
X135154518Y-105427290D02*
X135023566Y-105427290D01*
X135887852Y-105374909D02*
X135861661Y-105401100D01*
X135861661Y-105401100D02*
X135783090Y-105427290D01*
X135783090Y-105427290D02*
X135730709Y-105427290D01*
X135730709Y-105427290D02*
X135652137Y-105401100D01*
X135652137Y-105401100D02*
X135599756Y-105348719D01*
X135599756Y-105348719D02*
X135573566Y-105296338D01*
X135573566Y-105296338D02*
X135547375Y-105191576D01*
X135547375Y-105191576D02*
X135547375Y-105113004D01*
X135547375Y-105113004D02*
X135573566Y-105008242D01*
X135573566Y-105008242D02*
X135599756Y-104955861D01*
X135599756Y-104955861D02*
X135652137Y-104903480D01*
X135652137Y-104903480D02*
X135730709Y-104877290D01*
X135730709Y-104877290D02*
X135783090Y-104877290D01*
X135783090Y-104877290D02*
X135861661Y-104903480D01*
X135861661Y-104903480D02*
X135887852Y-104929671D01*
X136123566Y-105374909D02*
X136149756Y-105401100D01*
X136149756Y-105401100D02*
X136123566Y-105427290D01*
X136123566Y-105427290D02*
X136097375Y-105401100D01*
X136097375Y-105401100D02*
X136123566Y-105374909D01*
X136123566Y-105374909D02*
X136123566Y-105427290D01*
X136123566Y-105086814D02*
X136149756Y-105113004D01*
X136149756Y-105113004D02*
X136123566Y-105139195D01*
X136123566Y-105139195D02*
X136097375Y-105113004D01*
X136097375Y-105113004D02*
X136123566Y-105086814D01*
X136123566Y-105086814D02*
X136123566Y-105139195D01*
X137092614Y-105427290D02*
X136778328Y-105427290D01*
X136935471Y-105427290D02*
X136935471Y-104877290D01*
X136935471Y-104877290D02*
X136883090Y-104955861D01*
X136883090Y-104955861D02*
X136830709Y-105008242D01*
X136830709Y-105008242D02*
X136778328Y-105034433D01*
X137721186Y-104851100D02*
X137249757Y-105558242D01*
X137878328Y-104929671D02*
X137904519Y-104903480D01*
X137904519Y-104903480D02*
X137956900Y-104877290D01*
X137956900Y-104877290D02*
X138087852Y-104877290D01*
X138087852Y-104877290D02*
X138140233Y-104903480D01*
X138140233Y-104903480D02*
X138166424Y-104929671D01*
X138166424Y-104929671D02*
X138192614Y-104982052D01*
X138192614Y-104982052D02*
X138192614Y-105034433D01*
X138192614Y-105034433D02*
X138166424Y-105113004D01*
X138166424Y-105113004D02*
X137852138Y-105427290D01*
X137852138Y-105427290D02*
X138192614Y-105427290D01*
X138847377Y-105217766D02*
X139266425Y-105217766D01*
X139056901Y-105427290D02*
X139056901Y-105008242D01*
X139554519Y-105401100D02*
X139554519Y-105427290D01*
X139554519Y-105427290D02*
X139528329Y-105479671D01*
X139528329Y-105479671D02*
X139502138Y-105505861D01*
X140156901Y-104877290D02*
X140497377Y-104877290D01*
X140497377Y-104877290D02*
X140314044Y-105086814D01*
X140314044Y-105086814D02*
X140392615Y-105086814D01*
X140392615Y-105086814D02*
X140444996Y-105113004D01*
X140444996Y-105113004D02*
X140471187Y-105139195D01*
X140471187Y-105139195D02*
X140497377Y-105191576D01*
X140497377Y-105191576D02*
X140497377Y-105322528D01*
X140497377Y-105322528D02*
X140471187Y-105374909D01*
X140471187Y-105374909D02*
X140444996Y-105401100D01*
X140444996Y-105401100D02*
X140392615Y-105427290D01*
X140392615Y-105427290D02*
X140235472Y-105427290D01*
X140235472Y-105427290D02*
X140183091Y-105401100D01*
X140183091Y-105401100D02*
X140156901Y-105374909D01*
X141414045Y-105427290D02*
X141152140Y-105427290D01*
X141152140Y-105427290D02*
X141152140Y-104877290D01*
X141623568Y-105401100D02*
X141623568Y-105427290D01*
X141623568Y-105427290D02*
X141597378Y-105479671D01*
X141597378Y-105479671D02*
X141571187Y-105505861D01*
X142514045Y-105060623D02*
X142514045Y-105427290D01*
X142383093Y-104851100D02*
X142252140Y-105243957D01*
X142252140Y-105243957D02*
X142592617Y-105243957D01*
X143535475Y-105427290D02*
X143352141Y-105165385D01*
X143221189Y-105427290D02*
X143221189Y-104877290D01*
X143221189Y-104877290D02*
X143430713Y-104877290D01*
X143430713Y-104877290D02*
X143483094Y-104903480D01*
X143483094Y-104903480D02*
X143509284Y-104929671D01*
X143509284Y-104929671D02*
X143535475Y-104982052D01*
X143535475Y-104982052D02*
X143535475Y-105060623D01*
X143535475Y-105060623D02*
X143509284Y-105113004D01*
X143509284Y-105113004D02*
X143483094Y-105139195D01*
X143483094Y-105139195D02*
X143430713Y-105165385D01*
X143430713Y-105165385D02*
X143221189Y-105165385D01*
X143797379Y-105401100D02*
X143797379Y-105427290D01*
X143797379Y-105427290D02*
X143771189Y-105479671D01*
X143771189Y-105479671D02*
X143744998Y-105505861D01*
X144714047Y-104877290D02*
X144452142Y-104877290D01*
X144452142Y-104877290D02*
X144425951Y-105139195D01*
X144425951Y-105139195D02*
X144452142Y-105113004D01*
X144452142Y-105113004D02*
X144504523Y-105086814D01*
X144504523Y-105086814D02*
X144635475Y-105086814D01*
X144635475Y-105086814D02*
X144687856Y-105113004D01*
X144687856Y-105113004D02*
X144714047Y-105139195D01*
X144714047Y-105139195D02*
X144740237Y-105191576D01*
X144740237Y-105191576D02*
X144740237Y-105322528D01*
X144740237Y-105322528D02*
X144714047Y-105374909D01*
X144714047Y-105374909D02*
X144687856Y-105401100D01*
X144687856Y-105401100D02*
X144635475Y-105427290D01*
X144635475Y-105427290D02*
X144504523Y-105427290D01*
X144504523Y-105427290D02*
X144452142Y-105401100D01*
X144452142Y-105401100D02*
X144425951Y-105374909D01*
X145578333Y-105139195D02*
X145656905Y-105165385D01*
X145656905Y-105165385D02*
X145683095Y-105191576D01*
X145683095Y-105191576D02*
X145709286Y-105243957D01*
X145709286Y-105243957D02*
X145709286Y-105322528D01*
X145709286Y-105322528D02*
X145683095Y-105374909D01*
X145683095Y-105374909D02*
X145656905Y-105401100D01*
X145656905Y-105401100D02*
X145604524Y-105427290D01*
X145604524Y-105427290D02*
X145395000Y-105427290D01*
X145395000Y-105427290D02*
X145395000Y-104877290D01*
X145395000Y-104877290D02*
X145578333Y-104877290D01*
X145578333Y-104877290D02*
X145630714Y-104903480D01*
X145630714Y-104903480D02*
X145656905Y-104929671D01*
X145656905Y-104929671D02*
X145683095Y-104982052D01*
X145683095Y-104982052D02*
X145683095Y-105034433D01*
X145683095Y-105034433D02*
X145656905Y-105086814D01*
X145656905Y-105086814D02*
X145630714Y-105113004D01*
X145630714Y-105113004D02*
X145578333Y-105139195D01*
X145578333Y-105139195D02*
X145395000Y-105139195D01*
X145971190Y-105401100D02*
X145971190Y-105427290D01*
X145971190Y-105427290D02*
X145945000Y-105479671D01*
X145945000Y-105479671D02*
X145918809Y-105505861D01*
X146861667Y-104877290D02*
X146756905Y-104877290D01*
X146756905Y-104877290D02*
X146704524Y-104903480D01*
X146704524Y-104903480D02*
X146678334Y-104929671D01*
X146678334Y-104929671D02*
X146625953Y-105008242D01*
X146625953Y-105008242D02*
X146599762Y-105113004D01*
X146599762Y-105113004D02*
X146599762Y-105322528D01*
X146599762Y-105322528D02*
X146625953Y-105374909D01*
X146625953Y-105374909D02*
X146652143Y-105401100D01*
X146652143Y-105401100D02*
X146704524Y-105427290D01*
X146704524Y-105427290D02*
X146809286Y-105427290D01*
X146809286Y-105427290D02*
X146861667Y-105401100D01*
X146861667Y-105401100D02*
X146887858Y-105374909D01*
X146887858Y-105374909D02*
X146914048Y-105322528D01*
X146914048Y-105322528D02*
X146914048Y-105191576D01*
X146914048Y-105191576D02*
X146887858Y-105139195D01*
X146887858Y-105139195D02*
X146861667Y-105113004D01*
X146861667Y-105113004D02*
X146809286Y-105086814D01*
X146809286Y-105086814D02*
X146704524Y-105086814D01*
X146704524Y-105086814D02*
X146652143Y-105113004D01*
X146652143Y-105113004D02*
X146625953Y-105139195D01*
X146625953Y-105139195D02*
X146599762Y-105191576D01*
X147752144Y-105139195D02*
X147568811Y-105139195D01*
X147568811Y-105427290D02*
X147568811Y-104877290D01*
X147568811Y-104877290D02*
X147830716Y-104877290D01*
X148066430Y-105401100D02*
X148066430Y-105427290D01*
X148066430Y-105427290D02*
X148040240Y-105479671D01*
X148040240Y-105479671D02*
X148014049Y-105505861D01*
X148668812Y-104877290D02*
X149035479Y-104877290D01*
X149035479Y-104877290D02*
X148799764Y-105427290D01*
X149978337Y-105427290D02*
X149795003Y-105165385D01*
X149664051Y-105427290D02*
X149664051Y-104877290D01*
X149664051Y-104877290D02*
X149873575Y-104877290D01*
X149873575Y-104877290D02*
X149925956Y-104903480D01*
X149925956Y-104903480D02*
X149952146Y-104929671D01*
X149952146Y-104929671D02*
X149978337Y-104982052D01*
X149978337Y-104982052D02*
X149978337Y-105060623D01*
X149978337Y-105060623D02*
X149952146Y-105113004D01*
X149952146Y-105113004D02*
X149925956Y-105139195D01*
X149925956Y-105139195D02*
X149873575Y-105165385D01*
X149873575Y-105165385D02*
X149664051Y-105165385D01*
X150214051Y-105139195D02*
X150397384Y-105139195D01*
X150475956Y-105427290D02*
X150214051Y-105427290D01*
X150214051Y-105427290D02*
X150214051Y-104877290D01*
X150214051Y-104877290D02*
X150475956Y-104877290D01*
X150633098Y-104877290D02*
X150816432Y-105427290D01*
X150816432Y-105427290D02*
X150999765Y-104877290D01*
X151209289Y-105401100D02*
X151209289Y-105427290D01*
X151209289Y-105427290D02*
X151183099Y-105479671D01*
X151183099Y-105479671D02*
X151156908Y-105505861D01*
X151942623Y-105113004D02*
X151890242Y-105086814D01*
X151890242Y-105086814D02*
X151864052Y-105060623D01*
X151864052Y-105060623D02*
X151837861Y-105008242D01*
X151837861Y-105008242D02*
X151837861Y-104982052D01*
X151837861Y-104982052D02*
X151864052Y-104929671D01*
X151864052Y-104929671D02*
X151890242Y-104903480D01*
X151890242Y-104903480D02*
X151942623Y-104877290D01*
X151942623Y-104877290D02*
X152047385Y-104877290D01*
X152047385Y-104877290D02*
X152099766Y-104903480D01*
X152099766Y-104903480D02*
X152125957Y-104929671D01*
X152125957Y-104929671D02*
X152152147Y-104982052D01*
X152152147Y-104982052D02*
X152152147Y-105008242D01*
X152152147Y-105008242D02*
X152125957Y-105060623D01*
X152125957Y-105060623D02*
X152099766Y-105086814D01*
X152099766Y-105086814D02*
X152047385Y-105113004D01*
X152047385Y-105113004D02*
X151942623Y-105113004D01*
X151942623Y-105113004D02*
X151890242Y-105139195D01*
X151890242Y-105139195D02*
X151864052Y-105165385D01*
X151864052Y-105165385D02*
X151837861Y-105217766D01*
X151837861Y-105217766D02*
X151837861Y-105322528D01*
X151837861Y-105322528D02*
X151864052Y-105374909D01*
X151864052Y-105374909D02*
X151890242Y-105401100D01*
X151890242Y-105401100D02*
X151942623Y-105427290D01*
X151942623Y-105427290D02*
X152047385Y-105427290D01*
X152047385Y-105427290D02*
X152099766Y-105401100D01*
X152099766Y-105401100D02*
X152125957Y-105374909D01*
X152125957Y-105374909D02*
X152152147Y-105322528D01*
X152152147Y-105322528D02*
X152152147Y-105217766D01*
X152152147Y-105217766D02*
X152125957Y-105165385D01*
X152125957Y-105165385D02*
X152099766Y-105139195D01*
X152099766Y-105139195D02*
X152047385Y-105113004D01*
X152806910Y-105427290D02*
X152806910Y-104877290D01*
X152806910Y-104877290D02*
X152937862Y-104877290D01*
X152937862Y-104877290D02*
X153016434Y-104903480D01*
X153016434Y-104903480D02*
X153068815Y-104955861D01*
X153068815Y-104955861D02*
X153095005Y-105008242D01*
X153095005Y-105008242D02*
X153121196Y-105113004D01*
X153121196Y-105113004D02*
X153121196Y-105191576D01*
X153121196Y-105191576D02*
X153095005Y-105296338D01*
X153095005Y-105296338D02*
X153068815Y-105348719D01*
X153068815Y-105348719D02*
X153016434Y-105401100D01*
X153016434Y-105401100D02*
X152937862Y-105427290D01*
X152937862Y-105427290D02*
X152806910Y-105427290D01*
X153671196Y-105427290D02*
X153487862Y-105165385D01*
X153356910Y-105427290D02*
X153356910Y-104877290D01*
X153356910Y-104877290D02*
X153566434Y-104877290D01*
X153566434Y-104877290D02*
X153618815Y-104903480D01*
X153618815Y-104903480D02*
X153645005Y-104929671D01*
X153645005Y-104929671D02*
X153671196Y-104982052D01*
X153671196Y-104982052D02*
X153671196Y-105060623D01*
X153671196Y-105060623D02*
X153645005Y-105113004D01*
X153645005Y-105113004D02*
X153618815Y-105139195D01*
X153618815Y-105139195D02*
X153566434Y-105165385D01*
X153566434Y-105165385D02*
X153356910Y-105165385D01*
X154168815Y-105427290D02*
X153906910Y-105427290D01*
X153906910Y-105427290D02*
X153906910Y-104877290D01*
D10*
X129370000Y-65688557D02*
X129884286Y-65688557D01*
X129627143Y-66588557D02*
X129627143Y-65688557D01*
X130184285Y-65688557D02*
X130184285Y-66417128D01*
X130184285Y-66417128D02*
X130227142Y-66502842D01*
X130227142Y-66502842D02*
X130270000Y-66545700D01*
X130270000Y-66545700D02*
X130355714Y-66588557D01*
X130355714Y-66588557D02*
X130527142Y-66588557D01*
X130527142Y-66588557D02*
X130612857Y-66545700D01*
X130612857Y-66545700D02*
X130655714Y-66502842D01*
X130655714Y-66502842D02*
X130698571Y-66417128D01*
X130698571Y-66417128D02*
X130698571Y-65688557D01*
X131641428Y-66588557D02*
X131341428Y-66159985D01*
X131127142Y-66588557D02*
X131127142Y-65688557D01*
X131127142Y-65688557D02*
X131469999Y-65688557D01*
X131469999Y-65688557D02*
X131555714Y-65731414D01*
X131555714Y-65731414D02*
X131598571Y-65774271D01*
X131598571Y-65774271D02*
X131641428Y-65859985D01*
X131641428Y-65859985D02*
X131641428Y-65988557D01*
X131641428Y-65988557D02*
X131598571Y-66074271D01*
X131598571Y-66074271D02*
X131555714Y-66117128D01*
X131555714Y-66117128D02*
X131469999Y-66159985D01*
X131469999Y-66159985D02*
X131127142Y-66159985D01*
X132027142Y-66588557D02*
X132027142Y-65688557D01*
X132027142Y-65688557D02*
X132541428Y-66588557D01*
X132541428Y-66588557D02*
X132541428Y-65688557D01*
D11*
X135757766Y-91002619D02*
X135757766Y-90583572D01*
X135967290Y-90793095D02*
X135548242Y-90793095D01*
X135967290Y-89902619D02*
X135417290Y-89902619D01*
X135417290Y-89902619D02*
X135417290Y-89771667D01*
X135417290Y-89771667D02*
X135443480Y-89693095D01*
X135443480Y-89693095D02*
X135495861Y-89640714D01*
X135495861Y-89640714D02*
X135548242Y-89614524D01*
X135548242Y-89614524D02*
X135653004Y-89588333D01*
X135653004Y-89588333D02*
X135731576Y-89588333D01*
X135731576Y-89588333D02*
X135836338Y-89614524D01*
X135836338Y-89614524D02*
X135888719Y-89640714D01*
X135888719Y-89640714D02*
X135941100Y-89693095D01*
X135941100Y-89693095D02*
X135967290Y-89771667D01*
X135967290Y-89771667D02*
X135967290Y-89902619D01*
X135967290Y-89038333D02*
X135705385Y-89221667D01*
X135967290Y-89352619D02*
X135417290Y-89352619D01*
X135417290Y-89352619D02*
X135417290Y-89143095D01*
X135417290Y-89143095D02*
X135443480Y-89090714D01*
X135443480Y-89090714D02*
X135469671Y-89064524D01*
X135469671Y-89064524D02*
X135522052Y-89038333D01*
X135522052Y-89038333D02*
X135600623Y-89038333D01*
X135600623Y-89038333D02*
X135653004Y-89064524D01*
X135653004Y-89064524D02*
X135679195Y-89090714D01*
X135679195Y-89090714D02*
X135705385Y-89143095D01*
X135705385Y-89143095D02*
X135705385Y-89352619D01*
X135967290Y-88540714D02*
X135967290Y-88802619D01*
X135967290Y-88802619D02*
X135417290Y-88802619D01*
X135757766Y-87100237D02*
X135757766Y-86681190D01*
X135967290Y-86890713D02*
X135548242Y-86890713D01*
X135679195Y-85816904D02*
X135705385Y-85738332D01*
X135705385Y-85738332D02*
X135731576Y-85712142D01*
X135731576Y-85712142D02*
X135783957Y-85685951D01*
X135783957Y-85685951D02*
X135862528Y-85685951D01*
X135862528Y-85685951D02*
X135914909Y-85712142D01*
X135914909Y-85712142D02*
X135941100Y-85738332D01*
X135941100Y-85738332D02*
X135967290Y-85790713D01*
X135967290Y-85790713D02*
X135967290Y-86000237D01*
X135967290Y-86000237D02*
X135417290Y-86000237D01*
X135417290Y-86000237D02*
X135417290Y-85816904D01*
X135417290Y-85816904D02*
X135443480Y-85764523D01*
X135443480Y-85764523D02*
X135469671Y-85738332D01*
X135469671Y-85738332D02*
X135522052Y-85712142D01*
X135522052Y-85712142D02*
X135574433Y-85712142D01*
X135574433Y-85712142D02*
X135626814Y-85738332D01*
X135626814Y-85738332D02*
X135653004Y-85764523D01*
X135653004Y-85764523D02*
X135679195Y-85816904D01*
X135679195Y-85816904D02*
X135679195Y-86000237D01*
X135967290Y-85135951D02*
X135705385Y-85319285D01*
X135967290Y-85450237D02*
X135417290Y-85450237D01*
X135417290Y-85450237D02*
X135417290Y-85240713D01*
X135417290Y-85240713D02*
X135443480Y-85188332D01*
X135443480Y-85188332D02*
X135469671Y-85162142D01*
X135469671Y-85162142D02*
X135522052Y-85135951D01*
X135522052Y-85135951D02*
X135600623Y-85135951D01*
X135600623Y-85135951D02*
X135653004Y-85162142D01*
X135653004Y-85162142D02*
X135679195Y-85188332D01*
X135679195Y-85188332D02*
X135705385Y-85240713D01*
X135705385Y-85240713D02*
X135705385Y-85450237D01*
X135810147Y-84926428D02*
X135810147Y-84664523D01*
X135967290Y-84978809D02*
X135417290Y-84795475D01*
X135417290Y-84795475D02*
X135967290Y-84612142D01*
X135967290Y-84428808D02*
X135417290Y-84428808D01*
X135967290Y-84114522D02*
X135653004Y-84350237D01*
X135417290Y-84114522D02*
X135731576Y-84428808D01*
X135679195Y-83878808D02*
X135679195Y-83695475D01*
X135967290Y-83616903D02*
X135967290Y-83878808D01*
X135967290Y-83878808D02*
X135417290Y-83878808D01*
X135417290Y-83878808D02*
X135417290Y-83616903D01*
X135757766Y-82124045D02*
X135757766Y-81704998D01*
X135967290Y-81914521D02*
X135548242Y-81914521D01*
X135679195Y-80840712D02*
X135705385Y-80762140D01*
X135705385Y-80762140D02*
X135731576Y-80735950D01*
X135731576Y-80735950D02*
X135783957Y-80709759D01*
X135783957Y-80709759D02*
X135862528Y-80709759D01*
X135862528Y-80709759D02*
X135914909Y-80735950D01*
X135914909Y-80735950D02*
X135941100Y-80762140D01*
X135941100Y-80762140D02*
X135967290Y-80814521D01*
X135967290Y-80814521D02*
X135967290Y-81024045D01*
X135967290Y-81024045D02*
X135417290Y-81024045D01*
X135417290Y-81024045D02*
X135417290Y-80840712D01*
X135417290Y-80840712D02*
X135443480Y-80788331D01*
X135443480Y-80788331D02*
X135469671Y-80762140D01*
X135469671Y-80762140D02*
X135522052Y-80735950D01*
X135522052Y-80735950D02*
X135574433Y-80735950D01*
X135574433Y-80735950D02*
X135626814Y-80762140D01*
X135626814Y-80762140D02*
X135653004Y-80788331D01*
X135653004Y-80788331D02*
X135679195Y-80840712D01*
X135679195Y-80840712D02*
X135679195Y-81024045D01*
X135810147Y-80500236D02*
X135810147Y-80238331D01*
X135967290Y-80552617D02*
X135417290Y-80369283D01*
X135417290Y-80369283D02*
X135967290Y-80185950D01*
X135914909Y-79688330D02*
X135941100Y-79714521D01*
X135941100Y-79714521D02*
X135967290Y-79793092D01*
X135967290Y-79793092D02*
X135967290Y-79845473D01*
X135967290Y-79845473D02*
X135941100Y-79924045D01*
X135941100Y-79924045D02*
X135888719Y-79976426D01*
X135888719Y-79976426D02*
X135836338Y-80002616D01*
X135836338Y-80002616D02*
X135731576Y-80028807D01*
X135731576Y-80028807D02*
X135653004Y-80028807D01*
X135653004Y-80028807D02*
X135548242Y-80002616D01*
X135548242Y-80002616D02*
X135495861Y-79976426D01*
X135495861Y-79976426D02*
X135443480Y-79924045D01*
X135443480Y-79924045D02*
X135417290Y-79845473D01*
X135417290Y-79845473D02*
X135417290Y-79793092D01*
X135417290Y-79793092D02*
X135443480Y-79714521D01*
X135443480Y-79714521D02*
X135469671Y-79688330D01*
X135967290Y-79452616D02*
X135417290Y-79452616D01*
X135967290Y-79138330D02*
X135653004Y-79374045D01*
X135417290Y-79138330D02*
X135731576Y-79452616D01*
X135757766Y-78902616D02*
X135757766Y-78483569D01*
X135417290Y-78221664D02*
X135862528Y-78221664D01*
X135862528Y-78221664D02*
X135914909Y-78195474D01*
X135914909Y-78195474D02*
X135941100Y-78169283D01*
X135941100Y-78169283D02*
X135967290Y-78116902D01*
X135967290Y-78116902D02*
X135967290Y-78012140D01*
X135967290Y-78012140D02*
X135941100Y-77959759D01*
X135941100Y-77959759D02*
X135914909Y-77933569D01*
X135914909Y-77933569D02*
X135862528Y-77907378D01*
X135862528Y-77907378D02*
X135417290Y-77907378D01*
X135967290Y-77645474D02*
X135417290Y-77645474D01*
X135417290Y-77645474D02*
X135417290Y-77435950D01*
X135417290Y-77435950D02*
X135443480Y-77383569D01*
X135443480Y-77383569D02*
X135469671Y-77357379D01*
X135469671Y-77357379D02*
X135522052Y-77331188D01*
X135522052Y-77331188D02*
X135600623Y-77331188D01*
X135600623Y-77331188D02*
X135653004Y-77357379D01*
X135653004Y-77357379D02*
X135679195Y-77383569D01*
X135679195Y-77383569D02*
X135705385Y-77435950D01*
X135705385Y-77435950D02*
X135705385Y-77645474D01*
D10*
X126655714Y-78725283D02*
X127150953Y-78725283D01*
X126903333Y-78972902D02*
X126903333Y-78477664D01*
X128265238Y-78972902D02*
X127955714Y-78972902D01*
X127955714Y-78972902D02*
X127955714Y-78322902D01*
X128481904Y-78632426D02*
X128698571Y-78632426D01*
X128791428Y-78972902D02*
X128481904Y-78972902D01*
X128481904Y-78972902D02*
X128481904Y-78322902D01*
X128481904Y-78322902D02*
X128791428Y-78322902D01*
X129286666Y-78632426D02*
X129069999Y-78632426D01*
X129069999Y-78972902D02*
X129069999Y-78322902D01*
X129069999Y-78322902D02*
X129379523Y-78322902D01*
X129534285Y-78322902D02*
X129905714Y-78322902D01*
X129720000Y-78972902D02*
X129720000Y-78322902D01*
X131608094Y-78725283D02*
X132103333Y-78725283D01*
X131855713Y-78972902D02*
X131855713Y-78477664D01*
X133279523Y-78972902D02*
X133062856Y-78663378D01*
X132908094Y-78972902D02*
X132908094Y-78322902D01*
X132908094Y-78322902D02*
X133155713Y-78322902D01*
X133155713Y-78322902D02*
X133217618Y-78353854D01*
X133217618Y-78353854D02*
X133248571Y-78384807D01*
X133248571Y-78384807D02*
X133279523Y-78446711D01*
X133279523Y-78446711D02*
X133279523Y-78539569D01*
X133279523Y-78539569D02*
X133248571Y-78601473D01*
X133248571Y-78601473D02*
X133217618Y-78632426D01*
X133217618Y-78632426D02*
X133155713Y-78663378D01*
X133155713Y-78663378D02*
X132908094Y-78663378D01*
X133558094Y-78972902D02*
X133558094Y-78322902D01*
X134208095Y-78353854D02*
X134146190Y-78322902D01*
X134146190Y-78322902D02*
X134053333Y-78322902D01*
X134053333Y-78322902D02*
X133960476Y-78353854D01*
X133960476Y-78353854D02*
X133898571Y-78415759D01*
X133898571Y-78415759D02*
X133867618Y-78477664D01*
X133867618Y-78477664D02*
X133836666Y-78601473D01*
X133836666Y-78601473D02*
X133836666Y-78694330D01*
X133836666Y-78694330D02*
X133867618Y-78818140D01*
X133867618Y-78818140D02*
X133898571Y-78880045D01*
X133898571Y-78880045D02*
X133960476Y-78941950D01*
X133960476Y-78941950D02*
X134053333Y-78972902D01*
X134053333Y-78972902D02*
X134115237Y-78972902D01*
X134115237Y-78972902D02*
X134208095Y-78941950D01*
X134208095Y-78941950D02*
X134239047Y-78910997D01*
X134239047Y-78910997D02*
X134239047Y-78694330D01*
X134239047Y-78694330D02*
X134115237Y-78694330D01*
X134517618Y-78972902D02*
X134517618Y-78322902D01*
X134517618Y-78632426D02*
X134889047Y-78632426D01*
X134889047Y-78972902D02*
X134889047Y-78322902D01*
X135105713Y-78322902D02*
X135477142Y-78322902D01*
X135291428Y-78972902D02*
X135291428Y-78322902D01*
D11*
X151357766Y-82452620D02*
X151357766Y-82033573D01*
X151567290Y-82243096D02*
X151148242Y-82243096D01*
X151567290Y-81352620D02*
X151017290Y-81352620D01*
X151017290Y-81352620D02*
X151410147Y-81169287D01*
X151410147Y-81169287D02*
X151017290Y-80985953D01*
X151017290Y-80985953D02*
X151567290Y-80985953D01*
X151410147Y-80750240D02*
X151410147Y-80488335D01*
X151567290Y-80802621D02*
X151017290Y-80619287D01*
X151017290Y-80619287D02*
X151567290Y-80435954D01*
X151567290Y-79938334D02*
X151305385Y-80121668D01*
X151567290Y-80252620D02*
X151017290Y-80252620D01*
X151017290Y-80252620D02*
X151017290Y-80043096D01*
X151017290Y-80043096D02*
X151043480Y-79990715D01*
X151043480Y-79990715D02*
X151069671Y-79964525D01*
X151069671Y-79964525D02*
X151122052Y-79938334D01*
X151122052Y-79938334D02*
X151200623Y-79938334D01*
X151200623Y-79938334D02*
X151253004Y-79964525D01*
X151253004Y-79964525D02*
X151279195Y-79990715D01*
X151279195Y-79990715D02*
X151305385Y-80043096D01*
X151305385Y-80043096D02*
X151305385Y-80252620D01*
X151567290Y-79702620D02*
X151017290Y-79702620D01*
X151567290Y-79388334D02*
X151253004Y-79624049D01*
X151017290Y-79388334D02*
X151331576Y-79702620D01*
X151357766Y-77895476D02*
X151357766Y-77476429D01*
X151567290Y-77685952D02*
X151148242Y-77685952D01*
X151567290Y-76481190D02*
X151305385Y-76664524D01*
X151567290Y-76795476D02*
X151017290Y-76795476D01*
X151017290Y-76795476D02*
X151017290Y-76585952D01*
X151017290Y-76585952D02*
X151043480Y-76533571D01*
X151043480Y-76533571D02*
X151069671Y-76507381D01*
X151069671Y-76507381D02*
X151122052Y-76481190D01*
X151122052Y-76481190D02*
X151200623Y-76481190D01*
X151200623Y-76481190D02*
X151253004Y-76507381D01*
X151253004Y-76507381D02*
X151279195Y-76533571D01*
X151279195Y-76533571D02*
X151305385Y-76585952D01*
X151305385Y-76585952D02*
X151305385Y-76795476D01*
X151410147Y-76271667D02*
X151410147Y-76009762D01*
X151567290Y-76324048D02*
X151017290Y-76140714D01*
X151017290Y-76140714D02*
X151567290Y-75957381D01*
X151567290Y-75774047D02*
X151017290Y-75774047D01*
X151017290Y-75774047D02*
X151410147Y-75590714D01*
X151410147Y-75590714D02*
X151017290Y-75407380D01*
X151017290Y-75407380D02*
X151567290Y-75407380D01*
X151567290Y-75145476D02*
X151017290Y-75145476D01*
X151017290Y-75145476D02*
X151017290Y-74935952D01*
X151017290Y-74935952D02*
X151043480Y-74883571D01*
X151043480Y-74883571D02*
X151069671Y-74857381D01*
X151069671Y-74857381D02*
X151122052Y-74831190D01*
X151122052Y-74831190D02*
X151200623Y-74831190D01*
X151200623Y-74831190D02*
X151253004Y-74857381D01*
X151253004Y-74857381D02*
X151279195Y-74883571D01*
X151279195Y-74883571D02*
X151305385Y-74935952D01*
X151305385Y-74935952D02*
X151305385Y-75145476D01*
X151357766Y-73338332D02*
X151357766Y-72919285D01*
X151567290Y-73128808D02*
X151148242Y-73128808D01*
X151541100Y-72264523D02*
X151567290Y-72185951D01*
X151567290Y-72185951D02*
X151567290Y-72054999D01*
X151567290Y-72054999D02*
X151541100Y-72002618D01*
X151541100Y-72002618D02*
X151514909Y-71976427D01*
X151514909Y-71976427D02*
X151462528Y-71950237D01*
X151462528Y-71950237D02*
X151410147Y-71950237D01*
X151410147Y-71950237D02*
X151357766Y-71976427D01*
X151357766Y-71976427D02*
X151331576Y-72002618D01*
X151331576Y-72002618D02*
X151305385Y-72054999D01*
X151305385Y-72054999D02*
X151279195Y-72159761D01*
X151279195Y-72159761D02*
X151253004Y-72212142D01*
X151253004Y-72212142D02*
X151226814Y-72238332D01*
X151226814Y-72238332D02*
X151174433Y-72264523D01*
X151174433Y-72264523D02*
X151122052Y-72264523D01*
X151122052Y-72264523D02*
X151069671Y-72238332D01*
X151069671Y-72238332D02*
X151043480Y-72212142D01*
X151043480Y-72212142D02*
X151017290Y-72159761D01*
X151017290Y-72159761D02*
X151017290Y-72028808D01*
X151017290Y-72028808D02*
X151043480Y-71950237D01*
X151567290Y-71714522D02*
X151017290Y-71714522D01*
X151017290Y-71714522D02*
X151017290Y-71504998D01*
X151017290Y-71504998D02*
X151043480Y-71452617D01*
X151043480Y-71452617D02*
X151069671Y-71426427D01*
X151069671Y-71426427D02*
X151122052Y-71400236D01*
X151122052Y-71400236D02*
X151200623Y-71400236D01*
X151200623Y-71400236D02*
X151253004Y-71426427D01*
X151253004Y-71426427D02*
X151279195Y-71452617D01*
X151279195Y-71452617D02*
X151305385Y-71504998D01*
X151305385Y-71504998D02*
X151305385Y-71714522D01*
X151410147Y-71190713D02*
X151410147Y-70928808D01*
X151567290Y-71243094D02*
X151017290Y-71059760D01*
X151017290Y-71059760D02*
X151567290Y-70876427D01*
X151567290Y-70378807D02*
X151305385Y-70562141D01*
X151567290Y-70693093D02*
X151017290Y-70693093D01*
X151017290Y-70693093D02*
X151017290Y-70483569D01*
X151017290Y-70483569D02*
X151043480Y-70431188D01*
X151043480Y-70431188D02*
X151069671Y-70404998D01*
X151069671Y-70404998D02*
X151122052Y-70378807D01*
X151122052Y-70378807D02*
X151200623Y-70378807D01*
X151200623Y-70378807D02*
X151253004Y-70404998D01*
X151253004Y-70404998D02*
X151279195Y-70431188D01*
X151279195Y-70431188D02*
X151305385Y-70483569D01*
X151305385Y-70483569D02*
X151305385Y-70693093D01*
X151279195Y-70143093D02*
X151279195Y-69959760D01*
X151567290Y-69881188D02*
X151567290Y-70143093D01*
X151567290Y-70143093D02*
X151017290Y-70143093D01*
X151017290Y-70143093D02*
X151017290Y-69881188D01*
D10*
X154905714Y-66331414D02*
X155334286Y-66331414D01*
X154820000Y-66588557D02*
X155120000Y-65688557D01*
X155120000Y-65688557D02*
X155420000Y-66588557D01*
X155720000Y-65688557D02*
X155720000Y-66417128D01*
X155720000Y-66417128D02*
X155762857Y-66502842D01*
X155762857Y-66502842D02*
X155805715Y-66545700D01*
X155805715Y-66545700D02*
X155891429Y-66588557D01*
X155891429Y-66588557D02*
X156062857Y-66588557D01*
X156062857Y-66588557D02*
X156148572Y-66545700D01*
X156148572Y-66545700D02*
X156191429Y-66502842D01*
X156191429Y-66502842D02*
X156234286Y-66417128D01*
X156234286Y-66417128D02*
X156234286Y-65688557D01*
X156577143Y-65688557D02*
X157177143Y-66588557D01*
X157177143Y-65688557D02*
X156577143Y-66588557D01*
X139402144Y-84022902D02*
X139402144Y-84487188D01*
X139402144Y-84487188D02*
X139371191Y-84580045D01*
X139371191Y-84580045D02*
X139309287Y-84641950D01*
X139309287Y-84641950D02*
X139216429Y-84672902D01*
X139216429Y-84672902D02*
X139154525Y-84672902D01*
X139711667Y-84672902D02*
X139711667Y-84022902D01*
X139711667Y-84022902D02*
X139959286Y-84022902D01*
X139959286Y-84022902D02*
X140021191Y-84053854D01*
X140021191Y-84053854D02*
X140052144Y-84084807D01*
X140052144Y-84084807D02*
X140083096Y-84146711D01*
X140083096Y-84146711D02*
X140083096Y-84239569D01*
X140083096Y-84239569D02*
X140052144Y-84301473D01*
X140052144Y-84301473D02*
X140021191Y-84332426D01*
X140021191Y-84332426D02*
X139959286Y-84363378D01*
X139959286Y-84363378D02*
X139711667Y-84363378D01*
X140361667Y-84610997D02*
X140392620Y-84641950D01*
X140392620Y-84641950D02*
X140361667Y-84672902D01*
X140361667Y-84672902D02*
X140330715Y-84641950D01*
X140330715Y-84641950D02*
X140361667Y-84610997D01*
X140361667Y-84610997D02*
X140361667Y-84672902D01*
X140361667Y-84270521D02*
X140392620Y-84301473D01*
X140392620Y-84301473D02*
X140361667Y-84332426D01*
X140361667Y-84332426D02*
X140330715Y-84301473D01*
X140330715Y-84301473D02*
X140361667Y-84270521D01*
X140361667Y-84270521D02*
X140361667Y-84332426D01*
X141166429Y-84672902D02*
X141166429Y-84022902D01*
X141166429Y-84022902D02*
X141321191Y-84022902D01*
X141321191Y-84022902D02*
X141414048Y-84053854D01*
X141414048Y-84053854D02*
X141475953Y-84115759D01*
X141475953Y-84115759D02*
X141506906Y-84177664D01*
X141506906Y-84177664D02*
X141537858Y-84301473D01*
X141537858Y-84301473D02*
X141537858Y-84394330D01*
X141537858Y-84394330D02*
X141506906Y-84518140D01*
X141506906Y-84518140D02*
X141475953Y-84580045D01*
X141475953Y-84580045D02*
X141414048Y-84641950D01*
X141414048Y-84641950D02*
X141321191Y-84672902D01*
X141321191Y-84672902D02*
X141166429Y-84672902D01*
X142187858Y-84672902D02*
X141971191Y-84363378D01*
X141816429Y-84672902D02*
X141816429Y-84022902D01*
X141816429Y-84022902D02*
X142064048Y-84022902D01*
X142064048Y-84022902D02*
X142125953Y-84053854D01*
X142125953Y-84053854D02*
X142156906Y-84084807D01*
X142156906Y-84084807D02*
X142187858Y-84146711D01*
X142187858Y-84146711D02*
X142187858Y-84239569D01*
X142187858Y-84239569D02*
X142156906Y-84301473D01*
X142156906Y-84301473D02*
X142125953Y-84332426D01*
X142125953Y-84332426D02*
X142064048Y-84363378D01*
X142064048Y-84363378D02*
X141816429Y-84363378D01*
X142775953Y-84672902D02*
X142466429Y-84672902D01*
X142466429Y-84672902D02*
X142466429Y-84022902D01*
X143952143Y-83991950D02*
X143395000Y-84827664D01*
X144787857Y-84022902D02*
X144911666Y-84022902D01*
X144911666Y-84022902D02*
X144973571Y-84053854D01*
X144973571Y-84053854D02*
X145035476Y-84115759D01*
X145035476Y-84115759D02*
X145066428Y-84239569D01*
X145066428Y-84239569D02*
X145066428Y-84456235D01*
X145066428Y-84456235D02*
X145035476Y-84580045D01*
X145035476Y-84580045D02*
X144973571Y-84641950D01*
X144973571Y-84641950D02*
X144911666Y-84672902D01*
X144911666Y-84672902D02*
X144787857Y-84672902D01*
X144787857Y-84672902D02*
X144725952Y-84641950D01*
X144725952Y-84641950D02*
X144664047Y-84580045D01*
X144664047Y-84580045D02*
X144633095Y-84456235D01*
X144633095Y-84456235D02*
X144633095Y-84239569D01*
X144633095Y-84239569D02*
X144664047Y-84115759D01*
X144664047Y-84115759D02*
X144725952Y-84053854D01*
X144725952Y-84053854D02*
X144787857Y-84022902D01*
X145344999Y-84022902D02*
X145344999Y-84549092D01*
X145344999Y-84549092D02*
X145375952Y-84610997D01*
X145375952Y-84610997D02*
X145406904Y-84641950D01*
X145406904Y-84641950D02*
X145468809Y-84672902D01*
X145468809Y-84672902D02*
X145592618Y-84672902D01*
X145592618Y-84672902D02*
X145654523Y-84641950D01*
X145654523Y-84641950D02*
X145685476Y-84610997D01*
X145685476Y-84610997D02*
X145716428Y-84549092D01*
X145716428Y-84549092D02*
X145716428Y-84022902D01*
X145933094Y-84022902D02*
X146304523Y-84022902D01*
X146118809Y-84672902D02*
X146118809Y-84022902D01*
X147480713Y-83991950D02*
X146923570Y-84827664D01*
X148409284Y-84332426D02*
X148192617Y-84332426D01*
X148192617Y-84672902D02*
X148192617Y-84022902D01*
X148192617Y-84022902D02*
X148502141Y-84022902D01*
X149059284Y-84672902D02*
X148749760Y-84672902D01*
X148749760Y-84672902D02*
X148749760Y-84022902D01*
X149244998Y-84487188D02*
X149554522Y-84487188D01*
X149183093Y-84672902D02*
X149399760Y-84022902D01*
X149399760Y-84022902D02*
X149616427Y-84672902D01*
X149802141Y-84641950D02*
X149894998Y-84672902D01*
X149894998Y-84672902D02*
X150049760Y-84672902D01*
X150049760Y-84672902D02*
X150111665Y-84641950D01*
X150111665Y-84641950D02*
X150142617Y-84610997D01*
X150142617Y-84610997D02*
X150173570Y-84549092D01*
X150173570Y-84549092D02*
X150173570Y-84487188D01*
X150173570Y-84487188D02*
X150142617Y-84425283D01*
X150142617Y-84425283D02*
X150111665Y-84394330D01*
X150111665Y-84394330D02*
X150049760Y-84363378D01*
X150049760Y-84363378D02*
X149925951Y-84332426D01*
X149925951Y-84332426D02*
X149864046Y-84301473D01*
X149864046Y-84301473D02*
X149833093Y-84270521D01*
X149833093Y-84270521D02*
X149802141Y-84208616D01*
X149802141Y-84208616D02*
X149802141Y-84146711D01*
X149802141Y-84146711D02*
X149833093Y-84084807D01*
X149833093Y-84084807D02*
X149864046Y-84053854D01*
X149864046Y-84053854D02*
X149925951Y-84022902D01*
X149925951Y-84022902D02*
X150080712Y-84022902D01*
X150080712Y-84022902D02*
X150173570Y-84053854D01*
X150452141Y-84672902D02*
X150452141Y-84022902D01*
X150452141Y-84332426D02*
X150823570Y-84332426D01*
X150823570Y-84672902D02*
X150823570Y-84022902D01*
X140052142Y-77372902D02*
X140052142Y-76722902D01*
X140052142Y-76722902D02*
X140268809Y-77187188D01*
X140268809Y-77187188D02*
X140485476Y-76722902D01*
X140485476Y-76722902D02*
X140485476Y-77372902D01*
X140764047Y-77187188D02*
X141073571Y-77187188D01*
X140702142Y-77372902D02*
X140918809Y-76722902D01*
X140918809Y-76722902D02*
X141135476Y-77372902D01*
X141723571Y-77372902D02*
X141506904Y-77063378D01*
X141352142Y-77372902D02*
X141352142Y-76722902D01*
X141352142Y-76722902D02*
X141599761Y-76722902D01*
X141599761Y-76722902D02*
X141661666Y-76753854D01*
X141661666Y-76753854D02*
X141692619Y-76784807D01*
X141692619Y-76784807D02*
X141723571Y-76846711D01*
X141723571Y-76846711D02*
X141723571Y-76939569D01*
X141723571Y-76939569D02*
X141692619Y-77001473D01*
X141692619Y-77001473D02*
X141661666Y-77032426D01*
X141661666Y-77032426D02*
X141599761Y-77063378D01*
X141599761Y-77063378D02*
X141352142Y-77063378D01*
X142002142Y-77372902D02*
X142002142Y-76722902D01*
X142373571Y-77372902D02*
X142095000Y-77001473D01*
X142373571Y-76722902D02*
X142002142Y-77094330D01*
X144014047Y-77372902D02*
X143797380Y-77063378D01*
X143642618Y-77372902D02*
X143642618Y-76722902D01*
X143642618Y-76722902D02*
X143890237Y-76722902D01*
X143890237Y-76722902D02*
X143952142Y-76753854D01*
X143952142Y-76753854D02*
X143983095Y-76784807D01*
X143983095Y-76784807D02*
X144014047Y-76846711D01*
X144014047Y-76846711D02*
X144014047Y-76939569D01*
X144014047Y-76939569D02*
X143983095Y-77001473D01*
X143983095Y-77001473D02*
X143952142Y-77032426D01*
X143952142Y-77032426D02*
X143890237Y-77063378D01*
X143890237Y-77063378D02*
X143642618Y-77063378D01*
X144261666Y-77187188D02*
X144571190Y-77187188D01*
X144199761Y-77372902D02*
X144416428Y-76722902D01*
X144416428Y-76722902D02*
X144633095Y-77372902D01*
X144849761Y-77372902D02*
X144849761Y-76722902D01*
X144849761Y-76722902D02*
X145066428Y-77187188D01*
X145066428Y-77187188D02*
X145283095Y-76722902D01*
X145283095Y-76722902D02*
X145283095Y-77372902D01*
X145592618Y-77372902D02*
X145592618Y-76722902D01*
X145592618Y-76722902D02*
X145840237Y-76722902D01*
X145840237Y-76722902D02*
X145902142Y-76753854D01*
X145902142Y-76753854D02*
X145933095Y-76784807D01*
X145933095Y-76784807D02*
X145964047Y-76846711D01*
X145964047Y-76846711D02*
X145964047Y-76939569D01*
X145964047Y-76939569D02*
X145933095Y-77001473D01*
X145933095Y-77001473D02*
X145902142Y-77032426D01*
X145902142Y-77032426D02*
X145840237Y-77063378D01*
X145840237Y-77063378D02*
X145592618Y-77063378D01*
X147202142Y-77341950D02*
X147294999Y-77372902D01*
X147294999Y-77372902D02*
X147449761Y-77372902D01*
X147449761Y-77372902D02*
X147511666Y-77341950D01*
X147511666Y-77341950D02*
X147542618Y-77310997D01*
X147542618Y-77310997D02*
X147573571Y-77249092D01*
X147573571Y-77249092D02*
X147573571Y-77187188D01*
X147573571Y-77187188D02*
X147542618Y-77125283D01*
X147542618Y-77125283D02*
X147511666Y-77094330D01*
X147511666Y-77094330D02*
X147449761Y-77063378D01*
X147449761Y-77063378D02*
X147325952Y-77032426D01*
X147325952Y-77032426D02*
X147264047Y-77001473D01*
X147264047Y-77001473D02*
X147233094Y-76970521D01*
X147233094Y-76970521D02*
X147202142Y-76908616D01*
X147202142Y-76908616D02*
X147202142Y-76846711D01*
X147202142Y-76846711D02*
X147233094Y-76784807D01*
X147233094Y-76784807D02*
X147264047Y-76753854D01*
X147264047Y-76753854D02*
X147325952Y-76722902D01*
X147325952Y-76722902D02*
X147480713Y-76722902D01*
X147480713Y-76722902D02*
X147573571Y-76753854D01*
X147852142Y-77372902D02*
X147852142Y-76722902D01*
X147852142Y-76722902D02*
X148099761Y-76722902D01*
X148099761Y-76722902D02*
X148161666Y-76753854D01*
X148161666Y-76753854D02*
X148192619Y-76784807D01*
X148192619Y-76784807D02*
X148223571Y-76846711D01*
X148223571Y-76846711D02*
X148223571Y-76939569D01*
X148223571Y-76939569D02*
X148192619Y-77001473D01*
X148192619Y-77001473D02*
X148161666Y-77032426D01*
X148161666Y-77032426D02*
X148099761Y-77063378D01*
X148099761Y-77063378D02*
X147852142Y-77063378D01*
X148471190Y-77187188D02*
X148780714Y-77187188D01*
X148409285Y-77372902D02*
X148625952Y-76722902D01*
X148625952Y-76722902D02*
X148842619Y-77372902D01*
X149430714Y-77372902D02*
X149214047Y-77063378D01*
X149059285Y-77372902D02*
X149059285Y-76722902D01*
X149059285Y-76722902D02*
X149306904Y-76722902D01*
X149306904Y-76722902D02*
X149368809Y-76753854D01*
X149368809Y-76753854D02*
X149399762Y-76784807D01*
X149399762Y-76784807D02*
X149430714Y-76846711D01*
X149430714Y-76846711D02*
X149430714Y-76939569D01*
X149430714Y-76939569D02*
X149399762Y-77001473D01*
X149399762Y-77001473D02*
X149368809Y-77032426D01*
X149368809Y-77032426D02*
X149306904Y-77063378D01*
X149306904Y-77063378D02*
X149059285Y-77063378D01*
X149709285Y-77032426D02*
X149925952Y-77032426D01*
X150018809Y-77372902D02*
X149709285Y-77372902D01*
X149709285Y-77372902D02*
X149709285Y-76722902D01*
X149709285Y-76722902D02*
X150018809Y-76722902D01*
X139091428Y-86269164D02*
X139341428Y-87019164D01*
X139341428Y-87019164D02*
X139591428Y-86269164D01*
X139841428Y-86626307D02*
X140091428Y-86626307D01*
X140198571Y-87019164D02*
X139841428Y-87019164D01*
X139841428Y-87019164D02*
X139841428Y-86269164D01*
X139841428Y-86269164D02*
X140198571Y-86269164D01*
X140948570Y-87019164D02*
X140698570Y-86662021D01*
X140519999Y-87019164D02*
X140519999Y-86269164D01*
X140519999Y-86269164D02*
X140805713Y-86269164D01*
X140805713Y-86269164D02*
X140877142Y-86304878D01*
X140877142Y-86304878D02*
X140912856Y-86340592D01*
X140912856Y-86340592D02*
X140948570Y-86412021D01*
X140948570Y-86412021D02*
X140948570Y-86519164D01*
X140948570Y-86519164D02*
X140912856Y-86590592D01*
X140912856Y-86590592D02*
X140877142Y-86626307D01*
X140877142Y-86626307D02*
X140805713Y-86662021D01*
X140805713Y-86662021D02*
X140519999Y-86662021D01*
X141269999Y-87019164D02*
X141269999Y-86269164D01*
X141877142Y-86626307D02*
X141627142Y-86626307D01*
X141627142Y-87019164D02*
X141627142Y-86269164D01*
X141627142Y-86269164D02*
X141984285Y-86269164D01*
X142412856Y-86662021D02*
X142412856Y-87019164D01*
X142162856Y-86269164D02*
X142412856Y-86662021D01*
X142412856Y-86662021D02*
X142662856Y-86269164D01*
X143841428Y-87019164D02*
X143484285Y-87019164D01*
X143484285Y-87019164D02*
X143484285Y-86269164D01*
X144091428Y-86626307D02*
X144341428Y-86626307D01*
X144448571Y-87019164D02*
X144091428Y-87019164D01*
X144091428Y-87019164D02*
X144091428Y-86269164D01*
X144091428Y-86269164D02*
X144448571Y-86269164D01*
X144769999Y-87019164D02*
X144769999Y-86269164D01*
X144769999Y-86269164D02*
X144948570Y-86269164D01*
X144948570Y-86269164D02*
X145055713Y-86304878D01*
X145055713Y-86304878D02*
X145127142Y-86376307D01*
X145127142Y-86376307D02*
X145162856Y-86447735D01*
X145162856Y-86447735D02*
X145198570Y-86590592D01*
X145198570Y-86590592D02*
X145198570Y-86697735D01*
X145198570Y-86697735D02*
X145162856Y-86840592D01*
X145162856Y-86840592D02*
X145127142Y-86912021D01*
X145127142Y-86912021D02*
X145055713Y-86983450D01*
X145055713Y-86983450D02*
X144948570Y-87019164D01*
X144948570Y-87019164D02*
X144769999Y-87019164D01*
X146091428Y-87019164D02*
X146091428Y-86269164D01*
X146091428Y-86269164D02*
X146377142Y-86269164D01*
X146377142Y-86269164D02*
X146448571Y-86304878D01*
X146448571Y-86304878D02*
X146484285Y-86340592D01*
X146484285Y-86340592D02*
X146519999Y-86412021D01*
X146519999Y-86412021D02*
X146519999Y-86519164D01*
X146519999Y-86519164D02*
X146484285Y-86590592D01*
X146484285Y-86590592D02*
X146448571Y-86626307D01*
X146448571Y-86626307D02*
X146377142Y-86662021D01*
X146377142Y-86662021D02*
X146091428Y-86662021D01*
X146984285Y-86269164D02*
X147127142Y-86269164D01*
X147127142Y-86269164D02*
X147198571Y-86304878D01*
X147198571Y-86304878D02*
X147269999Y-86376307D01*
X147269999Y-86376307D02*
X147305714Y-86519164D01*
X147305714Y-86519164D02*
X147305714Y-86769164D01*
X147305714Y-86769164D02*
X147269999Y-86912021D01*
X147269999Y-86912021D02*
X147198571Y-86983450D01*
X147198571Y-86983450D02*
X147127142Y-87019164D01*
X147127142Y-87019164D02*
X146984285Y-87019164D01*
X146984285Y-87019164D02*
X146912857Y-86983450D01*
X146912857Y-86983450D02*
X146841428Y-86912021D01*
X146841428Y-86912021D02*
X146805714Y-86769164D01*
X146805714Y-86769164D02*
X146805714Y-86519164D01*
X146805714Y-86519164D02*
X146841428Y-86376307D01*
X146841428Y-86376307D02*
X146912857Y-86304878D01*
X146912857Y-86304878D02*
X146984285Y-86269164D01*
X147984285Y-87019164D02*
X147627142Y-87019164D01*
X147627142Y-87019164D02*
X147627142Y-86269164D01*
X148198571Y-86804878D02*
X148555714Y-86804878D01*
X148127142Y-87019164D02*
X148377142Y-86269164D01*
X148377142Y-86269164D02*
X148627142Y-87019164D01*
X149305713Y-87019164D02*
X149055713Y-86662021D01*
X148877142Y-87019164D02*
X148877142Y-86269164D01*
X148877142Y-86269164D02*
X149162856Y-86269164D01*
X149162856Y-86269164D02*
X149234285Y-86304878D01*
X149234285Y-86304878D02*
X149269999Y-86340592D01*
X149269999Y-86340592D02*
X149305713Y-86412021D01*
X149305713Y-86412021D02*
X149305713Y-86519164D01*
X149305713Y-86519164D02*
X149269999Y-86590592D01*
X149269999Y-86590592D02*
X149234285Y-86626307D01*
X149234285Y-86626307D02*
X149162856Y-86662021D01*
X149162856Y-86662021D02*
X148877142Y-86662021D01*
X149627142Y-87019164D02*
X149627142Y-86269164D01*
X149877142Y-86269164D02*
X150305714Y-86269164D01*
X150091428Y-87019164D02*
X150091428Y-86269164D01*
X150698571Y-86662021D02*
X150698571Y-87019164D01*
X150448571Y-86269164D02*
X150698571Y-86662021D01*
X150698571Y-86662021D02*
X150948571Y-86269164D01*
X143946666Y-86024819D02*
X143946666Y-86739104D01*
X143946666Y-86739104D02*
X143899047Y-86881961D01*
X143899047Y-86881961D02*
X143803809Y-86977200D01*
X143803809Y-86977200D02*
X143660952Y-87024819D01*
X143660952Y-87024819D02*
X143565714Y-87024819D01*
X144422857Y-87024819D02*
X144422857Y-86024819D01*
X144422857Y-86024819D02*
X144803809Y-86024819D01*
X144803809Y-86024819D02*
X144899047Y-86072438D01*
X144899047Y-86072438D02*
X144946666Y-86120057D01*
X144946666Y-86120057D02*
X144994285Y-86215295D01*
X144994285Y-86215295D02*
X144994285Y-86358152D01*
X144994285Y-86358152D02*
X144946666Y-86453390D01*
X144946666Y-86453390D02*
X144899047Y-86501009D01*
X144899047Y-86501009D02*
X144803809Y-86548628D01*
X144803809Y-86548628D02*
X144422857Y-86548628D01*
X145946666Y-87024819D02*
X145375238Y-87024819D01*
X145660952Y-87024819D02*
X145660952Y-86024819D01*
X145660952Y-86024819D02*
X145565714Y-86167676D01*
X145565714Y-86167676D02*
X145470476Y-86262914D01*
X145470476Y-86262914D02*
X145375238Y-86310533D01*
X141384819Y-89609523D02*
X142099104Y-89609523D01*
X142099104Y-89609523D02*
X142241961Y-89657142D01*
X142241961Y-89657142D02*
X142337200Y-89752380D01*
X142337200Y-89752380D02*
X142384819Y-89895237D01*
X142384819Y-89895237D02*
X142384819Y-89990475D01*
X142384819Y-88609523D02*
X142384819Y-89180951D01*
X142384819Y-88895237D02*
X141384819Y-88895237D01*
X141384819Y-88895237D02*
X141527676Y-88990475D01*
X141527676Y-88990475D02*
X141622914Y-89085713D01*
X141622914Y-89085713D02*
X141670533Y-89180951D01*
X141718152Y-87752380D02*
X142384819Y-87752380D01*
X141337200Y-87990475D02*
X142051485Y-88228570D01*
X142051485Y-88228570D02*
X142051485Y-87609523D01*
X134276666Y-76644819D02*
X134276666Y-77359104D01*
X134276666Y-77359104D02*
X134229047Y-77501961D01*
X134229047Y-77501961D02*
X134133809Y-77597200D01*
X134133809Y-77597200D02*
X133990952Y-77644819D01*
X133990952Y-77644819D02*
X133895714Y-77644819D01*
X135276666Y-77644819D02*
X134705238Y-77644819D01*
X134990952Y-77644819D02*
X134990952Y-76644819D01*
X134990952Y-76644819D02*
X134895714Y-76787676D01*
X134895714Y-76787676D02*
X134800476Y-76882914D01*
X134800476Y-76882914D02*
X134705238Y-76930533D01*
X143946666Y-75879819D02*
X143946666Y-76594104D01*
X143946666Y-76594104D02*
X143899047Y-76736961D01*
X143899047Y-76736961D02*
X143803809Y-76832200D01*
X143803809Y-76832200D02*
X143660952Y-76879819D01*
X143660952Y-76879819D02*
X143565714Y-76879819D01*
X144422857Y-76879819D02*
X144422857Y-75879819D01*
X144422857Y-75879819D02*
X144803809Y-75879819D01*
X144803809Y-75879819D02*
X144899047Y-75927438D01*
X144899047Y-75927438D02*
X144946666Y-75975057D01*
X144946666Y-75975057D02*
X144994285Y-76070295D01*
X144994285Y-76070295D02*
X144994285Y-76213152D01*
X144994285Y-76213152D02*
X144946666Y-76308390D01*
X144946666Y-76308390D02*
X144899047Y-76356009D01*
X144899047Y-76356009D02*
X144803809Y-76403628D01*
X144803809Y-76403628D02*
X144422857Y-76403628D01*
X145375238Y-75975057D02*
X145422857Y-75927438D01*
X145422857Y-75927438D02*
X145518095Y-75879819D01*
X145518095Y-75879819D02*
X145756190Y-75879819D01*
X145756190Y-75879819D02*
X145851428Y-75927438D01*
X145851428Y-75927438D02*
X145899047Y-75975057D01*
X145899047Y-75975057D02*
X145946666Y-76070295D01*
X145946666Y-76070295D02*
X145946666Y-76165533D01*
X145946666Y-76165533D02*
X145899047Y-76308390D01*
X145899047Y-76308390D02*
X145327619Y-76879819D01*
X145327619Y-76879819D02*
X145946666Y-76879819D01*
X153911666Y-81004819D02*
X153911666Y-81719104D01*
X153911666Y-81719104D02*
X153864047Y-81861961D01*
X153864047Y-81861961D02*
X153768809Y-81957200D01*
X153768809Y-81957200D02*
X153625952Y-82004819D01*
X153625952Y-82004819D02*
X153530714Y-82004819D01*
X154340238Y-81100057D02*
X154387857Y-81052438D01*
X154387857Y-81052438D02*
X154483095Y-81004819D01*
X154483095Y-81004819D02*
X154721190Y-81004819D01*
X154721190Y-81004819D02*
X154816428Y-81052438D01*
X154816428Y-81052438D02*
X154864047Y-81100057D01*
X154864047Y-81100057D02*
X154911666Y-81195295D01*
X154911666Y-81195295D02*
X154911666Y-81290533D01*
X154911666Y-81290533D02*
X154864047Y-81433390D01*
X154864047Y-81433390D02*
X154292619Y-82004819D01*
X154292619Y-82004819D02*
X154911666Y-82004819D01*
X143946666Y-64434819D02*
X143946666Y-65149104D01*
X143946666Y-65149104D02*
X143899047Y-65291961D01*
X143899047Y-65291961D02*
X143803809Y-65387200D01*
X143803809Y-65387200D02*
X143660952Y-65434819D01*
X143660952Y-65434819D02*
X143565714Y-65434819D01*
X144422857Y-65434819D02*
X144422857Y-64434819D01*
X144422857Y-64434819D02*
X144803809Y-64434819D01*
X144803809Y-64434819D02*
X144899047Y-64482438D01*
X144899047Y-64482438D02*
X144946666Y-64530057D01*
X144946666Y-64530057D02*
X144994285Y-64625295D01*
X144994285Y-64625295D02*
X144994285Y-64768152D01*
X144994285Y-64768152D02*
X144946666Y-64863390D01*
X144946666Y-64863390D02*
X144899047Y-64911009D01*
X144899047Y-64911009D02*
X144803809Y-64958628D01*
X144803809Y-64958628D02*
X144422857Y-64958628D01*
X145327619Y-64434819D02*
X145946666Y-64434819D01*
X145946666Y-64434819D02*
X145613333Y-64815771D01*
X145613333Y-64815771D02*
X145756190Y-64815771D01*
X145756190Y-64815771D02*
X145851428Y-64863390D01*
X145851428Y-64863390D02*
X145899047Y-64911009D01*
X145899047Y-64911009D02*
X145946666Y-65006247D01*
X145946666Y-65006247D02*
X145946666Y-65244342D01*
X145946666Y-65244342D02*
X145899047Y-65339580D01*
X145899047Y-65339580D02*
X145851428Y-65387200D01*
X145851428Y-65387200D02*
X145756190Y-65434819D01*
X145756190Y-65434819D02*
X145470476Y-65434819D01*
X145470476Y-65434819D02*
X145375238Y-65387200D01*
X145375238Y-65387200D02*
X145327619Y-65339580D01*
X153911666Y-64494819D02*
X153911666Y-65209104D01*
X153911666Y-65209104D02*
X153864047Y-65351961D01*
X153864047Y-65351961D02*
X153768809Y-65447200D01*
X153768809Y-65447200D02*
X153625952Y-65494819D01*
X153625952Y-65494819D02*
X153530714Y-65494819D01*
X154292619Y-64494819D02*
X154911666Y-64494819D01*
X154911666Y-64494819D02*
X154578333Y-64875771D01*
X154578333Y-64875771D02*
X154721190Y-64875771D01*
X154721190Y-64875771D02*
X154816428Y-64923390D01*
X154816428Y-64923390D02*
X154864047Y-64971009D01*
X154864047Y-64971009D02*
X154911666Y-65066247D01*
X154911666Y-65066247D02*
X154911666Y-65304342D01*
X154911666Y-65304342D02*
X154864047Y-65399580D01*
X154864047Y-65399580D02*
X154816428Y-65447200D01*
X154816428Y-65447200D02*
X154721190Y-65494819D01*
X154721190Y-65494819D02*
X154435476Y-65494819D01*
X154435476Y-65494819D02*
X154340238Y-65447200D01*
X154340238Y-65447200D02*
X154292619Y-65399580D01*
D12*
%TO.C,JP1*%
X143450000Y-87570000D02*
X144780000Y-87570000D01*
X143450000Y-88900000D02*
X143450000Y-87570000D01*
X143450000Y-90170000D02*
X143450000Y-95310000D01*
X143450000Y-90170000D02*
X146110000Y-90170000D01*
X143450000Y-95310000D02*
X146110000Y-95310000D01*
X146110000Y-90170000D02*
X146110000Y-95310000D01*
%TO.C,J14*%
X140840000Y-77490000D02*
X140840000Y-78910000D01*
X129120000Y-77490000D02*
X140840000Y-77490000D01*
X140840000Y-78910000D02*
X136340000Y-78910000D01*
X136340000Y-78910000D02*
X136340000Y-88800000D01*
X140530000Y-79750000D02*
X140530000Y-80350000D01*
X135230000Y-79800000D02*
X129730000Y-79800000D01*
X129730000Y-79800000D02*
X129730000Y-80300000D01*
X139930000Y-80050000D02*
X140530000Y-79750000D01*
X135230000Y-80300000D02*
X135230000Y-79800000D01*
X129730000Y-80300000D02*
X135230000Y-80300000D01*
X140530000Y-80350000D02*
X139930000Y-80050000D01*
X135230000Y-82300000D02*
X129730000Y-82300000D01*
X129730000Y-82300000D02*
X129730000Y-82800000D01*
X135230000Y-82800000D02*
X135230000Y-82300000D01*
X129730000Y-82800000D02*
X135230000Y-82800000D01*
X135230000Y-84800000D02*
X129730000Y-84800000D01*
X129730000Y-84800000D02*
X129730000Y-85300000D01*
X135230000Y-85300000D02*
X135230000Y-84800000D01*
X129730000Y-85300000D02*
X135230000Y-85300000D01*
X135230000Y-87300000D02*
X129730000Y-87300000D01*
X129730000Y-87300000D02*
X129730000Y-87800000D01*
X135230000Y-87800000D02*
X135230000Y-87300000D01*
X129730000Y-87800000D02*
X135230000Y-87800000D01*
X129120000Y-88800000D02*
X129120000Y-77490000D01*
X129120000Y-88800000D02*
X129120000Y-100110000D01*
X135230000Y-89800000D02*
X129730000Y-89800000D01*
X129730000Y-89800000D02*
X129730000Y-90300000D01*
X135230000Y-90300000D02*
X135230000Y-89800000D01*
X129730000Y-90300000D02*
X135230000Y-90300000D01*
X135230000Y-92300000D02*
X129730000Y-92300000D01*
X129730000Y-92300000D02*
X129730000Y-92800000D01*
X135230000Y-92800000D02*
X135230000Y-92300000D01*
X129730000Y-92800000D02*
X135230000Y-92800000D01*
X135230000Y-94800000D02*
X129730000Y-94800000D01*
X129730000Y-94800000D02*
X129730000Y-95300000D01*
X135230000Y-95300000D02*
X135230000Y-94800000D01*
X129730000Y-95300000D02*
X135230000Y-95300000D01*
X135230000Y-97300000D02*
X129730000Y-97300000D01*
X129730000Y-97300000D02*
X129730000Y-97800000D01*
X135230000Y-97800000D02*
X135230000Y-97300000D01*
X129730000Y-97800000D02*
X135230000Y-97800000D01*
X140840000Y-98690000D02*
X136340000Y-98690000D01*
X136340000Y-98690000D02*
X136340000Y-88800000D01*
X140840000Y-100110000D02*
X140840000Y-98690000D01*
X129120000Y-100110000D02*
X140840000Y-100110000D01*
%TO.C,J1*%
X140265000Y-76190000D02*
X138995000Y-76190000D01*
X140265000Y-74920000D02*
X140265000Y-76190000D01*
X137952071Y-72760000D02*
X137555000Y-72760000D01*
X137952071Y-72000000D02*
X137555000Y-72000000D01*
X137952071Y-70220000D02*
X137555000Y-70220000D01*
X137952071Y-69460000D02*
X137555000Y-69460000D01*
X137952071Y-67680000D02*
X137555000Y-67680000D01*
X137952071Y-66920000D02*
X137555000Y-66920000D01*
X137885000Y-75300000D02*
X137555000Y-75300000D01*
X137885000Y-74540000D02*
X137555000Y-74540000D01*
X137555000Y-76250000D02*
X137555000Y-65970000D01*
X137555000Y-73650000D02*
X134895000Y-73650000D01*
X137555000Y-71110000D02*
X134895000Y-71110000D01*
X137555000Y-68570000D02*
X134895000Y-68570000D01*
X137555000Y-65970000D02*
X134895000Y-65970000D01*
X134895000Y-76250000D02*
X137555000Y-76250000D01*
X134895000Y-75300000D02*
X128895000Y-75300000D01*
X134895000Y-75240000D02*
X128895000Y-75240000D01*
X134895000Y-75120000D02*
X128895000Y-75120000D01*
X134895000Y-75000000D02*
X128895000Y-75000000D01*
X134895000Y-74880000D02*
X128895000Y-74880000D01*
X134895000Y-74760000D02*
X128895000Y-74760000D01*
X134895000Y-74640000D02*
X128895000Y-74640000D01*
X134895000Y-72760000D02*
X128895000Y-72760000D01*
X134895000Y-70220000D02*
X128895000Y-70220000D01*
X134895000Y-67680000D02*
X128895000Y-67680000D01*
X134895000Y-65970000D02*
X134895000Y-76250000D01*
X128895000Y-75300000D02*
X128895000Y-74540000D01*
X128895000Y-74540000D02*
X134895000Y-74540000D01*
X128895000Y-72760000D02*
X128895000Y-72000000D01*
X128895000Y-72000000D02*
X134895000Y-72000000D01*
X128895000Y-70220000D02*
X128895000Y-69460000D01*
X128895000Y-69460000D02*
X134895000Y-69460000D01*
X128895000Y-67680000D02*
X128895000Y-66920000D01*
X128895000Y-66920000D02*
X134895000Y-66920000D01*
%TO.C,JP2*%
X143450000Y-77425000D02*
X144780000Y-77425000D01*
X143450000Y-78755000D02*
X143450000Y-77425000D01*
X143450000Y-80025000D02*
X143450000Y-85165000D01*
X143450000Y-80025000D02*
X146110000Y-80025000D01*
X143450000Y-85165000D02*
X146110000Y-85165000D01*
X146110000Y-80025000D02*
X146110000Y-85165000D01*
%TO.C,J2*%
X148590000Y-82550000D02*
X149860000Y-82550000D01*
X148590000Y-83820000D02*
X148590000Y-82550000D01*
X150902929Y-85980000D02*
X151300000Y-85980000D01*
X150902929Y-86740000D02*
X151300000Y-86740000D01*
X150902929Y-88520000D02*
X151300000Y-88520000D01*
X150902929Y-89280000D02*
X151300000Y-89280000D01*
X150902929Y-91060000D02*
X151300000Y-91060000D01*
X150902929Y-91820000D02*
X151300000Y-91820000D01*
X150902929Y-93600000D02*
X151300000Y-93600000D01*
X150902929Y-94360000D02*
X151300000Y-94360000D01*
X150902929Y-96140000D02*
X151300000Y-96140000D01*
X150902929Y-96900000D02*
X151300000Y-96900000D01*
X150970000Y-83440000D02*
X151300000Y-83440000D01*
X150970000Y-84200000D02*
X151300000Y-84200000D01*
X151300000Y-82490000D02*
X151300000Y-97850000D01*
X151300000Y-85090000D02*
X153960000Y-85090000D01*
X151300000Y-87630000D02*
X153960000Y-87630000D01*
X151300000Y-90170000D02*
X153960000Y-90170000D01*
X151300000Y-92710000D02*
X153960000Y-92710000D01*
X151300000Y-95250000D02*
X153960000Y-95250000D01*
X151300000Y-97850000D02*
X153960000Y-97850000D01*
X153960000Y-82490000D02*
X151300000Y-82490000D01*
X153960000Y-83440000D02*
X159960000Y-83440000D01*
X153960000Y-83500000D02*
X159960000Y-83500000D01*
X153960000Y-83620000D02*
X159960000Y-83620000D01*
X153960000Y-83740000D02*
X159960000Y-83740000D01*
X153960000Y-83860000D02*
X159960000Y-83860000D01*
X153960000Y-83980000D02*
X159960000Y-83980000D01*
X153960000Y-84100000D02*
X159960000Y-84100000D01*
X153960000Y-85980000D02*
X159960000Y-85980000D01*
X153960000Y-88520000D02*
X159960000Y-88520000D01*
X153960000Y-91060000D02*
X159960000Y-91060000D01*
X153960000Y-93600000D02*
X159960000Y-93600000D01*
X153960000Y-96140000D02*
X159960000Y-96140000D01*
X153960000Y-97850000D02*
X153960000Y-82490000D01*
X159960000Y-83440000D02*
X159960000Y-84200000D01*
X159960000Y-84200000D02*
X153960000Y-84200000D01*
X159960000Y-85980000D02*
X159960000Y-86740000D01*
X159960000Y-86740000D02*
X153960000Y-86740000D01*
X159960000Y-88520000D02*
X159960000Y-89280000D01*
X159960000Y-89280000D02*
X153960000Y-89280000D01*
X159960000Y-91060000D02*
X159960000Y-91820000D01*
X159960000Y-91820000D02*
X153960000Y-91820000D01*
X159960000Y-93600000D02*
X159960000Y-94360000D01*
X159960000Y-94360000D02*
X153960000Y-94360000D01*
X159960000Y-96140000D02*
X159960000Y-96900000D01*
X159960000Y-96900000D02*
X153960000Y-96900000D01*
%TO.C,JP3*%
X143450000Y-65980000D02*
X144780000Y-65980000D01*
X143450000Y-67310000D02*
X143450000Y-65980000D01*
X143450000Y-68580000D02*
X143450000Y-73720000D01*
X143450000Y-68580000D02*
X146110000Y-68580000D01*
X143450000Y-73720000D02*
X146110000Y-73720000D01*
X146110000Y-68580000D02*
X146110000Y-73720000D01*
%TO.C,J3*%
X148590000Y-66040000D02*
X149860000Y-66040000D01*
X148590000Y-67310000D02*
X148590000Y-66040000D01*
X150902929Y-69470000D02*
X151300000Y-69470000D01*
X150902929Y-70230000D02*
X151300000Y-70230000D01*
X150902929Y-72010000D02*
X151300000Y-72010000D01*
X150902929Y-72770000D02*
X151300000Y-72770000D01*
X150902929Y-74550000D02*
X151300000Y-74550000D01*
X150902929Y-75310000D02*
X151300000Y-75310000D01*
X150902929Y-77090000D02*
X151300000Y-77090000D01*
X150902929Y-77850000D02*
X151300000Y-77850000D01*
X150902929Y-79630000D02*
X151300000Y-79630000D01*
X150902929Y-80390000D02*
X151300000Y-80390000D01*
X150970000Y-66930000D02*
X151300000Y-66930000D01*
X150970000Y-67690000D02*
X151300000Y-67690000D01*
X151300000Y-65980000D02*
X151300000Y-81340000D01*
X151300000Y-68580000D02*
X153960000Y-68580000D01*
X151300000Y-71120000D02*
X153960000Y-71120000D01*
X151300000Y-73660000D02*
X153960000Y-73660000D01*
X151300000Y-76200000D02*
X153960000Y-76200000D01*
X151300000Y-78740000D02*
X153960000Y-78740000D01*
X151300000Y-81340000D02*
X153960000Y-81340000D01*
X153960000Y-65980000D02*
X151300000Y-65980000D01*
X153960000Y-66930000D02*
X159960000Y-66930000D01*
X153960000Y-66990000D02*
X159960000Y-66990000D01*
X153960000Y-67110000D02*
X159960000Y-67110000D01*
X153960000Y-67230000D02*
X159960000Y-67230000D01*
X153960000Y-67350000D02*
X159960000Y-67350000D01*
X153960000Y-67470000D02*
X159960000Y-67470000D01*
X153960000Y-67590000D02*
X159960000Y-67590000D01*
X153960000Y-69470000D02*
X159960000Y-69470000D01*
X153960000Y-72010000D02*
X159960000Y-72010000D01*
X153960000Y-74550000D02*
X159960000Y-74550000D01*
X153960000Y-77090000D02*
X159960000Y-77090000D01*
X153960000Y-79630000D02*
X159960000Y-79630000D01*
X153960000Y-81340000D02*
X153960000Y-65980000D01*
X159960000Y-66930000D02*
X159960000Y-67690000D01*
X159960000Y-67690000D02*
X153960000Y-67690000D01*
X159960000Y-69470000D02*
X159960000Y-70230000D01*
X159960000Y-70230000D02*
X153960000Y-70230000D01*
X159960000Y-72010000D02*
X159960000Y-72770000D01*
X159960000Y-72770000D02*
X153960000Y-72770000D01*
X159960000Y-74550000D02*
X159960000Y-75310000D01*
X159960000Y-75310000D02*
X153960000Y-75310000D01*
X159960000Y-77090000D02*
X159960000Y-77850000D01*
X159960000Y-77850000D02*
X153960000Y-77850000D01*
X159960000Y-79630000D02*
X159960000Y-80390000D01*
X159960000Y-80390000D02*
X153960000Y-80390000D01*
%TD*%
M02*
