M48
; DRILL file {KiCad 7.0.11+dfsg-1build4} date Pá 21. srpna 2026, 13:54:50
; FORMAT={-:-/ absolute / metric / decimal}
; #@! TF.CreationDate,2026-08-21T13:54:50+02:00
; #@! TF.GenerationSoftware,Kicad,Pcbnew,7.0.11+dfsg-1build4
; #@! TF.FileFunction,MixedPlating,1,2
FMAT,2
METRIC
; #@! TA.AperFunction,Plated,PTH,ComponentDrill
T1C0.950
; #@! TA.AperFunction,Plated,PTH,ComponentDrill
T2C1.000
%
G90
G05
T1
X138.43Y-80.05
X138.43Y-82.55
X138.43Y-85.05
X138.43Y-87.55
X138.43Y-90.05
X138.43Y-92.55
X138.43Y-95.05
X138.43Y-97.55
T2
X138.995Y-67.3
X138.995Y-69.84
X138.995Y-72.38
X138.995Y-74.92
X144.78Y-67.31
X144.78Y-69.85
X144.78Y-72.39
X144.78Y-78.755
X144.78Y-81.295
X144.78Y-83.835
X144.78Y-88.9
X144.78Y-91.44
X144.78Y-93.98
X149.86Y-67.31
X149.86Y-69.85
X149.86Y-72.39
X149.86Y-74.93
X149.86Y-77.47
X149.86Y-80.01
X149.86Y-83.82
X149.86Y-86.36
X149.86Y-88.9
X149.86Y-91.44
X149.86Y-93.98
X149.86Y-96.52
M30
